<svg width="76" height="126" viewBox="0 0 76 126" fill="none" xmlns="http://www.w3.org/2000/svg">
<g clip-path="url(#clip0_1181_964)">
<path d="M66.1784 3.14946C65.163 2.70421 64.0339 2.33181 62.9373 2.25895C57.6167 1.89465 52.5803 2.86612 48.2913 6.19341C46.4717 7.60205 45.8625 8.07159 44.4572 5.8534C43.3606 4.12094 41.8334 3.01993 40.2169 1.9756C35.6842 -0.963103 29.6406 -0.687852 26.0014 3.24661C23.6863 5.74815 21.4931 5.86959 18.6987 4.94669C17.6265 4.59858 16.5217 4.34761 15.417 4.08855C14.0036 3.75663 12.5983 3.38424 11.1605 3.18994C8.75602 2.85802 6.79835 3.6352 5.08437 5.45671C2.29001 8.4197 0.957819 12.1275 0.356707 15.8758C-0.244405 19.6321 -0.163173 23.5666 1.20151 27.3553C2.07069 29.7678 2.50934 32.3341 3.07796 34.8438C4.6051 41.5712 7.44008 47.5943 12.3221 52.5974C17.2528 57.6572 23.6376 59.8997 30.1523 61.9074C30.4854 62.0126 30.9972 61.5593 31.4277 61.365C31.6714 59.7296 31.9232 58.0943 32.1669 56.459C32.2075 54.0627 32.2644 51.6583 32.2969 49.262C32.3131 48.1205 32.5487 47.0519 33.0929 46.0319C33.5153 45.2466 34.1327 44.858 35.0262 44.9471C35.9604 45.0361 36.464 45.6676 36.659 46.469C36.8864 47.3919 37.0245 48.3634 37.0408 49.3106C37.0976 52.9617 37.0895 56.6128 37.1058 60.264C37.2195 60.3044 37.3413 60.3368 37.4794 60.353C38.7547 64.1984 39.5427 64.7246 43.2631 64.1094C43.8967 64.0041 44.5222 63.8098 45.1152 63.5589C49.1442 61.8993 53.1814 60.2316 57.1942 58.5315C59.7774 57.4386 61.9138 55.8519 63.4734 53.407C64.765 51.375 66.2515 49.432 67.8762 47.6591C70.4187 44.8742 72.3033 41.7007 73.8792 38.333C74.3503 37.321 74.7565 36.2362 74.927 35.1352C75.9018 28.7801 75.7962 22.3603 75.983 15.9648C76.0237 14.6533 75.7312 13.4147 75.1789 12.2165C73.2862 8.07969 70.3456 4.98717 66.1622 3.14946H66.1784ZM11.1848 16.4344C10.405 16.3858 10.1451 15.8029 10.1938 15.131C10.2507 14.3619 10.8274 14.0866 11.5016 14.1271C12.2815 14.1757 12.4927 14.7586 12.5089 15.4305C12.3871 16.1915 11.8672 16.4748 11.1848 16.4344ZM53.222 27.6468C50.2246 23.858 50.6064 20.4417 53.5226 16.4182C53.6282 20.5145 54.408 23.9309 53.222 27.6468Z" fill="#EBB4EC"/>
<path d="M37.1143 60.3366C37.0818 60.288 37.0331 60.2475 36.9925 60.199C36.7326 60.0856 36.5132 59.9156 36.3345 59.6728C36.1233 59.1627 35.9771 58.6446 35.8553 58.1184C35.376 57.2441 34.6449 56.7502 33.7189 56.5479C33.7107 56.6207 33.7026 56.6936 33.6864 56.7664C33.7432 58.7013 33.0771 60.2637 31.42 61.3485C31.5906 61.7776 31.9724 62.2553 31.8912 62.6277C30.5915 68.4808 30.299 74.4149 30.2503 80.3732C30.2341 82.7938 30.1041 85.1658 29.6411 87.5702C29.0075 90.8732 28.8206 94.2653 28.382 97.6169C27.3747 105.251 27.0742 113.023 23.2888 120.058C22.0459 122.365 23.8493 125.425 26.4405 125.951C27.3016 126.13 28.0246 125.781 28.6744 125.271C30.6565 123.693 31.9399 121.701 32.1917 119.159C32.3217 117.88 32.3704 116.625 32.9309 115.403C34.4743 111.978 34.9455 108.311 35.2054 104.603C35.3029 103.162 35.4166 101.713 35.6847 100.305C35.8715 99.3331 36.497 98.5155 37.5855 98.3293C41.0297 97.7464 43.7509 95.6091 46.7727 94.1034C47.0652 93.8119 47.3576 93.5286 47.65 93.2371L47.6988 93.1562C47.8937 91.9823 48.6086 91.4237 49.7783 91.3994C52.727 88.4041 54.8959 84.8744 56.8211 81.1666C57.4384 79.9846 57.5928 78.7217 57.4465 77.4264C57.0891 74.3258 54.6765 72.6743 51.6141 73.4434C49.7296 73.9129 48.0075 74.7063 46.3828 75.8154C44.1327 77.3536 41.7689 78.7298 39.4376 80.1546C38.7958 80.5432 38.1703 81.2071 37.1062 80.3004C37.2118 73.7753 36.8463 67.064 37.4718 60.3528C37.4555 60.3528 37.0981 60.3447 37.0981 60.3447L37.1143 60.3366ZM39.8762 88.3069C40.8754 87.0602 41.9395 85.862 42.9792 84.6477C43.8159 83.231 45.6436 83.8381 46.7078 82.8262C47.4307 82.1381 48.1374 82.5267 48.7304 83.1662C49.4209 83.9191 49.9895 84.9553 49.3153 85.692C48.3892 86.704 48.1456 88.2583 46.8052 88.9303C45.5299 87.9912 47.3901 86.3397 45.8954 85.5382C44.9775 86.4287 44.1084 87.3759 43.1255 88.1855C42.3944 88.7846 41.5496 89.327 40.5017 89.246C40.3555 89.2298 40.128 89.1893 40.0793 89.0922C39.9574 88.8412 39.7706 88.4283 39.8762 88.2988V88.3069Z" fill="#7FBF8B"/>
<path d="M35.8633 58.1265C35.9851 58.6446 36.1313 59.1627 36.3425 59.6808C36.5213 59.9237 36.7487 60.0937 37.0005 60.207C36.7243 59.8994 36.3832 59.608 36.3019 59.2598C36.1963 58.8227 36.042 58.4584 35.8633 58.1346V58.1265Z" fill="#7FBF8B"/>
<path d="M33.6957 56.7746C33.712 56.7018 33.712 56.6289 33.7282 56.5561C33.2571 56.4508 32.7372 56.4184 32.1767 56.4427C31.933 58.078 31.6812 59.7133 31.4375 61.3486C33.0865 60.2638 33.7607 58.7014 33.7039 56.7665L33.6957 56.7746Z" fill="#7FBF8B"/>
<path d="M47.707 93.1562C48.6574 92.8728 49.3642 92.298 49.7866 91.3994C48.9255 91.788 48.3813 92.549 47.707 93.1562Z" fill="#9FCAA8"/>
<path d="M47.707 93.1562C48.3813 92.549 48.9255 91.788 49.7866 91.3994C48.6168 91.4237 47.902 91.9904 47.707 93.1562Z" fill="#9FCAA8"/>
<path d="M46.7812 94.1035C47.2605 94.0064 47.5529 93.7068 47.6667 93.2373C47.4636 93.6178 47.1712 93.9092 46.7894 94.1035H46.7812Z" fill="#9FCAA8"/>
<path d="M47.6585 93.2373C47.3661 93.5287 47.0737 93.8121 46.7812 94.1035C47.1712 93.9092 47.4636 93.6178 47.6585 93.2373Z" fill="#9FCAA8"/>
<path d="M35.5707 56.2482C35.3351 53.7871 35.5301 51.2613 34.7096 48.8164C33.743 51.0508 34.0679 53.4876 33.8242 55.8434C34.6365 55.6815 35.1808 55.8677 35.5707 56.2563V56.2482Z" fill="#90BD94"/>
<path d="M37.1148 60.3364C37.1148 60.3364 37.1148 60.2797 37.1148 60.2554C37.0986 60.2554 37.0905 60.2393 37.0742 60.2393C37.0905 60.2716 37.0986 60.304 37.1148 60.3364Z" fill="#90BD94"/>
<path d="M34.7102 48.8085C35.5225 51.2534 35.3357 53.7792 35.5712 56.2402C36.4323 57.1146 36.5054 58.9928 37.074 60.2314C37.0903 60.2314 37.0984 60.2476 37.1146 60.2476C37.0984 56.5964 37.1065 52.9453 37.0497 49.2942C37.0334 48.3389 36.8953 47.3756 36.6679 46.4527C36.4729 45.6512 35.9612 45.0278 35.0351 44.9307C34.1416 44.8416 33.5242 45.2221 33.1018 46.0155C32.5576 47.0274 32.322 48.1042 32.3058 49.2456C32.2733 51.6419 32.2245 54.0463 32.1758 56.4426C32.8338 56.1026 33.3699 55.9164 33.8248 55.8274C34.0685 53.4796 33.7354 51.0348 34.7102 48.8004V48.8085Z" fill="#90BD94"/>
<path d="M33.8244 55.8353C33.8 56.0782 33.7594 56.3211 33.7188 56.5559C34.6448 56.7582 35.3759 57.2521 35.8551 58.1264C35.7089 57.503 35.6277 56.8797 35.5627 56.2482C35.1809 55.8596 34.6367 55.6815 33.8162 55.8353H33.8244Z" fill="#90BD94"/>
<path d="M37 60.207C37.0406 60.2556 37.0812 60.2961 37.1218 60.3447C37.1056 60.3123 37.0975 60.2799 37.0812 60.2475C37.0569 60.2394 37.0325 60.2232 37.0081 60.2151L37 60.207Z" fill="#90BD94"/>
<path d="M33.727 56.556C33.7676 56.3131 33.8001 56.0783 33.8326 55.8354C33.3696 55.9245 32.8334 56.1107 32.1836 56.4507C32.7441 56.4183 33.264 56.4507 33.7351 56.5641L33.727 56.556Z" fill="#90BD94"/>
<path d="M35.5703 56.2483C35.6272 56.8798 35.7165 57.5112 35.8627 58.1265C36.0415 58.4503 36.1958 58.8146 36.3014 59.2518C36.3826 59.5999 36.7238 59.8914 37 60.199C37.0244 60.2071 37.0487 60.2233 37.0731 60.2314C36.4963 58.9927 36.4314 57.1065 35.5703 56.2402V56.2483Z" fill="#90BD94"/>
<path d="M53.2164 27.6466C54.4023 23.9307 53.6225 20.5143 53.5169 16.418C50.6088 20.4415 50.2189 23.8659 53.2164 27.6466Z" fill="#E7D1D8"/>
<path d="M11.501 14.1186C10.8268 14.0781 10.2419 14.3534 10.1932 15.1224C10.1444 15.7944 10.4044 16.3773 11.1842 16.4258C11.8665 16.4663 12.3945 16.183 12.5083 15.422C12.4839 14.742 12.2808 14.1591 11.501 14.1186Z" fill="#E6D2D8"/>
<path d="M45.8967 85.5464C47.3913 86.3397 45.5311 87.9912 46.8065 88.9384C48.1468 88.2584 48.3986 86.7121 49.3165 85.7002C49.9907 84.9635 49.4221 83.9191 48.7316 83.1743C48.1387 82.5267 47.4319 82.1462 46.709 82.8343C45.6449 83.8544 43.8172 83.2391 42.9805 84.6558C44.0608 84.5992 45.1818 84.4373 45.8967 85.5545V85.5464Z" fill="#8AC395"/>
<path d="M40.5004 89.2539C41.5483 89.3429 42.385 88.7924 43.1242 88.1933C44.1071 87.3838 44.9762 86.4366 45.8941 85.5461C45.0575 84.8094 43.6765 85.8294 42.9779 84.6475C41.9382 85.8618 40.8822 87.06 39.8749 88.3067C39.7693 88.4362 39.9561 88.8491 40.078 89.1C40.1267 89.1972 40.3542 89.2458 40.5004 89.2539Z" fill="#C2D7C6"/>
<path d="M45.8967 85.5462C45.1737 84.429 44.0608 84.5909 42.9805 84.6476C43.6791 85.8295 45.06 84.8095 45.8967 85.5462Z" fill="#C2D7C6"/>
</g>
<defs>
<clipPath id="clip0_1181_964">
<rect width="76" height="126" fill="white"/>
</clipPath>
</defs>
</svg>
