<svg width="76" height="126" viewBox="0 0 76 126" fill="none" xmlns="http://www.w3.org/2000/svg">
<g clip-path="url(#clip0_1181_845)">
<path d="M66.1793 3.14946C65.1639 2.70421 64.0348 2.33181 62.9382 2.25895C57.6175 1.89465 52.5812 2.86612 48.2922 6.19341C46.4726 7.60205 45.8633 8.07159 44.458 5.8534C43.3614 4.12094 41.8343 3.01993 40.2178 1.9756C35.6851 -0.963103 29.6414 -0.687852 26.0023 3.24661C23.6872 5.74815 21.4939 5.86959 18.6996 4.94669C17.6273 4.59858 16.5226 4.34761 15.4178 4.08855C14.0044 3.75663 12.5991 3.38424 11.1613 3.18994C8.75688 2.85802 6.7992 3.6352 5.08522 5.45671C2.29087 8.4197 0.958673 12.1275 0.357562 15.8758C-0.24355 19.6321 -0.162319 23.5666 1.20237 27.3553C2.07154 29.7678 2.51019 32.3341 3.07881 34.8438C4.60596 41.5712 7.44093 47.5943 12.3229 52.5974C17.2537 57.6572 23.6385 59.8997 30.1532 61.9074C30.4863 62.0126 30.998 61.5593 31.4285 61.365C31.6722 59.7296 31.924 58.0943 32.1677 56.459C32.2084 54.0627 32.2652 51.6583 32.2977 49.262C32.314 48.1205 32.5495 47.0519 33.0938 46.0319C33.5162 45.2466 34.1335 44.858 35.0271 44.9471C35.9612 45.0361 36.4649 45.6676 36.6598 46.469C36.8873 47.3919 37.0254 48.3634 37.0416 49.3106C37.0985 52.9617 37.0904 56.6128 37.1066 60.264C37.2203 60.3044 37.3422 60.3368 37.4803 60.353C38.7556 64.1984 39.5435 64.7246 43.2639 64.1094C43.8975 64.0041 44.523 63.8098 45.116 63.5589C49.1451 61.8993 53.1823 60.2316 57.1951 58.5315C59.7783 57.4386 61.9146 55.8519 63.4743 53.407C64.7659 51.375 66.2524 49.432 67.877 47.6591C70.4196 44.8742 72.3041 41.7007 73.88 38.333C74.3512 37.321 74.7573 36.2362 74.9279 35.1352C75.9027 28.7801 75.7971 22.3603 75.9839 15.9648C76.0245 14.6533 75.7321 13.4147 75.1797 12.2165C73.287 8.07969 70.3464 4.98717 66.163 3.14946H66.1793ZM11.1857 16.4344C10.4059 16.3858 10.1459 15.8029 10.1947 15.131C10.2515 14.3619 10.8283 14.0866 11.5025 14.1271C12.2823 14.1757 12.4935 14.7586 12.5098 15.4305C12.3879 16.1915 11.868 16.4748 11.1857 16.4344ZM53.2229 27.6468C50.2255 23.858 50.6072 20.4417 53.5234 16.4182C53.629 20.5145 54.4089 23.9309 53.2229 27.6468Z" fill="#FFBCD7"/>
<path d="M37.1146 60.3366C37.0821 60.288 37.0334 60.2475 36.9927 60.199C36.7328 60.0856 36.5135 59.9156 36.3348 59.6728C36.1236 59.1627 35.9773 58.6446 35.8555 58.1184C35.3762 57.2441 34.6452 56.7502 33.7191 56.5479C33.711 56.6207 33.7029 56.6936 33.6866 56.7664C33.7435 58.7013 33.0774 60.2637 31.4203 61.3485C31.5909 61.7776 31.9726 62.2553 31.8914 62.6277C30.5917 68.4808 30.2993 74.4149 30.2505 80.3732C30.2343 82.7938 30.1043 85.1658 29.6413 87.5702C29.0077 90.8732 28.8209 94.2653 28.3822 97.6169C27.375 105.251 27.0744 113.023 23.289 120.058C22.0462 122.365 23.8495 125.425 26.4408 125.951C27.3018 126.13 28.0248 125.781 28.6747 125.271C30.6567 123.693 31.9402 121.701 32.192 119.159C32.3219 117.88 32.3707 116.625 32.9312 115.403C34.4746 111.978 34.9457 108.311 35.2057 104.603C35.3031 103.162 35.4169 101.713 35.6849 100.305C35.8717 99.3331 36.4972 98.5155 37.5857 98.3293C41.0299 97.7464 43.7512 95.6091 46.773 94.1034C47.0654 93.8119 47.3579 93.5286 47.6503 93.2371L47.699 93.1562C47.894 91.9823 48.6088 91.4237 49.7785 91.3994C52.7272 88.4041 54.8961 84.8744 56.8213 81.1666C57.4387 79.9846 57.593 78.7217 57.4468 77.4264C57.0894 74.3258 54.6768 72.6743 51.6144 73.4434C49.7298 73.9129 48.0077 74.7063 46.3831 75.8154C44.133 77.3536 41.7691 78.7298 39.4378 80.1546C38.7961 80.5432 38.1706 81.2071 37.1065 80.3004C37.2121 73.7753 36.8465 67.064 37.472 60.3528C37.4558 60.3528 37.0983 60.3447 37.0983 60.3447L37.1146 60.3366ZM39.8764 88.3069C40.8756 87.0602 41.9397 85.862 42.9795 84.6477C43.8162 83.231 45.6439 83.8381 46.708 82.8262C47.431 82.1381 48.1377 82.5267 48.7307 83.1662C49.4211 83.9191 49.9897 84.9553 49.3155 85.692C48.3895 86.704 48.1458 88.2583 46.8055 88.9303C45.5301 87.9912 47.3903 86.3397 45.8957 85.5382C44.9778 86.4287 44.1086 87.3759 43.1257 88.1855C42.3946 88.7846 41.5498 89.327 40.5019 89.246C40.3557 89.2298 40.1283 89.1893 40.0795 89.0922C39.9577 88.8412 39.7708 88.4283 39.8764 88.2988V88.3069Z" fill="#7FBF8B"/>
<path d="M35.8636 58.1265C35.9855 58.6446 36.1317 59.1627 36.3429 59.6808C36.5216 59.9237 36.7491 60.0937 37.0009 60.207C36.7247 59.8994 36.3835 59.608 36.3023 59.2598C36.1967 58.8227 36.0424 58.4584 35.8636 58.1346V58.1265Z" fill="#7FBF8B"/>
<path d="M33.6948 56.7746C33.711 56.7018 33.711 56.6289 33.7272 56.5561C33.2561 56.4508 32.7362 56.4184 32.1757 56.4427C31.932 58.078 31.6802 59.7133 31.4365 61.3486C33.0855 60.2638 33.7597 58.7014 33.7029 56.7665L33.6948 56.7746Z" fill="#7FBF8B"/>
<path d="M47.7072 93.1562C48.6576 92.8728 49.3643 92.298 49.7867 91.3994C48.9256 91.788 48.3814 92.549 47.7072 93.1562Z" fill="#9FCAA8"/>
<path d="M47.7072 93.1562C48.3814 92.549 48.9256 91.788 49.7867 91.3994C48.6169 91.4237 47.9021 91.9904 47.7072 93.1562Z" fill="#9FCAA8"/>
<path d="M46.7811 94.1035C47.2604 94.0064 47.5528 93.7068 47.6665 93.2373C47.4635 93.6178 47.171 93.9092 46.7892 94.1035H46.7811Z" fill="#9FCAA8"/>
<path d="M47.6584 93.2373C47.366 93.5287 47.0736 93.8121 46.7811 94.1035C47.171 93.9092 47.4635 93.6178 47.6584 93.2373Z" fill="#9FCAA8"/>
<path d="M35.5712 56.2482C35.3356 53.7871 35.5306 51.2613 34.7101 48.8164C33.7435 51.0508 34.0684 53.4876 33.8247 55.8434C34.637 55.6815 35.1813 55.8677 35.5712 56.2563V56.2482Z" fill="#90BD94"/>
<path d="M37.1146 60.3364C37.1146 60.3364 37.1146 60.2797 37.1146 60.2554C37.0983 60.2554 37.0902 60.2393 37.074 60.2393C37.0902 60.2716 37.0983 60.304 37.1146 60.3364Z" fill="#90BD94"/>
<path d="M34.7101 48.8085C35.5224 51.2534 35.3356 53.7792 35.5712 56.2402C36.4322 57.1146 36.5053 58.9928 37.074 60.2314C37.0902 60.2314 37.0983 60.2476 37.1146 60.2476C37.0983 56.5964 37.1065 52.9453 37.0496 49.2942C37.0334 48.3389 36.8953 47.3756 36.6678 46.4527C36.4729 45.6512 35.9611 45.0278 35.0351 44.9307C34.1415 44.8416 33.5242 45.2221 33.1018 46.0155C32.5575 47.0274 32.3219 48.1042 32.3057 49.2456C32.2732 51.6419 32.2245 54.0463 32.1757 56.4426C32.8337 56.1026 33.3698 55.9164 33.8247 55.8274C34.0684 53.4796 33.7354 51.0348 34.7101 48.8004V48.8085Z" fill="#90BD94"/>
<path d="M33.8247 55.8353C33.8003 56.0782 33.7597 56.3211 33.7191 56.5559C34.6452 56.7582 35.3762 57.2521 35.8555 58.1264C35.7093 57.503 35.6281 56.8797 35.5631 56.2482C35.1813 55.8596 34.637 55.6815 33.8166 55.8353H33.8247Z" fill="#90BD94"/>
<path d="M37.0009 60.207C37.0415 60.2556 37.0821 60.2961 37.1227 60.3447C37.1065 60.3123 37.0983 60.2799 37.0821 60.2475C37.0577 60.2394 37.0333 60.2232 37.009 60.2151L37.0009 60.207Z" fill="#90BD94"/>
<path d="M33.7272 56.556C33.7678 56.3131 33.8003 56.0783 33.8328 55.8354C33.3698 55.9245 32.8337 56.1107 32.1838 56.4507C32.7443 56.4183 33.2642 56.4507 33.7354 56.5641L33.7272 56.556Z" fill="#90BD94"/>
<path d="M35.5712 56.2483C35.628 56.8798 35.7174 57.5112 35.8636 58.1265C36.0423 58.4503 36.1966 58.8146 36.3022 59.2518C36.3835 59.5999 36.7247 59.8914 37.0008 60.199C37.0252 60.2071 37.0496 60.2233 37.0739 60.2314C36.4972 58.9927 36.4322 57.1065 35.5712 56.2402V56.2483Z" fill="#90BD94"/>
<path d="M53.2146 27.6466C54.4006 23.9307 53.6208 20.5143 53.5152 16.418C50.6071 20.4415 50.2172 23.8659 53.2146 27.6466Z" fill="#E7D1D8"/>
<path d="M11.5023 14.1186C10.8281 14.0781 10.2433 14.3534 10.1945 15.1224C10.1458 15.7944 10.4057 16.3773 11.1855 16.4258C11.8679 16.4663 12.3959 16.183 12.5096 15.422C12.4852 14.742 12.2822 14.1591 11.5023 14.1186Z" fill="#E6D2D8"/>
<path d="M45.8957 85.5464C47.3904 86.3397 45.5302 87.9912 46.8055 88.9384C48.1458 88.2584 48.3976 86.7121 49.3155 85.7002C49.9898 84.9635 49.4211 83.9191 48.7307 83.1743C48.1377 82.5267 47.431 82.1462 46.708 82.8343C45.6439 83.8544 43.8162 83.2391 42.9795 84.6558C44.0599 84.5992 45.1809 84.4373 45.8957 85.5545V85.5464Z" fill="#8AC395"/>
<path d="M40.5019 89.2539C41.5498 89.3429 42.3865 88.7924 43.1257 88.1933C44.1086 87.3838 44.9778 86.4366 45.8957 85.5461C45.059 84.8094 43.6781 85.8294 42.9795 84.6475C41.9397 85.8618 40.8837 87.06 39.8764 88.3067C39.7708 88.4362 39.9577 88.8491 40.0795 89.1C40.1282 89.1972 40.3557 89.2458 40.5019 89.2539Z" fill="#C2D7C6"/>
<path d="M45.8957 85.5462C45.1727 84.429 44.0599 84.5909 42.9795 84.6476C43.6781 85.8295 45.059 84.8095 45.8957 85.5462Z" fill="#C2D7C6"/>
</g>
<defs>
<clipPath id="clip0_1181_845">
<rect width="76" height="126" fill="white"/>
</clipPath>
</defs>
</svg>
