<svg width="1120" height="561" viewBox="0 0 1120 561" fill="none" xmlns="http://www.w3.org/2000/svg">
<path fill-rule="evenodd" clip-rule="evenodd" d="M143.606 22.0357C133.484 27.5017 123.33 32.9854 114.765 40.8455L114.855 40.8683C114.034 41.6263 113.122 41.7613 112.138 41.907C111.408 42.015 110.639 42.1289 109.837 42.5066C110.788 44.3851 111.739 46.236 112.683 48.0715L112.691 48.0889L112.697 48.1C114.834 52.2581 116.931 56.3379 118.898 60.4833C120.743 64.3802 122.476 68.349 124.261 72.4378C125.134 74.4373 126.019 76.4656 126.937 78.5282C126.732 78.7332 126.514 78.9593 126.284 79.1977L126.283 79.199C125.723 79.7805 125.092 80.4344 124.416 81.0312C123.038 82.2484 121.644 83.4486 120.25 84.6484C117.369 87.1274 114.491 89.6048 111.767 92.2268C109.137 94.7361 106.815 97.572 104.5 100.399C104.295 100.649 104.091 100.898 103.887 101.147C102.274 103.081 103.092 104.947 105.658 105.425C106.771 105.63 107.974 105.607 109.11 105.493C113.97 105.027 118.824 104.554 123.678 104.082C128.532 103.61 133.386 103.138 138.246 102.671C138.433 102.657 138.639 102.707 138.845 102.757C138.964 102.785 139.083 102.814 139.2 102.831C139.279 102.91 139.375 102.981 139.47 103.052C139.647 103.183 139.822 103.313 139.881 103.491C140.43 104.982 140.982 106.472 141.534 107.962L141.535 107.965C143.518 113.318 145.5 118.669 147.33 124.061C148.715 128.134 149.759 132.321 150.804 136.507L150.804 136.508C151.224 138.153 151.556 139.824 151.889 141.496L151.889 141.499L151.889 141.499L151.889 141.5L151.889 141.5L151.89 141.5L151.89 141.501L151.89 141.501L151.89 141.501C152.169 142.906 152.448 144.311 152.78 145.702C153.166 147.385 154.324 148.182 155.732 147.954C156.768 146.931 157.788 145.933 158.793 144.949C160.939 142.849 163.017 140.815 165.043 138.738C172.946 130.638 181.575 123.447 190.659 116.757C192.385 115.483 194.134 114.208 195.973 113.093C196.745 112.616 197.881 112.138 198.721 112.32C200.447 112.684 201.582 111.91 202.718 110.909C203.83 109.93 205.011 109.134 206.578 108.861C209.235 108.429 211.12 107.154 211.484 104.105C211.62 103.104 212.551 102.08 213.346 101.306C219.318 95.5491 225.813 90.4747 232.671 85.7643C235.132 84.0692 237.625 82.4211 240.118 80.7731C246.461 76.5809 252.802 72.3892 258.605 67.4236C259.27 66.8449 260.043 66.3743 260.81 65.9077L260.81 65.9074C261.038 65.7686 261.266 65.6302 261.489 65.4894C265.827 62.7816 270.119 59.9826 274.343 57.0472C277.545 54.8096 280.999 52.9554 284.451 51.1016L284.452 51.1014L284.454 51.1C285.53 50.5225 286.605 49.945 287.673 49.356C289.112 48.5555 290.546 47.7469 291.98 46.9383L291.983 46.9362L291.987 46.9341L291.987 46.9339C297.317 43.9282 302.644 40.9236 308.225 38.3424C311.836 36.6586 315.424 35.0202 319.33 34.1555C320.969 33.7906 322.584 33.2924 324.201 32.7936L324.201 32.7935L324.202 32.7934L324.202 32.7933L324.202 32.7933L324.203 32.7932L324.203 32.7931L324.203 32.793L324.204 32.7929L324.207 32.7919C324.806 32.6071 325.406 32.4223 326.007 32.244C326.134 32.2077 326.272 32.1731 326.415 32.1377C326.985 31.9956 327.614 31.8391 327.778 31.4931C328.632 29.6814 329.991 29.8728 331.397 30.071C331.598 30.0993 331.8 30.1278 332.002 30.1506C332.205 30.1662 332.429 30.0744 332.645 29.9859C332.744 29.9456 332.841 29.906 332.933 29.8775C333.16 26.487 332.933 25.5312 330.526 24.8941C327.874 24.1983 325.32 23.2112 322.765 22.2237C319.304 20.8859 315.842 19.5475 312.131 18.9322C307.044 18.0903 302.321 16.0651 297.779 13.562C288.741 8.5786 279.066 5.14256 269.142 2.43468C268.166 2.16162 267.212 1.95682 266.213 1.84305C248.046 -0.386966 229.901 -0.910334 211.756 2.04785C199.675 4.02755 187.593 6.1893 175.83 9.73911C164.884 13.0159 153.938 16.4519 143.832 21.9132L143.606 22.0357ZM258.287 5.43837C264.101 5.64317 269.801 6.4396 275.342 8.3738L275.41 8.35104C276.81 8.8374 278.221 9.29641 279.651 9.76181C283.439 10.9948 287.365 12.2725 291.602 14.2219C290.818 14.2376 290.147 14.2425 289.552 14.2468C288.424 14.255 287.567 14.2612 286.72 14.3357C286.495 14.3533 286.263 14.3649 286.027 14.3767C285.046 14.4258 284.018 14.4773 283.359 14.9728C281.667 16.2643 279.832 16.3031 277.95 16.343H277.95H277.949H277.949C277.822 16.3457 277.695 16.3484 277.568 16.3514C277.454 16.3542 277.341 16.3572 277.227 16.3609C276.573 16.3799 275.917 16.3939 275.259 16.408L275.255 16.4081C272.766 16.4613 270.263 16.5148 267.803 16.8387C251.838 18.8867 235.987 21.5036 220.454 25.7588L220.181 25.8329C216.592 26.8101 212.98 27.7935 209.303 28.1708C203.967 28.7397 198.766 29.5362 194.02 31.7662L193.885 31.7184L193.709 31.6561C193.422 31.5548 193.145 31.4577 192.874 31.3625L192.871 31.3615L192.863 31.3587C192.231 31.1371 191.629 30.9259 191 30.6967C190.773 30.8327 190.54 30.958 190.308 31.0824C189.958 31.2702 189.611 31.4562 189.297 31.6752C187.581 32.8555 185.852 34.0216 184.124 35.1881L184.12 35.1904C180.084 37.9134 176.045 40.6386 172.151 43.5534C165.135 48.8313 158.324 54.3823 151.513 59.9333L151.513 59.9336L151.512 59.934L151.512 59.9344L151.511 59.9347L151.511 59.9351L151.51 59.9355L151.51 59.9358L151.509 59.9362L151.508 59.9371C149.805 61.3025 148.352 61.5073 146.58 60.3695C145.706 59.8155 144.805 59.2756 143.908 58.7387L143.906 58.7374L143.698 58.6129C143.523 58.5081 143.348 58.4035 143.174 58.2988C142.46 57.8732 141.746 57.4482 141.034 57.0236L139.345 56.0178C136.202 54.1467 133.068 52.2805 129.934 50.4027C129.401 50.077 128.869 49.7447 128.336 49.412L128.336 49.4118L128.336 49.4117L128.336 49.4116L128.335 49.4114L128.335 49.4113L128.335 49.4111L128.334 49.411L128.334 49.4109C126.896 48.512 125.453 47.6104 123.962 46.8301C122.509 46.0641 121.005 45.4013 119.436 44.7096C118.675 44.374 117.898 44.0315 117.104 43.6672C118.193 41.7069 119.837 40.6799 121.416 39.6936C121.615 39.5693 121.813 39.4457 122.009 39.3209C122.404 39.0733 122.799 38.8252 123.194 38.577L123.205 38.5698C126.873 36.2664 130.553 33.955 134.363 31.9027L134.781 31.6777C143.522 26.9731 152.296 22.2507 161.796 19.1598C164.861 18.1585 167.921 17.1459 170.981 16.1333C174.042 15.1207 177.102 14.1081 180.167 13.1069C180.911 12.8706 181.699 12.7068 182.471 12.5461L182.707 12.497L182.886 12.4595L183.051 12.4242C194.383 10.0122 205.738 7.80492 217.184 6.05277C223.27 5.1198 229.378 4.73296 235.487 4.71021C240.63 4.69482 245.763 4.91862 250.899 5.14258H250.899H250.899H250.9H250.9H250.9H250.901H250.901H250.901C253.362 5.24991 255.823 5.35728 258.287 5.43837ZM150.827 67.856C152.258 68.4021 153.098 67.5146 152.871 65.7397L152.962 65.8307C152.935 65.643 152.916 65.4552 152.896 65.2535L152.895 65.252C152.881 65.1119 152.867 64.965 152.848 64.8068C153.882 63.9674 154.915 63.1245 155.948 62.281C158.613 60.106 161.282 57.9272 163.998 55.7957C167.655 52.9513 171.356 50.1752 175.126 47.4673C176.14 46.7351 177.134 45.9675 178.136 45.1936L178.136 45.1935L178.137 45.193C180.902 43.0569 183.73 40.8728 187.23 39.2526C184.85 45.0936 182.528 50.8087 180.237 56.4468L180.219 56.4906L180.142 56.6798L180.112 56.7541C177.876 62.2568 175.669 67.6869 173.468 73.0897C173.658 73.5417 173.864 73.9675 174.062 74.3772C174.502 75.2872 174.903 76.1178 175.012 76.9808C175.12 77.7995 174.946 78.6601 174.773 79.5128C174.691 79.9163 174.609 80.318 174.558 80.7127C175.21 81.3368 175.816 82.0015 176.411 82.6543C177.704 84.0722 178.946 85.4332 180.485 86.1967C182.67 87.2914 184.594 88.7321 186.514 90.1693L186.514 90.1695C187.746 91.0923 188.977 92.0137 190.273 92.8412C193.668 94.9784 196.924 97.3248 200.182 99.6729L200.183 99.6739L200.185 99.6755C201.089 100.327 201.993 100.978 202.899 101.625C203.317 101.919 203.65 102.34 204.021 102.809C204.195 103.028 204.377 103.258 204.58 103.491C202.816 104.689 201.16 104.4 199.613 104.13L199.505 104.112C199.356 104.086 199.208 104.06 199.062 104.037C190.226 102.59 181.412 101.082 172.579 99.5706L171.152 99.3264C170.764 99.2617 170.392 99.1252 170.022 98.99C169.613 98.8401 169.208 98.6916 168.79 98.6438C166.315 98.348 164.634 99.5995 164.157 102.08C164.053 102.619 163.989 103.167 163.924 103.714V103.714V103.714V103.715V103.715V103.715L163.924 103.715L163.924 103.716L163.924 103.716L163.924 103.717L163.924 103.717L163.924 103.717L163.923 103.718L163.923 103.718C163.833 104.485 163.743 105.251 163.544 105.994C161.456 113.633 159.309 121.252 157.158 128.888L157.158 128.889L157.157 128.891L157.157 128.893L157.156 128.895L157.156 128.896L157.156 128.898L157.155 128.9L157.153 128.908L156.595 130.888C156.435 131.472 156.181 132.028 155.858 132.736C155.677 133.132 155.475 133.575 155.255 134.096C154.639 132.183 154.052 130.32 153.478 128.495C152.065 124.004 150.726 119.749 149.192 115.574C148.918 114.828 148.645 114.08 148.373 113.332L148.372 113.331C146.5 108.191 144.615 103.018 142.038 98.0522C141.674 98.0806 141.321 98.1071 140.978 98.1324L140.707 98.1523L140.248 98.1858L140.24 98.1864L140.239 98.1865C139.224 98.2603 138.281 98.329 137.338 98.4162C133.217 98.8371 129.102 99.2693 124.987 99.7015L124.984 99.7019C120.868 100.134 116.752 100.567 112.63 100.988L112.59 100.993C112.566 100.996 112.542 100.999 112.518 101.003L112.489 101.007C112.459 101.011 112.428 101.016 112.398 101.021L112.32 101.034C111.645 101.143 110.917 101.261 110.563 100.237C110.612 100.161 110.661 100.085 110.71 100.008L110.711 100.007C110.913 99.69 111.121 99.3643 111.358 99.0534C115.241 94.252 119.965 90.3609 124.734 86.4925C127.777 83.9894 130.775 81.4181 133.204 78.0958C133.035 77.7921 132.89 77.4709 132.75 77.1593C132.437 76.4671 132.146 75.8226 131.66 75.5245C130.57 74.8646 130.002 73.9771 129.435 72.9759C128.243 70.8747 127.049 68.7751 125.855 66.6759L125.852 66.6706L125.849 66.6653L125.846 66.66L125.843 66.6547C122.698 61.1226 119.554 55.5926 116.445 50.0386C116.222 49.6364 116.135 49.1464 116.032 48.5622C115.977 48.254 115.918 47.9197 115.832 47.5583C116.458 47.7722 117.048 47.9592 117.609 48.137L117.61 48.1371C118.839 48.5267 119.928 48.8716 120.941 49.356C122.099 49.8869 123.156 50.6389 124.213 51.3914C124.379 51.5096 124.545 51.6279 124.711 51.7453C126.815 53.2095 128.914 54.688 131.015 56.1678L131.019 56.1705C133.52 57.9322 136.024 59.6957 138.541 61.439C139.359 61.9851 140.244 62.5312 141.175 62.8271C143.764 63.6235 145.99 64.9888 148.215 66.4679C149.033 67.014 149.919 67.4919 150.827 67.856ZM198.721 68.6752C196.109 70.0405 193.475 71.5651 191.295 73.522L191.272 73.5448C188.905 75.655 186.277 77.3169 183.488 79.081C182.157 79.923 180.789 80.7883 179.395 81.7366C179.138 81.3929 178.862 81.0867 178.613 80.8107C178.137 80.2828 177.761 79.8653 177.806 79.5066C177.863 79.068 177.919 78.6286 177.975 78.189L177.976 78.1863L177.976 78.1835C178.363 75.1587 178.75 72.1234 179.622 69.244C180.693 65.7068 182.12 62.2786 183.545 58.8563L183.545 58.8559L183.545 58.8554L183.546 58.8549L183.546 58.8545L183.546 58.854L183.546 58.8536L183.546 58.8531L183.547 58.8527C183.844 58.1371 184.142 57.4219 184.437 56.7059C185.731 53.5657 187.065 50.4425 188.399 47.3194L188.402 47.3133C189.735 44.1922 191.069 41.071 192.362 37.9328C193.089 36.1579 194.383 35.4525 196.087 35.0657C197.842 34.6545 199.6 34.2498 201.357 33.8452C206.214 32.7268 211.07 31.6085 215.889 30.3553C233.239 25.8726 250.861 22.9371 268.597 20.5706C276.182 19.5694 283.813 20.0472 291.42 20.5706C293.199 20.6877 294.992 20.7155 296.787 20.7434H296.788H296.788H296.788H296.789H296.789H296.79H296.79H296.79H296.791C298.135 20.7643 299.481 20.7852 300.822 20.8437C301.353 20.8681 301.886 20.8862 302.419 20.9043L302.422 20.9044H302.423C304.376 20.9708 306.335 21.0374 308.225 21.4125C310.894 21.9475 313.508 22.7339 316.12 23.52L316.121 23.5202C316.842 23.7372 317.563 23.9542 318.285 24.1659C318.387 24.196 318.489 24.2255 318.592 24.2551C319.887 24.6297 321.234 25.0192 322.055 26.6007C320.231 27.8323 318.217 27.7634 316.239 27.6957C315.952 27.6858 315.664 27.676 315.379 27.6702C307.544 27.5565 299.823 28.2619 292.283 30.4691C291.171 30.7877 290.058 31.0608 288.922 31.3338C287.187 31.7335 285.436 32.0921 283.685 32.451L283.684 32.4512C279.751 33.2568 275.813 34.0636 272.027 35.3387C269.209 36.288 266.362 37.1577 263.513 38.0277C255.914 40.3487 248.308 42.6717 241.255 46.5116C240.688 46.8301 240.075 47.1032 239.439 47.2625C232.717 48.9236 226.88 52.3141 221.18 56.0688C218.546 57.7982 215.889 59.4138 212.937 60.6198C210.507 61.5983 208.123 62.8726 205.965 64.3744C203.626 65.99 201.196 67.3553 198.721 68.6752ZM191.322 88.7615C189.929 87.8143 188.535 86.8667 187.139 85.9236V85.9009C186.707 85.6071 186.359 85.1873 186.031 84.7913C185.876 84.6045 185.725 84.423 185.572 84.2625C185.653 84.0755 185.711 83.9031 185.763 83.7503C185.855 83.4755 185.926 83.2645 186.072 83.1475C186.889 82.499 187.695 81.8334 188.501 81.1678L188.502 81.1671L188.503 81.1664L188.503 81.1657L188.504 81.165L188.505 81.1643L188.506 81.1637L188.507 81.163L188.508 81.1623C190.499 79.5175 192.491 77.8722 194.656 76.4802C198.644 73.9196 202.713 71.5109 206.781 69.1034C208.388 68.152 209.995 67.2007 211.597 66.2403C212.437 65.7397 213.346 65.2619 214.277 64.966C217.343 63.9876 219.931 62.2354 222.52 60.4378C227.857 56.7287 233.398 53.5202 239.734 51.8363C240.688 51.586 241.619 51.1764 242.482 50.7213C246.865 48.4003 251.429 46.466 256.198 45.0097C258.449 44.3332 260.674 43.5636 262.9 42.7939L262.9 42.7938L262.901 42.7936L262.901 42.7935L262.901 42.7933L262.902 42.7932L262.902 42.7931L262.903 42.7929L262.903 42.7928C265.841 41.7768 268.78 40.7606 271.777 39.9581C281.042 37.4777 290.353 35.225 299.709 33.086C300.478 32.9109 301.245 32.7284 302.013 32.5458C306.234 31.5416 310.456 30.5374 314.856 30.7877C314.898 30.7894 314.942 30.7893 314.986 30.7882C315.052 30.7865 315.119 30.7825 315.188 30.7784C315.686 30.7485 316.205 30.7173 316.242 31.6069C306.636 35.225 297.143 39.0706 288.536 44.8277C288.127 45.1007 287.673 45.3283 287.219 45.5103C280.94 48.2638 275.26 52.0251 269.579 55.7863C265.871 58.2419 262.162 60.6975 258.287 62.8726C257.619 63.2377 257.022 63.7352 256.422 64.2357L256.42 64.2368C256.123 64.4844 255.825 64.7327 255.517 64.966C254.44 65.788 253.387 66.6504 252.336 67.5123L252.335 67.5129L252.334 67.5135L252.333 67.5141L252.333 67.5147L252.332 67.5153L252.331 67.5159L252.331 67.5165L252.33 67.5167C250.035 69.3973 247.744 71.2752 245.207 72.7256C240.081 75.6495 235.316 79.0565 230.547 82.4662C228.45 83.9655 226.353 85.4653 224.223 86.9248C220.522 89.4734 217.047 92.2268 213.777 95.3215C213.47 95.6167 213.168 95.9223 212.863 96.2309L212.863 96.2312L212.862 96.2325C211.547 97.5646 210.178 98.9504 208.077 99.7816C202.447 96.3241 196.89 92.5464 191.324 88.7628L191.322 88.7615ZM165.255 115.39L165.255 115.39C166.263 111.407 167.267 107.438 168.699 103.627C173.741 103.991 193.384 107.609 196.7 108.793C196.653 108.84 196.607 108.888 196.562 108.935C196.503 108.999 196.446 109.062 196.389 109.124L196.389 109.125C196.163 109.375 195.954 109.606 195.701 109.748C186.185 114.959 177.965 121.877 169.948 129.068C168.177 130.651 166.487 132.325 164.796 134.001C163.668 135.118 162.54 136.236 161.387 137.328C161.037 137.663 160.604 137.905 159.972 138.258C159.619 138.455 159.204 138.687 158.707 138.989C159.299 136.895 159.87 134.884 160.424 132.928L160.427 132.92L160.431 132.903C161.598 128.79 162.695 124.924 163.771 121.058C164.298 119.175 164.777 117.281 165.255 115.39ZM324.093 29.7222C324.157 29.7537 324.22 29.7847 324.281 29.8092C324.213 29.8936 324.159 29.9779 324.098 30.0715L324.097 30.0719L324.057 30.1339L324.031 30.1733C323.918 30.1652 323.808 30.1543 323.7 30.1435L323.7 30.1435C323.503 30.124 323.313 30.105 323.123 30.105C323.177 30.043 323.226 29.9677 323.274 29.8936C323.367 29.7504 323.457 29.6117 323.577 29.5817C323.743 29.5484 323.921 29.6366 324.093 29.722L324.093 29.7222ZM1076.19 22.9667L1076.19 22.6435C1076.17 19.5427 1071.44 19.6869 1071.46 22.7878C1071.47 23.8626 1071.49 24.9328 1071.52 25.9965C1070.06 36.9423 1063.96 45.0429 1054.11 49.7577C1052.43 50.5509 1052.76 53.171 1054.23 53.9402C1065.63 59.9249 1067.72 76.7181 1069.15 88.2695L1069.24 88.9627C1069.6 91.727 1073.83 91.102 1073.9 88.4339C1074.18 77.2084 1076.29 62.6418 1086.26 55.7911C1087.61 54.8777 1087.16 52.8105 1086.07 51.9692C1077.83 45.6417 1076.53 35.8925 1076.26 26.2378C1076.33 25.5753 1076.39 24.906 1076.43 24.23C1076.46 23.7512 1076.37 23.328 1076.19 22.9667ZM1072.77 38.2704C1069.96 43.921 1065.62 48.6312 1060 52.0482C1065.98 56.8316 1069.19 64.1989 1071.13 71.9743C1072.81 64.9834 1075.79 58.3807 1080.97 53.8661C1076.39 49.4531 1074.01 44.1163 1072.77 38.2704ZM1096.83 71.4635C1095.24 78.242 1090.73 82.737 1084.23 84.5639C1082.64 85.0206 1081.96 87.6647 1083.45 88.6502C1092.74 94.8792 1095.36 105.215 1097.4 115.658C1097.41 115.821 1097.43 115.985 1097.44 116.149L1097.49 116.138C1098.12 119.247 1102.38 118.116 1102.12 115.115C1101.29 106.137 1104.72 100.201 1108.6 93.4955C1109.56 91.8347 1110.55 90.1268 1111.51 88.3137C1111.89 87.6166 1112.03 86.6311 1111.55 85.91C1110.47 84.2861 1109.31 82.8306 1108.18 81.405C1105.61 78.1669 1103.16 75.0823 1101.96 70.526C1101.33 68.0907 1098.18 68.4504 1097.43 70.2612C1097.12 70.5598 1096.88 70.9656 1096.76 71.4875L1096.83 71.4635ZM1102.15 93.65C1100.64 96.3124 1099.49 99.0514 1098.69 101.863C1096.78 96.458 1094.06 91.5662 1089.71 87.5959C1094.1 85.4482 1097.4 82.0923 1099.52 77.7313C1100.34 79.5042 1101.33 81.1959 1102.55 82.8091C1105.95 87.297 1105.38 88.241 1103.31 91.6811C1102.96 92.2578 1102.57 92.9046 1102.15 93.65ZM1092.71 30.2153C1101.11 29.5903 1105.67 23.9175 1104.77 15.6487V15.7208C1104.68 14.8819 1104.96 14.236 1105.43 13.8026C1105.42 13.3499 1105.42 12.8916 1105.43 12.4277C1105.5 9.32683 1110.23 9.18261 1110.16 12.2834C1110.02 18.7735 1112.57 24.0137 1117.82 27.5712C1119.14 28.4606 1119.43 30.0951 1118.36 31.3451C1111.96 38.7967 1108.55 47.5944 1108.2 57.5218L1108.2 57.5448L1108.2 57.5699L1108.2 57.5699C1108.03 60.5837 1103.63 60.6776 1103.47 57.6419L1103.47 57.642L1103.47 57.6155L1103.47 57.5939C1103.12 48.5078 1102.29 37.9073 1092.15 34.8305C1089.88 34.1334 1090.42 30.3836 1092.71 30.2153ZM1106.13 43.1254C1107.77 38.4885 1110.15 34.1517 1113.28 30.0934C1111.28 28.4169 1109.64 26.5272 1108.39 24.4288C1106.83 28.4676 1103.86 31.6411 1099.86 33.4452C1102.97 35.9028 1104.91 39.3037 1106.13 43.1254ZM1015.9 155.483L1015.89 155.523C1014.18 159.625 1012.51 163.649 1010.97 167.728C1009.46 171.72 1008.07 175.757 1006.64 179.921L1006.64 179.928L1006.64 179.933C1005.96 181.916 1005.27 183.927 1004.55 185.977C1004.78 186.171 1005.03 186.387 1005.29 186.614C1005.89 187.125 1006.55 187.695 1007.24 188.218C1008.66 189.267 1010.1 190.298 1011.53 191.329L1011.53 191.33C1014.59 193.532 1017.65 195.729 1020.57 198.086C1023.19 200.184 1025.55 202.59 1027.91 204.992L1027.91 204.993C1028.1 205.186 1028.29 205.378 1028.47 205.57C1028.58 205.676 1028.68 205.782 1028.79 205.888L1029.05 206.15C1030.79 207.929 1030.15 209.805 1027.67 210.463C1026.6 210.755 1025.42 210.828 1024.29 210.804C1019.49 210.755 1014.68 210.694 1009.88 210.633C1005.07 210.572 1000.26 210.512 995.458 210.463C995.25 210.463 995.051 210.526 994.85 210.59C994.744 210.623 994.637 210.657 994.527 210.682C994.473 210.736 994.413 210.79 994.352 210.845C994.165 211.012 993.97 211.187 993.915 211.389C993.5 212.879 993.083 214.368 992.665 215.856L992.663 215.862L992.662 215.866C991.154 221.239 989.647 226.61 988.305 232.025C987.339 235.869 986.697 239.777 986.054 243.689L986.053 243.692L986.053 243.696L985.928 244.451C985.657 246.124 985.461 247.812 985.265 249.498L985.264 249.503C985.107 250.86 984.949 252.217 984.753 253.563C984.508 255.22 983.43 256.097 982.033 256C981.473 255.534 980.917 255.074 980.366 254.621C980.119 254.417 979.873 254.215 979.628 254.014C979.24 253.696 978.854 253.38 978.47 253.065L978.382 252.993L978.361 252.976C976.225 251.226 974.148 249.525 972.111 247.765C963.708 240.528 954.62 234.218 945.163 228.444C943.35 227.347 941.537 226.251 939.651 225.301C938.843 224.887 937.691 224.521 936.883 224.765C935.217 225.276 934.041 224.594 932.84 223.741C931.64 222.889 930.44 222.182 928.872 222.06C926.25 221.865 924.266 220.769 923.678 217.821C923.482 216.871 922.478 215.945 921.62 215.238C915.275 210.122 908.464 205.712 901.36 201.667C898.806 200.219 896.224 198.818 893.643 197.418C887.066 193.85 880.493 190.285 874.387 185.928C873.649 185.392 872.814 184.986 871.973 184.577L871.972 184.577C871.781 184.484 871.589 184.39 871.398 184.295C866.891 182.005 862.456 179.642 858.071 177.132C854.797 175.248 851.303 173.749 847.815 172.252C846.657 171.755 845.5 171.259 844.352 170.749C842.835 170.071 841.322 169.384 839.809 168.697L839.808 168.697C834.361 166.223 828.915 163.75 823.259 161.71C819.584 160.394 815.909 159.078 812.014 158.542C810.354 158.327 808.706 157.966 807.063 157.606L807.062 157.605L807.062 157.605L807.061 157.605L807.06 157.605L807.06 157.605C806.474 157.477 805.888 157.348 805.302 157.227C805.28 157.222 805.258 157.218 805.235 157.214L805.2 157.208C805.161 157.201 805.121 157.195 805.081 157.188L804.996 157.175L804.893 157.159C804.321 157.071 803.69 156.973 803.513 156.642C802.521 154.926 801.188 155.23 799.813 155.544C799.626 155.586 799.438 155.629 799.25 155.667C799.064 155.698 798.867 155.641 798.667 155.582C798.552 155.548 798.436 155.514 798.32 155.497C797.805 152.232 797.952 151.257 800.279 150.453C802.823 149.555 805.243 148.39 807.663 147.225C810.954 145.641 814.245 144.057 817.845 143.144C822.769 141.901 827.228 139.538 831.49 136.736C839.967 131.157 849.154 127.015 858.684 123.555C859.615 123.214 860.546 122.946 861.501 122.751C879.066 119.048 896.852 117.05 914.908 118.438C926.961 119.364 938.989 120.509 950.822 122.995C961.847 125.309 972.871 127.746 983.234 132.229L983.688 132.425L983.689 132.426C993.999 136.892 1004.34 141.37 1013.34 148.285C1014.21 148.957 1015.12 149.009 1016.1 149.066C1016.82 149.109 1017.59 149.154 1018.41 149.454H1018.39C1017.56 151.493 1016.73 153.497 1015.9 155.483ZM837.591 136.907L837.634 136.904L837.542 136.955L837.591 136.907ZM837.634 136.904C838.351 136.857 838.969 136.809 839.521 136.767C840.664 136.68 841.522 136.614 842.392 136.614C842.547 136.614 842.707 136.611 842.869 136.606L843.017 136.601L843.118 136.597C844.065 136.565 845.064 136.531 845.724 136.955C847.465 138.067 849.263 137.959 851.084 137.851C851.338 137.835 851.593 137.82 851.849 137.808C852.286 137.787 852.723 137.764 853.161 137.739L853.517 137.718L854.156 137.681C856.482 137.544 858.815 137.406 861.134 137.516C876.959 138.222 892.736 139.465 908.342 142.316C912.017 142.998 915.765 143.68 919.489 143.753C924.756 143.851 929.925 144.216 934.776 145.995C935.133 145.834 935.473 145.679 935.804 145.528L935.821 145.52C936.157 145.367 936.484 145.217 936.813 145.07C937.024 144.975 937.236 144.881 937.451 144.787L937.642 144.703C937.733 144.743 937.823 144.781 937.913 144.819C937.985 144.849 938.056 144.879 938.128 144.909L938.142 144.915L938.145 144.916L938.147 144.917C938.587 145.1 939.016 145.278 939.406 145.507C941.068 146.446 942.739 147.373 944.411 148.3C948.728 150.695 953.048 153.092 957.216 155.692C964.541 160.248 971.695 165.096 978.824 169.945C980.588 171.139 982.033 171.236 983.699 169.969C984.489 169.371 985.307 168.787 986.122 168.206L986.129 168.201L986.138 168.194L986.149 168.186C986.386 168.017 986.624 167.848 986.859 167.679L999.207 158.908C999.882 158.431 1000.55 157.938 1001.21 157.445L1001.21 157.444L1001.22 157.441L1001.22 157.44L1001.22 157.438L1001.22 157.437C1002.39 156.573 1003.55 155.711 1004.77 154.936C1006.09 154.113 1007.46 153.361 1008.89 152.582L1008.89 152.578L1008.91 152.567C1009.67 152.152 1010.45 151.728 1011.24 151.282C1009.97 149.42 1008.23 148.546 1006.56 147.707L1006.31 147.581C1006.23 147.54 1006.15 147.498 1006.07 147.456C1005.38 147.108 1004.7 146.757 1004.01 146.406C1000.49 144.6 996.958 142.794 993.327 141.244L992.805 141.019C983.864 137.17 974.89 133.306 965.35 131.084C962.264 130.365 959.171 129.628 956.079 128.891C952.985 128.154 949.892 127.417 946.804 126.698C946.021 126.518 945.221 126.42 944.431 126.324C944.258 126.302 944.086 126.281 943.914 126.259C932.595 124.846 921.253 123.628 909.861 122.848C903.81 122.434 897.783 122.58 891.781 123.043C886.625 123.447 881.493 124.105 876.368 124.763C874.066 125.059 871.764 125.354 869.463 125.626C863.755 126.284 858.243 127.526 852.951 129.89C851.574 130.502 850.186 131.085 848.778 131.677L848.777 131.677C845.228 133.168 841.554 134.711 837.634 136.904ZM977.966 174.671L977.917 174.639V174.623L977.966 174.671ZM974.498 172.322L975.514 173.012L976.154 173.446C976.742 173.845 977.33 174.243 977.917 174.639V175.622C977.844 177.376 978.75 178.18 980.098 177.522C980.955 177.084 981.788 176.548 982.548 175.938C984.606 174.33 986.688 172.795 989.162 171.821C990.069 171.48 990.877 170.871 991.637 170.262C994.193 168.184 996.733 166.071 999.27 163.96C1000.99 162.532 1002.7 161.104 1004.42 159.687C1004.61 159.535 1004.8 159.38 1004.98 159.224L1004.98 159.223C1005.93 158.438 1006.89 157.642 1007.93 157.032C1008.83 156.515 1009.79 156.119 1010.88 155.676L1010.88 155.674L1010.88 155.674L1010.88 155.673C1011.49 155.428 1012.12 155.167 1012.8 154.863C1012.8 154.922 1012.79 154.98 1012.78 155.037C1012.78 155.072 1012.77 155.106 1012.77 155.14C1012.76 155.193 1012.76 155.246 1012.75 155.298L1012.74 155.392L1012.73 155.475C1012.73 155.535 1012.72 155.594 1012.72 155.652L1012.7 155.82C1012.65 156.421 1012.61 156.923 1012.41 157.348C1008.81 165.166 1005.19 172.96 1001.56 180.753L1001.56 180.763C1001.09 181.786 1000.6 182.712 999.574 183.443C999.127 183.772 998.903 184.403 998.662 185.086C998.546 185.412 998.426 185.751 998.276 186.074C1000.95 189.095 1004.08 191.385 1007.29 193.554C1012.29 196.941 1017.24 200.352 1021.45 204.713C1021.71 204.968 1021.92 205.25 1022.13 205.519L1022.13 205.523C1022.2 205.612 1022.27 205.7 1022.33 205.785C1022.07 206.784 1021.39 206.742 1020.74 206.702C1020.62 206.694 1020.49 206.686 1020.37 206.686C1016.34 206.614 1012.3 206.529 1008.26 206.445L1008.26 206.445L1008.22 206.444C1004.12 206.358 1000.02 206.273 995.924 206.199C995.126 206.186 994.328 206.202 993.48 206.219C992.793 206.233 992.073 206.248 991.294 206.248C989.184 211.292 987.76 216.466 986.345 221.608L986.33 221.663C986.123 222.413 985.916 223.163 985.708 223.912C984.623 227.868 983.714 231.88 982.761 236.093L982.759 236.099L982.758 236.102L982.758 236.104L982.751 236.133C982.287 238.186 981.811 240.287 981.298 242.453C981.02 241.909 980.768 241.458 980.545 241.06L980.543 241.056L980.542 241.055C980.198 240.44 979.923 239.949 979.73 239.432C976.742 231.538 973.777 223.644 970.862 215.725C970.596 215.007 970.437 214.244 970.278 213.479C970.173 212.974 970.068 212.468 969.931 211.973C969.27 209.61 967.53 208.514 965.105 209.001C964.688 209.079 964.299 209.26 963.908 209.441C963.564 209.602 963.218 209.762 962.851 209.854L960.87 210.362L960.836 210.371L960.791 210.383C952.466 212.521 944.158 214.654 935.829 216.724C935.705 216.755 935.58 216.788 935.455 216.82L935.295 216.862C933.79 217.258 932.205 217.675 930.366 216.651C930.564 216.394 930.739 216.137 930.905 215.89L930.906 215.889L930.908 215.887C931.214 215.434 931.496 215.017 931.86 214.702C932.792 213.922 933.72 213.136 934.648 212.35C937.573 209.873 940.496 207.396 943.546 205.103C944.771 204.185 945.917 203.174 947.067 202.162L947.068 202.161L947.068 202.161L947.069 202.16L947.07 202.16L947.071 202.159C948.819 200.62 950.572 199.076 952.611 197.842C954.051 196.959 955.159 195.53 956.311 194.045L956.312 194.043C956.845 193.356 957.387 192.657 957.976 191.995C957.956 191.91 957.936 191.826 957.913 191.741C957.881 191.617 957.846 191.491 957.81 191.366L957.781 191.269L957.749 191.16C957.725 191.077 957.7 190.994 957.675 190.911C957.422 190.074 957.165 189.219 957.216 188.389C957.265 187.564 957.572 186.762 957.91 185.881C958.081 185.434 958.26 184.966 958.417 184.466C953.076 174.062 947.711 163.586 942.101 152.622C945.665 153.904 948.613 155.799 951.492 157.648C952.551 158.329 953.601 159.003 954.668 159.639C958.588 161.953 962.459 164.365 966.281 166.826C969.047 168.62 971.776 170.474 974.495 172.32L974.498 172.322ZM953.199 193.432C953.421 193.074 953.671 192.749 953.896 192.456C954.315 191.91 954.65 191.475 954.57 191.142C954.463 190.658 954.358 190.173 954.253 189.687L954.252 189.685C953.636 186.844 953.016 183.982 951.949 181.299C950.56 177.803 948.809 174.469 947.054 171.127C946.766 170.579 946.478 170.031 946.192 169.482C944.665 166.542 943.102 163.614 941.538 160.687L941.525 160.662C939.957 157.726 938.389 154.79 936.858 151.842C936.001 150.161 934.678 149.601 932.963 149.332C931.093 149.057 929.223 148.789 927.354 148.522L927.352 148.521L927.351 148.521L927.349 148.521L927.348 148.521L927.346 148.521C922.605 147.842 917.868 147.164 913.144 146.36C895.75 143.412 878.184 142.023 860.57 141.17C853.049 140.805 845.601 141.901 838.179 143.022C836.408 143.29 834.63 143.468 832.852 143.646C831.555 143.776 830.259 143.905 828.967 144.07C828.426 144.14 827.882 144.204 827.338 144.267C825.445 144.488 823.548 144.709 821.74 145.239C819.257 145.958 816.844 146.9 814.427 147.843C813.648 148.147 812.87 148.451 812.088 148.748C811.994 148.784 811.899 148.82 811.804 148.856C810.563 149.328 809.267 149.821 808.584 151.428C810.469 152.46 812.409 152.236 814.324 152.014L814.326 152.014L814.339 152.013L814.611 151.981C814.701 151.971 814.791 151.961 814.881 151.951C814.996 151.939 815.11 151.926 815.224 151.915C822.891 151.16 830.535 151.209 838.13 152.744C839.256 152.963 840.383 153.158 841.51 153.328C843.33 153.596 845.162 153.815 846.995 154.034L846.996 154.034L846.996 154.034L846.997 154.035C850.841 154.494 854.69 154.955 858.439 155.862C861.262 156.548 864.109 157.155 866.957 157.762L866.961 157.763C874.638 159.4 882.322 161.038 889.576 164.219C890.164 164.487 890.801 164.706 891.438 164.804C898.151 165.852 904.177 168.702 910.081 171.894C912.801 173.356 915.545 174.72 918.558 175.646C921.032 176.401 923.482 177.449 925.711 178.74C928.137 180.129 930.611 181.25 933.159 182.322C935.829 183.443 938.549 184.71 940.851 186.439C943.357 188.304 946.076 189.711 948.963 191.204L948.969 191.207L948.97 191.208C950.343 191.918 951.755 192.648 953.199 193.456V193.432ZM947.123 195.907L947.123 195.906C947.019 195.66 946.939 195.471 946.804 195.381C946.013 194.854 945.228 194.313 944.442 193.771L944.439 193.769L944.429 193.762L944.427 193.76C942.277 192.278 940.124 190.794 937.814 189.582C933.775 187.454 929.651 185.471 925.528 183.488C923.799 182.656 922.069 181.824 920.346 180.982C919.464 180.568 918.558 180.178 917.602 179.959C914.516 179.276 911.821 177.79 909.126 176.231C903.589 173.039 897.881 170.383 891.536 169.263C890.581 169.092 889.65 168.775 888.743 168.41C884.235 166.485 879.605 164.974 874.804 163.951C872.563 163.474 870.34 162.914 868.119 162.354L868.117 162.353L868.115 162.353C865.118 161.597 862.125 160.842 859.1 160.296C849.791 158.64 840.457 157.202 831.098 155.887C830.383 155.785 829.666 155.677 828.949 155.569C824.685 154.928 820.398 154.283 816.056 154.888C815.99 154.896 815.921 154.901 815.851 154.904C815.808 154.906 815.765 154.907 815.722 154.908C815.228 154.923 814.718 154.938 814.758 155.789C824.484 158.518 834.136 161.49 843.054 166.388C843.47 166.631 843.936 166.802 844.401 166.948C850.812 169.103 856.702 172.304 862.593 175.505C866.427 177.589 870.261 179.673 874.24 181.469C874.937 181.782 875.577 182.23 876.214 182.675C876.368 182.782 876.522 182.89 876.676 182.995C876.724 183.028 876.772 183.06 876.82 183.093C876.923 183.162 877.027 183.23 877.131 183.296C878.263 184.013 879.375 184.774 880.486 185.535L880.49 185.538C882.891 187.18 885.291 188.823 887.886 190.021C893.212 192.489 898.234 195.452 903.261 198.417C905.379 199.667 907.498 200.917 909.64 202.13C913.487 204.299 917.137 206.711 920.591 209.464C920.924 209.73 921.253 210.007 921.585 210.288C922.987 211.472 924.449 212.707 926.569 213.338C931.908 209.435 937.133 205.242 942.377 201.034L942.382 201.03C943.585 200.065 944.789 199.098 945.996 198.134C946.411 197.808 946.728 197.348 947.025 196.917C947.082 196.835 947.138 196.754 947.194 196.675C947.26 196.581 947.326 196.49 947.392 196.405L947.368 196.429C947.265 196.243 947.191 196.068 947.126 195.914L947.123 195.907ZM938.475 221.207C938.604 221.311 938.722 221.42 938.836 221.526C939.07 221.743 939.29 221.946 939.553 222.06C949.303 226.348 957.951 232.415 966.428 238.75C968.385 240.221 970.275 241.789 972.163 243.356L972.164 243.357L972.174 243.365C973.284 244.286 974.394 245.207 975.517 246.108C975.899 246.409 976.354 246.617 977.016 246.921C977.372 247.084 977.788 247.274 978.285 247.521L977.919 246.558C975.718 240.767 973.769 235.639 971.842 230.466C971.172 228.68 970.546 226.874 969.92 225.07L969.916 225.056C968.597 221.253 967.28 217.457 965.57 213.874C960.646 214.629 941.684 219.77 938.5 221.207H938.475ZM806.992 155.082L807.874 154.936C807.816 154.879 807.761 154.807 807.706 154.736C807.6 154.598 807.497 154.465 807.384 154.449C807.212 154.449 807.041 154.552 806.869 154.655C806.846 154.67 806.822 154.684 806.799 154.698C806.773 154.713 806.748 154.727 806.723 154.741C806.739 154.761 806.754 154.78 806.77 154.799C806.785 154.817 806.8 154.834 806.814 154.851C806.88 154.927 806.942 154.999 806.992 155.082ZM1041.81 537.335C1033.92 537.837 1027.49 545.648 1025.11 552.703C1024.34 554.993 1027.86 556.307 1028.63 554.017C1030.67 547.897 1035.76 541.503 1042.33 541.256C1043.11 545.695 1044.49 549.998 1046.28 553.829C1048.67 558.991 1053.2 562.633 1058.98 560.268C1062.74 558.729 1065.71 555.725 1064.1 551.746C1061.62 545.693 1051.99 539.222 1045.7 537.686C1045.23 532.843 1045.42 528.146 1046.28 525.016C1048.5 516.988 1054.44 511.258 1061.78 508.966C1064.05 516.836 1069.91 523.877 1077.83 526.142C1083.12 527.663 1091.25 526.349 1091.02 519.385C1090.81 513.115 1082.52 506.677 1077.04 505.025C1072.96 503.799 1068.72 503.569 1064.66 504.229C1064.49 503.016 1064.43 501.858 1064.49 500.801C1065.11 490.046 1074.26 482.012 1084.62 480.754C1087.03 480.454 1086.86 476.7 1084.47 477C1072.71 478.483 1062.33 486.93 1060.9 499.168C1060.67 501.114 1060.7 503.107 1060.96 505.089C1055.4 506.79 1050.39 510.221 1046.94 515.086C1042.45 521.407 1041.1 529.431 1041.81 537.335ZM1065.52 508.117C1067.57 514.866 1072.47 521.882 1079.05 522.613C1094.39 524.321 1083.61 513.247 1080.71 511.238C1078.17 509.474 1076.57 508.723 1073.13 508.178C1070.54 507.769 1067.98 507.76 1065.52 508.117ZM1046.25 541.83C1047.1 546.754 1048.61 551.406 1050.76 554.261C1053.67 558.147 1061.91 557.903 1060.01 552.29C1058.68 548.329 1049.69 543.017 1046.43 541.891C1046.37 541.87 1046.31 541.85 1046.25 541.83ZM21.599 251.886C15.4707 248.457 10.7439 242.847 7.46423 236.554C6.07534 233.898 3.27905 228.339 3.77905 225.171C5.1309 216.539 15.4272 227.562 17.242 229.762C17.4817 230.055 17.7534 230.243 18.0353 230.344C18.7922 231.139 20.1097 231.337 20.7974 230.104C22.39 227.296 28.1492 222.193 31.8344 223.634C34.2418 224.583 34.0752 228.055 33.9085 230.218C33.2619 238.775 27.5195 246.184 21.599 251.886ZM21.9833 256.006C21.6607 256.038 21.3153 255.982 20.9642 255.81C11.0013 250.953 -1.46169 235.852 0.149409 223.653C1.68542 212.026 14.1688 221.154 19.0157 226.161C23.4097 220.959 33.6986 215.964 36.927 223.919C41.4826 235.169 30.4826 248.696 23.2604 255.469L23.2418 255.488C22.8512 255.854 22.4111 256.007 21.9833 256.006ZM143.121 289.889C145.644 297.448 152.461 305.817 160.834 306.356C160.078 314.824 161.505 323.421 166.268 330.193C169.934 335.406 175.237 339.082 181.143 340.905C180.864 343.028 180.833 345.163 181.074 347.248C182.591 360.361 193.605 369.411 206.077 371C208.611 371.322 208.791 367.299 206.237 366.978C195.242 365.63 185.544 357.022 184.885 345.498C184.82 344.366 184.88 343.126 185.059 341.825C189.37 342.533 193.87 342.286 198.195 340.973C204.002 339.203 212.802 332.305 213.021 325.588C213.26 318.126 204.64 316.718 199.033 318.347C190.634 320.774 184.416 328.318 182.008 336.75C174.221 334.294 167.925 328.155 165.57 319.554C164.653 316.2 164.46 311.168 164.951 305.979C171.628 304.333 181.837 297.401 184.466 290.915C186.182 286.651 183.03 283.433 179.039 281.784C172.913 279.25 168.104 283.152 165.57 288.683C163.674 292.788 162.208 297.398 161.385 302.154C154.411 301.889 149.015 295.039 146.852 288.481C146.034 286.028 142.303 287.436 143.121 289.889ZM194.044 337.594C191.298 338.033 188.584 338.042 185.978 337.66C188.15 330.429 193.347 322.912 200.33 322.128C216.593 320.298 205.159 332.164 202.086 334.316C199.392 336.207 197.696 337.011 194.044 337.594ZM165.729 301.474C165.665 301.496 165.602 301.518 165.538 301.539C166.438 296.263 168.045 291.279 170.319 288.22C173.412 284.057 182.152 284.318 180.136 290.332C178.719 294.575 169.181 300.267 165.729 301.474ZM873.658 367.445C878.122 366.892 882.6 366.643 887.134 367.016H887.148C888.917 367.169 889.801 369.478 888.089 370.46C884.2 372.66 880.621 375.205 877.252 377.971C877.58 378.875 877.91 379.779 878.241 380.684C880.075 385.705 881.92 390.755 883.442 395.993C883.892 397.542 881.968 399.243 880.509 398.206C875.778 394.831 870.697 391.996 865.573 389.229C862.274 392.853 859.13 396.629 856.042 400.46C854.961 401.802 852.729 400.364 853.206 398.842C854.666 394.223 856.322 389.672 858.035 385.149C853.024 382.355 848.111 379.382 843.633 375.758C842.145 374.555 843.534 372.646 845.008 372.466C849.82 371.875 854.608 370.91 859.395 369.945C860.991 369.624 862.587 369.302 864.183 368.994C865.39 365.73 866.556 362.452 867.622 359.146C867.412 356.878 867.37 354.582 867.552 352.259C867.693 350.543 870.009 350.599 870.219 352.259C870.275 352.77 870.36 353.282 870.444 353.794C871.16 353.904 871.806 354.485 871.553 355.371C871.463 355.689 871.364 356.004 871.267 356.317C871.182 356.588 871.098 356.857 871.019 357.127C871.707 360.654 872.62 364.07 873.658 367.445ZM869.279 368.095C868.998 367.03 868.731 365.965 868.507 364.9C868.1 366.076 867.679 367.265 867.257 368.441C867.931 368.317 868.605 368.206 869.279 368.095ZM864.876 384.508C864.38 384.24 863.881 383.975 863.382 383.71C862.881 383.444 862.379 383.178 861.881 382.909C862.664 380.772 863.463 378.646 864.261 376.521C864.766 375.179 865.27 373.837 865.77 372.494C867.286 372.203 868.802 371.94 870.318 371.691C870.921 373.572 871.581 375.454 872.283 377.321C869.702 379.588 867.233 382.006 864.876 384.508ZM859.553 373.73C856.31 374.39 853.07 375.05 849.823 375.606V375.62C852.897 377.777 856.126 379.714 859.411 381.553C859.808 380.516 860.207 379.481 860.606 378.446C861.293 376.666 861.979 374.887 862.653 373.102C861.619 373.309 860.586 373.52 859.553 373.73ZM860.59 386.56C860.056 388.095 859.537 389.631 859.032 391.18C860.07 389.921 861.123 388.676 862.204 387.445C861.81 387.22 861.408 387.003 861.01 386.788C860.869 386.712 860.729 386.636 860.59 386.56ZM868.296 386.339C871.525 388.068 874.739 389.838 877.856 391.761C876.87 388.996 875.784 386.248 874.694 383.491C874.372 382.676 874.049 381.859 873.729 381.041C871.862 382.743 870.051 384.513 868.296 386.339ZM880.916 370.613C878.866 370.668 876.845 370.834 874.809 371.069L874.81 371.071C875.175 372.149 875.54 373.228 875.918 374.306C877.547 373.019 879.203 371.788 880.916 370.613Z" fill="black"/>
</svg>
