<svg width="1085" height="561" viewBox="0 0 1085 561" fill="none" xmlns="http://www.w3.org/2000/svg">
<g clip-path="url(#clip0_1521_158)">
<path fill-rule="evenodd" clip-rule="evenodd" d="M136.764 40.8456C145.393 32.9268 155.635 27.42 165.832 21.9133C175.937 16.452 186.883 13.016 197.829 9.73923C209.592 6.18942 221.674 4.02767 233.755 2.04797C251.9 -0.910213 270.045 -0.386842 288.212 1.84317C289.211 1.95695 290.165 2.16174 291.142 2.43481C301.066 5.14268 310.74 8.57872 319.778 13.5621C324.32 16.0652 329.043 18.0904 334.13 18.9323C340.58 20.0018 346.28 23.2558 352.525 24.8942C354.932 25.5314 355.159 26.4871 354.932 29.8776C354.637 29.9686 354.296 30.1734 354.001 30.1507C352.389 29.9686 350.754 29.4225 349.777 31.4932C349.573 31.9256 348.642 32.0621 348.006 32.2442C345.78 32.9041 343.577 33.655 341.329 34.1556C337.423 35.0203 333.835 36.6587 330.224 38.3426C323.139 41.6193 316.462 45.5787 309.672 49.3561C305.176 51.8364 300.543 54.1119 296.342 57.0473C292.118 59.9828 287.826 62.7817 283.489 65.4895C282.512 66.1039 281.467 66.6728 280.604 67.4237C272.52 74.3413 263.391 79.7571 254.67 85.7645C247.812 90.4748 241.317 95.5492 235.345 101.306C234.55 102.08 233.619 103.104 233.483 104.105C233.119 107.154 231.234 108.429 228.577 108.861C227.01 109.134 225.83 109.931 224.717 110.909C223.581 111.91 222.446 112.684 220.72 112.32C219.88 112.138 218.744 112.616 217.972 113.093C216.133 114.208 214.384 115.483 212.658 116.757C203.574 123.447 194.945 130.638 187.042 138.739C184.067 141.788 180.979 144.746 177.731 147.954C176.323 148.182 175.165 147.386 174.779 145.702C174.052 142.653 173.575 139.535 172.803 136.509C171.759 132.322 170.714 128.135 169.329 124.062C166.99 117.167 164.401 110.34 161.88 103.491C161.789 103.218 161.426 103.058 161.199 102.831C160.881 102.785 160.54 102.649 160.245 102.672C150.525 103.605 140.829 104.56 131.109 105.493C129.974 105.607 128.77 105.63 127.657 105.425C125.091 104.947 124.273 103.081 125.886 101.147C128.407 98.075 130.905 94.9576 133.766 92.2269C137.808 88.3358 142.191 84.7632 146.415 81.0314C147.369 80.1894 148.232 79.2337 148.936 78.5283C146.143 72.2478 143.645 66.286 140.897 60.4834C138.058 54.4988 134.947 48.6507 131.836 42.5068C133.721 41.6193 135.424 42.1882 136.854 40.8684L136.764 40.8456ZM297.341 8.37392C291.8 6.43973 286.1 5.64329 280.287 5.4385C272.679 5.18819 265.094 4.68757 257.486 4.71033C251.378 4.73308 245.269 5.11992 239.183 6.05289C227.737 7.80504 216.382 10.0123 205.051 12.4243C204.097 12.6291 203.098 12.8112 202.166 13.107C196.035 15.1095 189.926 17.1574 183.795 19.1599C174.143 22.3001 165.241 27.1242 156.362 31.9028C152.138 34.1783 148.073 36.7724 144.008 39.321C142.259 40.436 140.329 41.46 139.103 43.6673C141.533 44.7823 143.804 45.6925 145.961 46.8303C148.005 47.8997 149.958 49.1968 151.933 50.4028C156.339 53.0424 160.745 55.6593 165.173 58.2989C166.308 58.9815 167.467 59.6642 168.579 60.3696C170.351 61.5074 171.804 61.3026 173.507 59.9373C180.32 54.385 187.133 48.8327 194.15 43.5535C199.714 39.3893 205.573 35.6119 211.296 31.6753C211.818 31.3112 212.431 31.0381 212.999 30.6968C213.998 31.0609 214.929 31.3795 216.019 31.7663C220.765 29.5363 225.966 28.7398 231.303 28.171C235.072 27.7841 238.774 26.7601 242.453 25.7589C257.986 21.5037 273.837 18.8868 289.802 16.8389C292.913 16.4293 296.092 16.452 299.226 16.361C301.361 16.2927 303.45 16.4293 305.358 14.9729C306.175 14.3585 307.56 14.4268 308.719 14.3358C310.013 14.222 311.33 14.2675 313.601 14.222C307.765 11.5369 302.519 10.1261 297.409 8.35116L297.341 8.37392ZM174.87 65.7398C175.097 67.5148 174.257 68.4022 172.826 67.8561C171.918 67.492 171.032 67.0141 170.214 66.468C167.989 64.9889 165.763 63.6236 163.175 62.8272C162.243 62.5314 161.358 61.9852 160.54 61.4391C155.908 58.2306 151.32 54.9539 146.71 51.7454C145.484 50.8807 144.28 49.9705 142.941 49.3561C141.464 48.6507 139.829 48.2411 137.831 47.5584C138.081 48.6052 138.103 49.4244 138.444 50.0387C142.736 57.7073 147.096 65.3303 151.434 72.976C152.002 73.9772 152.569 74.8647 153.659 75.5246C154.363 75.9569 154.659 77.1175 155.204 78.0959C152.774 81.4182 149.776 83.9895 146.733 86.4926C141.964 90.361 137.241 94.2522 133.357 99.0535C133.062 99.4403 132.812 99.8499 132.562 100.237C132.971 101.42 133.88 101.079 134.629 100.988C142.872 100.146 151.093 99.2583 159.337 98.4164C160.813 98.2798 162.289 98.1888 164.038 98.0523C166.99 103.741 169.034 109.703 171.191 115.574C173.348 121.445 175.12 127.475 177.254 134.097C177.867 132.64 178.344 131.798 178.594 130.888C180.933 122.582 183.272 114.3 185.543 105.994C185.884 104.72 185.907 103.377 186.156 102.08C186.633 99.5996 188.314 98.3481 190.789 98.6439C191.584 98.7349 192.333 99.19 193.151 99.3266C202.462 100.919 211.75 102.512 221.061 104.037C222.764 104.31 224.603 104.833 226.579 103.491C225.943 102.763 225.512 102.057 224.898 101.625C220.72 98.6439 216.61 95.572 212.272 92.8413C208.957 90.7251 206.072 87.9945 202.484 86.1968C200.236 85.0818 198.624 82.6925 196.557 80.7128C196.716 79.484 197.17 78.187 197.011 76.9809C196.852 75.7294 196.08 74.5461 195.467 73.0898C199.964 62.0535 204.483 50.9034 209.229 39.2528C204.46 41.46 200.94 44.714 197.125 47.4674C193.355 50.1753 189.654 52.9514 185.997 55.7958C182.228 58.754 178.549 61.8032 174.847 64.8069C174.893 65.1937 174.915 65.5123 174.961 65.8309L174.87 65.7398ZM213.294 73.5221C215.474 71.5652 218.108 70.0406 220.72 68.6753C223.195 67.3555 225.625 65.9902 227.964 64.3745C230.122 62.8727 232.506 61.5984 234.936 60.6199C237.888 59.4139 240.545 57.7983 243.179 56.0689C248.88 52.3143 254.716 48.9237 261.438 47.2626C262.074 47.1033 262.687 46.8303 263.255 46.5117C272.951 41.2325 283.693 38.8204 294.026 35.3389C299.499 33.4957 305.289 32.631 310.921 31.3339C312.057 31.0609 313.17 30.7878 314.282 30.4692C321.822 28.262 329.543 27.5566 337.378 27.6704C339.626 27.7159 341.965 28.0117 344.054 26.6009C343.169 24.8942 341.67 24.5756 340.285 24.166C336.946 23.1876 333.631 22.0953 330.224 21.4127C327.817 20.9348 325.296 20.9576 322.821 20.8438C319.687 20.7073 316.531 20.7755 313.419 20.5707C305.812 20.0474 298.181 19.5695 290.597 20.5707C272.861 22.9373 255.238 25.8727 237.888 30.3555C231.325 32.0621 224.694 33.5184 218.086 35.0658C216.382 35.4526 215.088 36.1581 214.361 37.933C211.772 44.2134 209.025 50.4256 206.436 56.706C204.733 60.8475 202.916 64.9662 201.621 69.2442C200.622 72.5437 200.259 76.048 199.805 79.5068C199.737 80.0529 200.645 80.7355 201.394 81.7368C205.709 78.8013 209.774 76.6624 213.271 73.5449L213.294 73.5221ZM209.138 85.9237C216.11 90.6341 223.036 95.4582 230.076 99.7817C232.665 98.7577 234.141 96.8918 235.776 95.3216C239.046 92.2269 242.521 89.4736 246.223 86.925C253.194 82.1464 259.825 76.9354 267.206 72.7257C270.908 70.6095 274.087 67.583 277.516 64.9662C278.447 64.2608 279.287 63.4188 280.287 62.8727C290.097 57.3659 298.84 50.0615 309.218 45.5104C309.672 45.3284 310.127 45.1009 310.535 44.8278C319.142 39.0707 328.635 35.2251 338.241 31.607C338.195 30.5148 337.423 30.8106 336.855 30.7878C331.655 30.492 326.704 31.9483 321.708 33.0861C312.352 35.2251 303.041 37.4779 293.776 39.9582C288.507 41.369 283.42 43.4397 278.197 45.0098C273.428 46.4662 268.864 48.4004 264.481 50.7214C263.618 51.1765 262.687 51.5861 261.733 51.8364C255.397 53.5203 249.856 56.7288 244.519 60.4379C241.93 62.2355 239.342 63.9877 236.276 64.9662C235.345 65.262 234.436 65.7398 233.596 66.2405C227.942 69.631 222.219 72.9078 216.655 76.4803C213.612 78.4373 210.91 80.8948 208.071 83.1476C207.844 83.3296 207.798 83.7392 207.571 84.2626C208.048 84.7632 208.502 85.4686 209.138 85.901V85.9237ZM190.698 103.627C188.586 109.248 187.405 115.21 185.77 121.058C184.181 126.769 182.546 132.481 180.706 138.989C182.091 138.147 182.841 137.851 183.386 137.328C186.27 134.597 188.995 131.707 191.947 129.068C199.964 121.877 208.184 114.959 217.7 109.748C218.063 109.544 218.335 109.157 218.699 108.793C215.383 107.609 195.74 103.991 190.698 103.627ZM346.28 29.8093C346.053 29.7183 345.803 29.5363 345.576 29.5818C345.394 29.6273 345.281 29.9231 345.122 30.1052C345.417 30.1052 345.712 30.1507 346.03 30.1734C346.121 30.0369 346.189 29.9231 346.28 29.8093Z" fill="black"/>
</g>
<g clip-path="url(#clip1_1521_158)">
<path d="M1037.77 466.461C1036.96 478.696 1030.7 487.686 1020.11 492.758C1018.43 493.551 1018.76 496.171 1020.23 496.94C1031.86 503.046 1033.8 520.401 1035.24 531.963C1035.59 534.727 1039.83 534.102 1039.9 531.434C1040.18 520.209 1042.28 505.642 1052.26 498.791C1053.61 497.878 1053.16 495.811 1052.07 494.969C1042.8 487.854 1042.31 476.412 1042.19 465.644C1042.17 462.543 1037.44 462.687 1037.46 465.788C1037.58 478.6 1038.74 490.763 1049.4 498.959C1049.33 497.686 1049.28 496.412 1049.21 495.138C1038.08 502.661 1035.5 518.766 1035.17 531.362C1036.73 531.194 1038.26 531.025 1039.83 530.833C1038.12 517.18 1035.59 499.753 1022.45 492.71C1022.5 494.104 1022.52 495.498 1022.57 496.892C1034.44 491.268 1041.62 480.523 1042.43 467.23C1042.61 464.177 1037.96 463.384 1037.74 466.485L1037.77 466.461Z" fill="#1B1A16"/>
<path d="M1062.83 514.464C1061.24 521.242 1056.73 525.737 1050.23 527.564C1048.64 528.021 1047.96 530.665 1049.45 531.65C1058.88 537.972 1061.43 548.525 1063.49 559.125C1064.1 562.25 1068.38 561.12 1068.12 558.116C1067.08 546.914 1072.68 540.448 1077.51 531.314C1077.88 530.617 1078.03 529.631 1077.55 528.91C1074.01 523.598 1069.68 520.088 1067.96 513.526C1067.18 510.522 1062.57 511.771 1063.37 514.752C1064.48 518.79 1066.02 522.468 1068.55 525.809C1072.52 531.049 1071.08 531.458 1068.15 536.65C1064.2 543.645 1062.68 551.169 1063.44 559.149C1064.98 558.813 1066.51 558.476 1068.07 558.14C1065.69 546.025 1062.66 534.727 1051.95 527.684C1051.86 529.175 1051.79 530.641 1051.69 532.131C1060.04 529.727 1065.4 523.814 1067.41 515.329C1068.12 512.324 1063.46 511.483 1062.76 514.488L1062.83 514.464Z" fill="#1B1A16"/>
<path d="M1070.77 458.649C1071.67 466.918 1067.1 472.59 1058.71 473.215C1056.42 473.384 1055.88 477.134 1058.15 477.831C1068.29 480.907 1069.11 491.508 1069.47 500.594C1069.59 503.695 1074.08 503.599 1074.2 500.522C1074.55 490.595 1077.96 481.797 1084.36 474.345C1085.43 473.095 1085.14 471.461 1083.82 470.571C1078.57 467.014 1076.02 461.774 1076.16 455.284C1076.23 452.183 1071.5 452.327 1071.43 455.428C1071.22 463.721 1074.76 470.211 1081.52 474.778C1081.34 473.528 1081.17 472.254 1080.98 471.004C1073.68 479.537 1069.85 489.345 1069.47 500.642C1071.05 500.618 1072.61 500.594 1074.2 500.57C1073.77 489.513 1072.02 477.013 1059.92 473.432C1059.73 474.97 1059.54 476.509 1059.35 478.047C1069.94 477.278 1076.63 468.985 1075.47 458.24C1075.14 455.163 1070.44 455.644 1070.77 458.721V458.649Z" fill="#1B1A16"/>
</g>
<g clip-path="url(#clip2_1521_158)">
<path fill-rule="evenodd" clip-rule="evenodd" d="M1040.39 149.454C1037.84 155.716 1035.27 161.661 1032.96 167.728C1030.73 173.624 1028.77 179.617 1026.55 185.977C1027.31 186.61 1028.24 187.463 1029.24 188.218C1033.7 191.507 1038.28 194.626 1042.57 198.086C1045.61 200.522 1048.3 203.373 1051.04 206.15C1052.78 207.929 1052.15 209.805 1049.67 210.463C1048.59 210.755 1047.42 210.828 1046.29 210.804C1036.69 210.706 1027.06 210.56 1017.46 210.463C1017.14 210.463 1016.84 210.609 1016.53 210.682C1016.31 210.901 1015.99 211.121 1015.91 211.389C1014 218.259 1012.02 225.106 1010.3 232.025C1009.27 236.119 1008.61 240.285 1007.93 244.451C1007.44 247.472 1007.19 250.542 1006.75 253.563C1006.51 255.22 1005.43 256.097 1004.03 256C1000.58 253.125 997.294 250.518 994.11 247.765C985.707 240.528 976.618 234.218 967.161 228.444C965.349 227.347 963.536 226.251 961.649 225.301C960.841 224.887 959.689 224.521 958.881 224.765C957.215 225.276 956.039 224.594 954.839 223.741C953.638 222.889 952.438 222.182 950.87 222.06C948.249 221.865 946.264 220.769 945.676 217.821C945.48 216.871 944.476 215.945 943.618 215.238C937.273 210.122 930.463 205.712 923.358 201.667C914.294 196.526 904.886 191.995 896.385 185.928C895.479 185.27 894.426 184.807 893.397 184.295C888.889 182.005 884.455 179.642 880.07 177.132C875.709 174.623 870.956 172.795 866.35 170.749C859.368 167.63 852.484 164.317 845.257 161.71C841.583 160.394 837.908 159.078 834.012 158.542C831.759 158.25 829.529 157.69 827.3 157.227C826.663 157.105 825.732 157.056 825.512 156.642C824.385 154.693 822.817 155.351 821.249 155.667C820.955 155.716 820.636 155.545 820.318 155.497C819.803 152.232 819.95 151.257 822.278 150.453C828.28 148.334 833.596 144.728 839.843 143.144C844.767 141.901 849.226 139.538 853.489 136.736C861.965 131.157 871.152 127.015 880.682 123.555C881.613 123.214 882.544 122.946 883.499 122.751C901.065 119.048 918.851 117.05 936.906 118.438C948.959 119.364 960.988 120.509 972.821 122.995C983.845 125.309 994.869 127.746 1005.23 132.229C1015.69 136.76 1026.2 141.268 1035.34 148.285C1036.86 149.454 1038.48 148.748 1040.41 149.454H1040.39ZM859.589 136.907C861.818 136.76 863.092 136.614 864.391 136.614C865.517 136.614 866.889 136.419 867.722 136.955C869.707 138.222 871.765 137.906 873.847 137.808C876.934 137.662 880.045 137.37 883.132 137.516C898.958 138.222 914.735 139.465 930.34 142.316C934.015 142.998 937.763 143.68 941.487 143.753C946.754 143.851 951.923 144.216 956.774 145.995C957.803 145.532 958.685 145.117 959.64 144.703C960.253 144.971 960.865 145.191 961.404 145.507C967.357 148.87 973.433 152.086 979.215 155.692C986.54 160.248 993.693 165.096 1000.82 169.945C1002.59 171.139 1004.03 171.236 1005.7 169.969C1006.73 169.19 1007.8 168.434 1008.86 167.679C1012.97 164.755 1017.09 161.831 1021.2 158.908C1023.07 157.592 1024.86 156.155 1026.77 154.936C1028.8 153.669 1030.96 152.573 1033.23 151.282C1031.84 149.235 1029.88 148.382 1028.06 147.456C1023.85 145.312 1019.66 143.095 1015.33 141.244C1006.21 137.321 997.074 133.349 987.348 131.084C981.174 129.646 974.976 128.135 968.803 126.698C967.847 126.479 966.867 126.381 965.912 126.259C954.594 124.846 943.251 123.628 931.859 122.848C925.808 122.434 919.781 122.58 913.779 123.043C906.307 123.628 898.884 124.749 891.461 125.626C885.753 126.284 880.241 127.526 874.949 129.89C870.074 132.058 865.052 133.861 859.54 136.955L859.589 136.907ZM999.965 174.672C996.094 172.065 992.223 169.384 988.279 166.826C984.457 164.365 980.587 161.953 976.667 159.639C972.698 157.275 968.974 154.376 964.099 152.622C969.709 163.586 975.074 174.062 980.415 184.466C979.95 185.952 979.288 187.146 979.215 188.389C979.141 189.583 979.705 190.825 979.974 191.995C978.112 194.09 976.716 196.551 974.609 197.842C971.228 199.889 968.631 202.788 965.544 205.103C961.527 208.124 957.73 211.462 953.859 214.702C953.295 215.19 952.928 215.92 952.364 216.651C954.422 217.797 956.162 217.139 957.827 216.724C966.843 214.483 975.834 212.168 984.849 209.854C985.633 209.659 986.319 209.147 987.103 209.001C989.528 208.514 991.268 209.61 991.929 211.973C992.272 213.216 992.419 214.532 992.86 215.726C995.776 223.644 998.74 231.538 1001.73 239.432C1002.05 240.285 1002.59 241.065 1003.3 242.453C1004.86 235.826 1006.09 229.808 1007.71 223.912C1009.35 218.016 1010.87 212.047 1013.29 206.248C1015.03 206.248 1016.48 206.175 1017.92 206.199C1026.08 206.345 1034.24 206.54 1042.37 206.686C1043.11 206.686 1044.01 206.979 1044.33 205.785C1044.06 205.444 1043.79 205.054 1043.45 204.713C1039.24 200.352 1034.29 196.941 1029.29 193.554C1026.08 191.385 1022.94 189.095 1020.27 186.074C1020.74 185.075 1020.91 183.93 1021.57 183.443C1022.6 182.712 1023.09 181.786 1023.56 180.763C1027.18 172.966 1030.81 165.169 1034.41 157.348C1034.7 156.715 1034.65 155.911 1034.8 154.863C1032.89 155.716 1031.32 156.228 1029.93 157.032C1028.68 157.763 1027.55 158.762 1026.42 159.687C1022.16 163.196 1017.92 166.777 1013.63 170.262C1012.88 170.871 1012.07 171.48 1011.16 171.821C1008.69 172.795 1006.6 174.33 1004.55 175.938C1003.79 176.548 1002.95 177.084 1002.1 177.522C1000.75 178.18 999.842 177.376 999.916 175.622C999.916 175.305 999.916 174.988 999.916 174.623L999.965 174.672ZM975.197 193.432C975.834 192.409 976.691 191.653 976.569 191.142C975.834 187.828 975.197 184.442 973.947 181.299C972.331 177.23 970.224 173.38 968.19 169.482C965.128 163.586 961.919 157.738 958.856 151.842C957.999 150.161 956.676 149.601 954.961 149.333C948.347 148.358 941.732 147.481 935.142 146.36C917.748 143.412 900.183 142.023 882.568 141.17C875.047 140.805 867.6 141.901 860.177 143.022C857.115 143.485 854.028 143.68 850.965 144.07C848.54 144.387 846.066 144.557 843.738 145.239C840.456 146.19 837.295 147.53 834.086 148.748C832.763 149.259 831.318 149.698 830.583 151.428C832.763 152.622 835.017 152.134 837.222 151.915C844.89 151.16 852.533 151.209 860.128 152.744C861.255 152.963 862.382 153.158 863.509 153.328C869.143 154.157 874.9 154.522 880.437 155.862C890.873 158.396 901.628 159.858 911.574 164.219C912.162 164.487 912.799 164.706 913.436 164.804C920.149 165.852 926.176 168.702 932.08 171.894C934.799 173.356 937.543 174.72 940.556 175.646C943.03 176.401 945.48 177.449 947.71 178.74C950.135 180.129 952.609 181.25 955.157 182.322C957.827 183.443 960.547 184.71 962.85 186.44C966.549 189.193 970.714 190.947 975.197 193.456V193.432ZM969.366 196.429C969.097 195.942 969.023 195.527 968.803 195.381C965.838 193.408 962.972 191.239 959.812 189.583C954.079 186.561 948.175 183.833 942.344 180.982C941.463 180.568 940.556 180.178 939.601 179.959C936.514 179.276 933.819 177.79 931.124 176.231C925.588 173.039 919.879 170.383 913.534 169.263C912.579 169.092 911.648 168.775 910.742 168.41C906.234 166.485 901.604 164.974 896.802 163.951C891.535 162.83 886.366 161.247 881.098 160.297C871.789 158.64 862.455 157.202 853.097 155.887C848.124 155.18 843.126 154.181 838.055 154.888C837.491 154.961 836.707 154.741 836.756 155.789C846.482 158.518 856.135 161.49 865.052 166.388C865.468 166.631 865.934 166.802 866.399 166.948C876.983 170.505 886.145 176.913 896.238 181.469C897.267 181.932 898.174 182.687 899.129 183.297C902.706 185.562 906.087 188.267 909.884 190.021C917.454 193.53 924.412 198.037 931.639 202.13C935.485 204.299 939.135 206.711 942.589 209.464C944.329 210.853 945.946 212.558 948.567 213.338C955.133 208.538 961.527 203.3 967.994 198.134C968.582 197.672 968.974 196.941 969.391 196.405L969.366 196.429ZM960.473 221.208C960.865 221.524 961.159 221.89 961.551 222.06C971.302 226.348 979.95 232.415 988.426 238.75C991.537 241.089 994.477 243.672 997.515 246.108C998.103 246.571 998.862 246.815 1000.28 247.521C997.931 241.333 995.874 235.924 993.84 230.466C991.758 224.911 990.092 219.161 987.569 213.874C982.644 214.629 963.683 219.77 960.498 221.208H960.473ZM828.99 155.083C829.284 155.034 829.578 154.985 829.872 154.936C829.701 154.766 829.554 154.473 829.382 154.449C829.162 154.449 828.941 154.62 828.721 154.741C828.819 154.863 828.917 154.961 828.99 155.083Z" fill="black"/>
</g>
<g clip-path="url(#clip3_1521_158)">
<path d="M142.1 391.099C144.498 383.394 151.574 374.741 159.907 376.725C165.429 378.048 174.143 384.323 176.358 390.187C177.78 393.977 175.168 396.837 171.861 398.303C166.785 400.556 162.801 397.087 160.701 392.171C155.906 381.034 154.435 365.713 161.279 355.273C167.116 346.37 177.962 342.509 187.733 345.691C192.545 347.264 199.836 353.396 200.018 359.367C200.216 365.999 193.074 367.251 188.428 365.803C178.623 362.763 172.407 350.696 173.547 340.113C174.804 328.457 183.931 320.413 194.264 319C196.364 318.714 196.513 322.29 194.396 322.576C185.286 323.773 177.251 331.425 176.705 341.668C176.309 349.016 181.484 361.476 189.502 362.442C202.977 364.068 193.503 353.521 190.957 351.608C188.725 349.928 187.32 349.213 184.294 348.694C173.663 346.871 163.594 353.396 160.701 364.73C158.948 371.613 160.387 386.451 164.636 392.582C167.198 396.283 174.44 396.051 172.77 390.705C171.596 386.933 163.693 381.874 160.833 380.801C153.343 377.995 147.342 385.36 145.192 392.35C144.514 394.531 141.423 393.28 142.1 391.099Z" fill="#1B1A16"/>
</g>
<g clip-path="url(#clip4_1521_158)">
<path d="M25.2579 252.184C17.8076 248.493 12.1175 241.93 8.24911 234.507C6.71402 231.572 3.62338 225.428 4.17601 221.926C5.67016 212.385 17.0503 224.568 19.0561 227C20.755 229.076 23.907 226.371 22.1877 224.316C18.0941 219.368 2.00642 206.304 0.164316 220.249C-1.61639 233.731 12.1585 250.422 23.1702 255.79C25.524 256.943 27.6526 253.358 25.2579 252.184Z" fill="#1B1A16"/>
<path d="M25.707 255.413C33.6895 247.927 45.8474 232.977 40.8123 220.542C36.8211 210.708 23.0667 218.781 19.5872 225.05C18.2977 227.378 21.6749 229.726 22.9848 227.378C24.7451 224.275 31.1106 218.634 35.1837 220.228C37.8445 221.276 37.6603 225.113 37.4761 227.504C36.7187 237.527 29.6369 246.124 22.6983 252.561C20.7538 254.365 23.7626 257.237 25.6866 255.434L25.707 255.413Z" fill="#1B1A16"/>
</g>
<g clip-path="url(#clip5_1521_158)">
<path d="M919.133 387.017C914.599 386.643 910.121 386.892 905.657 387.445C904.619 384.07 903.706 380.654 903.018 377.127C903.187 376.546 903.383 375.965 903.552 375.371C903.805 374.485 903.159 373.904 902.443 373.794C902.359 373.282 902.274 372.77 902.218 372.259C902.008 370.599 899.692 370.543 899.551 372.259C899.369 374.582 899.411 376.878 899.621 379.147C898.555 382.452 897.39 385.73 896.182 388.994C889.795 390.225 883.422 391.678 877.007 392.466C875.534 392.646 874.144 394.555 875.632 395.758C880.11 399.382 885.023 402.355 890.034 405.149C888.321 409.672 886.665 414.223 885.205 418.842C884.728 420.364 886.96 421.802 888.041 420.461C891.129 416.629 894.273 412.853 897.572 409.23C902.696 411.996 907.777 414.831 912.508 418.206C913.967 419.243 915.891 417.542 915.441 415.993C913.645 409.81 911.399 403.891 909.251 397.971C912.62 395.205 916.199 392.66 920.088 390.461C921.8 389.478 920.916 387.169 919.147 387.017H919.133ZM900.506 384.9C900.73 385.965 900.997 387.03 901.278 388.095C900.604 388.206 899.93 388.317 899.256 388.441C899.678 387.265 900.099 386.076 900.506 384.9ZM896.884 404.513C895.888 403.974 894.877 403.448 893.88 402.909C895.158 399.423 896.477 395.965 897.769 392.494C899.285 392.203 900.801 391.94 902.317 391.691C902.92 393.573 903.58 395.454 904.282 397.321C901.699 399.589 899.228 402.01 896.87 404.513H896.884ZM881.822 395.606C886.104 394.873 890.371 393.96 894.652 393.102C893.585 395.924 892.491 398.732 891.41 401.553C888.125 399.714 884.896 397.777 881.822 395.62V395.606ZM891.031 411.18C891.536 409.631 892.055 408.095 892.589 406.56C893.122 406.851 893.67 407.141 894.203 407.445C893.122 408.676 892.069 409.921 891.031 411.18ZM909.855 411.761C906.738 409.838 903.524 408.068 900.295 406.339C902.05 404.513 903.861 402.743 905.728 401.041C907.131 404.624 908.577 408.178 909.855 411.761ZM906.808 391.069C908.844 390.834 910.865 390.668 912.915 390.613C911.202 391.788 909.546 393.019 907.917 394.306C907.538 393.227 907.173 392.148 906.808 391.069Z" fill="black"/>
</g>
<defs>
<clipPath id="clip0_1521_158">
<rect width="230" height="148" fill="white" transform="translate(125)"/>
</clipPath>
<clipPath id="clip1_1521_158">
<rect width="66" height="108" fill="white" transform="translate(1019 453)"/>
</clipPath>
<clipPath id="clip2_1521_158">
<rect width="232" height="138" fill="white" transform="translate(820 118)"/>
</clipPath>
<clipPath id="clip3_1521_158">
<rect width="58" height="80" fill="white" transform="matrix(1 0 0 -1 142 399)"/>
</clipPath>
<clipPath id="clip4_1521_158">
<rect width="42" height="42" fill="white" transform="translate(0 214)"/>
</clipPath>
<clipPath id="clip5_1521_158">
<rect width="46" height="50" fill="white" transform="translate(875 371)"/>
</clipPath>
</defs>
</svg>
