<svg width="106" height="72" viewBox="0 0 106 72" fill="current" xmlns="http://www.w3.org/2000/svg">
<g clip-path="url(#clip0_18_632)" filter="url(#filter0_d_18_632)">
<path d="M68.0042 42.6638C62.0667 42.1559 56.068 42.2912 50.1126 42.3729C44.1495 42.4545 38.1916 42.72 32.2362 43.034C26.2808 43.3479 20.3279 43.7436 14.3853 44.2439C12.9621 44.3638 11.5415 44.5119 10.1158 44.6165C9.75107 44.6446 9.08539 44.8105 8.76403 44.6012C8.3483 44.3307 8.52428 43.6798 8.54213 43.2356C8.65946 40.3487 8.6467 37.4643 8.46052 34.5799C8.04479 28.1705 6.61396 22.0265 4.18335 16.0893C4.13744 15.977 3.97931 16.0178 4.00226 16.1403C5.05562 22.1337 5.68304 28.2598 5.86667 34.34C5.95594 37.3188 5.79781 40.2645 5.63713 43.2356C5.4994 45.7626 6.73639 47.5903 9.4144 47.5903C12.475 47.5903 15.6044 47.0976 18.6599 46.8755C21.6772 46.656 24.6918 46.4365 27.7116 46.24C34.0853 45.8264 40.4641 45.561 46.8428 45.2598C53.8898 44.928 60.9853 44.8769 68.0068 44.2235C69.0066 44.1316 69.0142 42.7481 68.0068 42.6613L68.0042 42.6638Z" fill="current"/>
<path d="M101.766 26.335C96.1213 21.401 89.6635 17.3628 83.5041 13.095C77.2503 8.76076 70.9684 4.46738 64.6866 0.171443C63.8704 -0.387564 63.1053 0.533905 63.2098 1.30733C63.9214 6.58599 64.5182 11.88 65.6711 17.0846C64.7452 16.6507 63.6383 16.6813 62.6309 16.6303C61.2766 16.5639 59.9146 16.5562 58.5603 16.5205C56.0149 16.4567 53.4721 16.398 50.9267 16.3444C45.6701 16.2372 40.4085 16.2755 35.1493 16.2959C29.8877 16.3163 24.6311 16.3903 19.3746 16.5205C16.8292 16.5843 14.2838 16.6303 11.741 16.7707C10.3892 16.8447 9.01448 16.8625 7.67038 17.0259C6.81086 17.1306 5.85443 17.077 5.38004 17.8912C5.32903 17.978 5.32393 18.1031 5.38004 18.1899C5.89013 18.9709 6.81341 18.8969 7.67038 18.9633C9.01958 19.0654 10.3866 19.0271 11.741 19.0475C14.2863 19.0858 16.8292 19.0475 19.3746 19.0322C24.6337 19.0041 29.8928 18.9735 35.1493 18.9429C40.4085 18.9097 45.6676 18.948 50.9267 18.8944C53.4721 18.8663 56.0149 18.8459 58.5603 18.8306C59.9171 18.8229 61.2766 18.8433 62.6309 18.8101C63.7582 18.7821 64.985 18.8535 65.9822 18.2716C66.2704 18.1031 66.3367 17.7534 66.199 17.4879C66.4719 17.4777 66.7423 17.2914 66.7321 16.9646C66.5765 12.3394 65.9975 7.75251 65.439 3.16048C70.9939 7.10161 76.5463 11.0402 82.1268 14.9481C88.1536 19.17 94.0759 23.7493 100.521 27.305C99.0391 28.1959 97.8608 29.8116 96.6952 31.0394C95.4149 32.3871 94.1906 33.7859 92.9485 35.1669C90.2935 38.1202 87.6257 41.0607 85.0012 44.0421C80.6042 49.0425 76.2046 54.0353 71.8152 59.0434C71.8407 57.2183 71.8024 55.3932 71.6902 53.5707C71.5117 50.6481 71.2821 47.5391 70.3665 44.7415C70.0375 43.7358 68.4383 43.8634 68.4638 44.9993C68.5302 47.9424 69.0122 50.8752 69.1525 53.8183C69.2927 56.7767 69.2494 59.7377 69.0453 62.6935C68.9688 63.8166 70.5527 64.4599 71.2949 63.6252C76.5795 57.6931 81.8361 51.7354 87.1028 45.788C89.6814 42.8755 92.214 39.9223 94.7594 36.9817C96.0882 35.4451 97.4323 33.9238 98.7177 32.3488C99.8298 30.9858 101.317 29.5793 101.911 27.8947C101.995 27.6598 101.936 27.4505 101.806 27.2999C102.041 27.0319 102.1 26.6311 101.763 26.3376L101.766 26.335Z" fill="current"/>
</g>
<defs>
<filter id="filter0_d_18_632" x="0" y="0" width="106" height="72" filterUnits="userSpaceOnUse" color-interpolation-filters="sRGB">
<feFlood flood-opacity="0" result="BackgroundImageFix"/>
<feColorMatrix in="SourceAlpha" type="matrix" values="0 0 0 0 0 0 0 0 0 0 0 0 0 0 0 0 0 0 127 0" result="hardAlpha"/>
<feOffset dy="4"/>
<feGaussianBlur stdDeviation="2"/>
<feComposite in2="hardAlpha" operator="out"/>
<feColorMatrix type="matrix" values="0 0 0 0 0 0 0 0 0 0 0 0 0 0 0 0 0 0 0.25 0"/>
<feBlend mode="normal" in2="BackgroundImageFix" result="effect1_dropShadow_18_632"/>
<feBlend mode="normal" in="SourceGraphic" in2="effect1_dropShadow_18_632" result="shape"/>
</filter>
<clipPath id="clip0_18_632">
<rect width="98" height="64" fill="white" transform="translate(4)"/>
</clipPath>
</defs>
</svg>
