<svg width="210" height="92" viewBox="0 0 210 92" fill="none" xmlns="http://www.w3.org/2000/svg">
<path d="M43.4254 17.7509C62.7431 -6.10348 98.2796 -1.62312 107.783 13.4294C108.501 14.5671 110.092 14.9437 111.171 14.1396C144.807 -10.9331 195.411 16.8709 194.15 33.0918C194.071 34.109 194.528 35.1828 195.435 35.6491C225.302 50.9968 198.765 78.4628 183.27 75.6693C182.332 75.5001 181.348 75.8627 180.803 76.6454C168.466 94.3883 127.035 93.2684 117.741 86.1791C117.079 85.6741 116.213 85.4399 115.425 85.7109C82.0681 97.1909 52.7864 85.9183 43.4084 78.6899C42.9438 78.3318 42.3392 78.1758 41.7598 78.2675C1.05896 84.7137 -3.86614 61.4749 4.3417 48.664C4.73689 48.0472 4.80024 47.252 4.5088 46.5799C-5.42232 23.6776 22.7185 16.2567 41.5399 18.5242C42.2577 18.6107 42.9704 18.3128 43.4254 17.7509Z" fill="current" stroke="black" stroke-width="2"/>
</svg>
