<svg width="80" height="70" viewBox="0 0 80 70" fill="current" xmlns="http://www.w3.org/2000/svg">
<g clip-path="url(#clip0_18_619)">
<path d="M60.5911 8.79417C59.4288 8.2894 58.2712 7.8699 57.0673 7.54722C57.7758 5.75861 58.468 3.96539 59.1417 2.16295C59.4034 1.45996 58.7366 0.819194 58.086 0.782316C53.0388 0.508032 47.9963 0.229139 42.9445 0.000952841C42.1272 -0.0359257 41.472 1.00589 41.9651 1.70197C45.1509 6.19654 48.67 10.6404 52.7448 14.372C53.5806 15.1373 54.7012 14.2268 54.4141 13.3441C54.4581 13.2933 54.5044 13.2472 54.5437 13.1919C54.8841 12.7309 55.1202 12.1271 55.3633 11.6108C55.6157 11.0737 55.8541 10.5298 56.0857 9.9835C61.6723 12.1686 66.6755 15.2917 70.5511 19.9591C74.5541 24.7787 76.9018 30.8152 77.0222 37.08C77.1449 43.4461 75.1353 49.8284 71.2758 54.9199C67.4001 60.0368 61.6561 63.3513 55.5207 65.0477C49.0868 66.8248 42.3009 66.9677 35.6863 66.3661C28.7013 65.7299 21.3389 64.4023 15.2337 60.7952C4.75729 54.6019 0.805219 41.1113 4.53503 29.8449C8.56351 17.6796 20.9337 10.9078 33.1233 9.71613C34.6815 9.56401 36.2489 9.52713 37.8116 9.58706C38.3117 9.6055 38.4368 8.80339 37.932 8.70428C24.7168 6.11587 10.1888 12.701 3.63441 24.4883C-2.61436 35.727 -0.745977 51.1952 8.78114 60.0852C14.4812 65.405 22.2349 67.7514 29.7871 68.9545C37.0546 70.1139 44.454 70.4504 51.7377 69.2334C58.7319 68.0648 65.5433 65.2321 70.7155 60.3042C75.7627 55.4962 78.8465 48.8972 79.7495 42.0401C81.5669 28.2337 73.3942 14.3421 60.5934 8.79186L60.5911 8.79417ZM45.2365 2.37731C49.0103 2.56631 52.7865 2.73227 56.5626 2.89591C56.0417 4.35262 55.5323 5.81162 55.0392 7.27524C54.3006 7.53108 54.0135 8.45765 54.4326 9.09611C54.2335 9.72074 54.0413 10.3477 53.87 10.9815C53.7612 11.3849 53.6246 11.8136 53.5389 12.24C50.6356 9.04079 47.8088 5.83467 45.2365 2.37501V2.37731Z" fill="current"/>
</g>
<defs>
<clipPath id="clip0_18_619">
<rect width="80" height="70" fill="white"/>
</clipPath>
</defs>
</svg>
