<svg width="64" height="44" viewBox="0 0 64 44" fill="none" xmlns="http://www.w3.org/2000/svg">
<g clip-path="url(#clip0_1068_291)">
<path d="M13.0911 41.2722C15.3576 41.4002 17.4828 41.3298 19.5951 41.1505C21.0205 41.0289 22.4459 40.9969 23.8776 41.1057C24.0638 41.1185 24.2629 41.1377 24.4427 41.1954C24.9114 41.3362 25.6754 41.2274 25.6176 41.9189C25.5791 42.4055 24.9178 42.4375 24.4362 42.4567C21.5277 42.5527 18.6706 43.0842 15.7749 43.3211C11.6144 43.6604 7.44105 43.8397 3.2677 43.9358C2.79258 43.9486 2.31746 43.9806 1.84233 43.9998C0.320663 44.0574 -0.314972 43.1738 0.153729 41.7076C0.449074 40.7856 1.01408 40.0044 1.52773 39.2233C3.09434 36.8543 4.57107 34.4212 6.08632 32.0266C7.00446 30.5795 7.76207 28.9468 8.25004 27.2437C8.50044 26.3729 8.87925 25.5533 9.3929 24.8106C10.1377 23.7349 11.5374 23.8246 12.0446 24.9451C12.1858 25.2652 12.2565 25.5982 12.0638 25.8991C10.6642 28.1209 10.1505 30.7268 8.93704 33.0254C8.72516 33.4224 8.23078 33.6977 8.32708 34.402C9.3929 34.0178 10.2854 33.4224 11.1906 32.8845C14.4073 30.9573 17.746 29.2413 20.86 27.1476C23.1008 25.6366 25.502 24.388 27.7236 22.8321C30.2854 21.0394 32.9178 19.3362 35.5053 17.5819C37.3993 16.3013 39.1457 14.8351 40.9563 13.4521C44.0895 11.051 47.0366 8.44507 49.7717 5.59583C49.9001 5.46137 50.0414 5.32691 50.1826 5.20526C50.3431 5.0708 50.5293 5.03238 50.6963 5.16684C50.8504 5.28849 50.9017 5.47417 50.8632 5.67906C50.799 6.01841 50.5807 6.27452 50.3752 6.53704C48.3271 9.17499 45.9451 11.48 43.3961 13.6313C41.1104 15.5586 38.8375 17.4922 36.3977 19.221C34.0028 20.9241 31.608 22.6337 29.1618 24.2792C24.4683 27.4358 19.5823 30.2722 14.7669 33.2175C12.8215 34.4084 10.7926 35.4521 8.78936 36.5469C8.33351 36.7966 7.83912 37.0527 7.33832 37.1232C6.23399 37.2768 5.61762 37.8979 5.15533 38.8711C4.8022 39.6267 4.26288 40.299 3.67861 41.2018C5.43784 41.4195 7.06866 41.4387 8.69948 41.349C8.96272 41.3362 9.09755 41.1633 9.21312 40.9328C9.61762 40.1261 10.356 39.6779 11.1008 39.2489C12.3784 38.5126 13.6433 37.7507 14.9724 37.1232C16.7829 36.2716 18.3752 35.0615 20.1602 34.1779C22.921 32.8077 25.5085 31.1366 28.1152 29.5167C30.3175 28.1465 32.5775 26.8467 34.6256 25.2076C36.6224 23.6133 38.8568 22.3199 40.9306 20.8153C42.311 19.8164 43.5438 18.6255 44.9114 17.5947C47.9483 15.3089 50.8311 12.831 53.6048 10.2507C56.2372 7.79839 58.9082 5.35252 61.1746 2.53529C61.7075 1.8694 62.1634 1.13948 62.7155 0.492805C62.9595 0.204677 63.3191 -0.262726 63.7749 0.172665C64.1473 0.524818 63.974 0.960205 63.6979 1.33157C63.6401 1.4084 63.5823 1.48523 63.5181 1.55566C59.4475 6.19129 55.7428 11.1535 51.0687 15.232C48.8215 17.1913 46.6449 19.2274 44.2821 21.0714C42.7541 22.2687 41.2581 23.5172 39.7043 24.6826C37.4699 26.3665 35.1329 27.9096 32.86 29.5423C28.5004 32.6732 23.7171 35.1063 19.165 37.9107C17.4764 38.9544 15.6208 39.6587 13.9001 40.6383C13.6561 40.7792 13.3608 40.8176 13.0783 41.2658L13.0911 41.2722Z" fill="#151B26"/>
</g>
<defs>
<clipPath id="clip0_1068_291">
<rect width="64" height="44" fill="white" transform="translate(64 44) rotate(-180)"/>
</clipPath>
</defs>
</svg>
