<svg width="1370" height="942" viewBox="0 0 1370 942" fill="none" xmlns="http://www.w3.org/2000/svg">
<path d="M9.5185 85.4805C18.7185 -4.91953 155.018 -4.1862 222.018 7.48047C251.205 15.5 295.205 23 394.205 17C458.205 -2.01954 669.685 12.8138 776.518 30.9805C845.018 49.1471 1024.7 59.5 1189.52 30.9805C1358.63 1.71625 1362.35 141.814 1345.02 224.48C1338.85 283.48 1388.71 459.5 1358.21 610C1314.95 823.448 1386.71 901 1312.02 936.98C1291.61 946.813 1036.69 929.98 908.518 915.98C781.185 904.98 484.018 889.58 314.018 915.98C101.518 948.98 21.5184 940.5 9.5185 882.98C-13.2068 774.05 21.8027 682.929 32.7049 628C45.7052 562.5 -3.14523 469.211 9.5185 441C51.7052 347.02 -1.9815 198.48 9.5185 85.4805Z" fill="white" stroke="black" stroke-width="3"/>
</svg>
