<svg width="54" height="58" viewBox="0 0 54 58" fill="current" xmlns="http://www.w3.org/2000/svg">
<g clip-path="url(#clip0_15_1426)">
<path d="M51.6539 1.3231C49.0422 -0.98518 44.9729 0.151283 42.177 1.49989C38.2595 3.38894 35.6966 6.27808 33.6105 9.83899C31.1831 13.9808 29.2216 18.3145 27.7261 22.7896C25.8838 17.5467 23.4564 12.5665 18.3739 9.3238C15.3017 7.36403 11.4438 6.35384 7.7809 7.32868C4.32937 8.253 0.22762 10.5916 0.0271384 14.2636C-0.422591 22.3603 5.00667 30.7297 10.0891 36.8767C16.4666 44.5895 24.3288 51.181 31.9579 57.7876C32.6027 58.3483 34.1957 57.7169 35.5991 56.8582C37.2896 56.3228 40.1072 54.6308 40.4594 53.9135C44.8212 45.1501 49.1668 36.2807 51.7351 26.8859C52.9489 22.4411 53.7562 17.8851 53.8917 13.2938C53.9946 9.90971 54.5473 3.87383 51.6539 1.31805V1.3231ZM41.646 4.31831C42.4371 3.35863 41.9549 3.4748 43.3854 3.68189C44.5178 3.84857 45.336 4.34862 45.9428 5.03555C44.8917 5.54569 43.6454 6.29323 43.2987 7.23271C42.2529 10.0713 41.2397 12.915 40.2481 15.7688C40.5136 13.6777 40.7791 11.5917 41.0446 9.50058C41.115 8.94498 39.6412 9.3238 38.1186 10.0006C38.7797 8.74799 39.4787 7.50546 40.2481 6.30838C40.687 5.62651 41.1313 4.93958 41.6515 4.30821L41.646 4.31831ZM19.2084 20.3349C18.9158 20.4409 18.6069 20.5773 18.2926 20.7339C17.6478 19.2085 17.0085 17.6831 16.3637 16.1577C17.4907 17.4508 18.4173 18.86 19.2084 20.3349ZM10.0241 24.6736C10.7177 24.3453 11.4221 23.9463 11.991 23.5271C13.1018 26.1586 14.2071 28.7901 15.3179 31.4217C15.5076 31.8662 16.9814 31.4924 18.4389 30.8156C19.4901 33.4067 20.3137 36.0787 20.8989 38.8264C21.0127 39.3567 22.2102 38.9526 23.5052 38.3112C23.3426 39.2809 23.2017 40.2558 23.0771 41.2306C17.8971 36.2049 13.2047 30.7701 10.0295 24.6686L10.0241 24.6736ZM28.268 46.0391C28.4143 45.8825 28.5226 45.7361 28.566 45.6047C29.6713 42.4024 30.7821 39.1951 31.8875 35.9928C31.4269 39.6295 30.9609 43.2611 30.5003 46.8978C30.4082 47.6352 33.448 46.6301 35.2902 45.4583C35.0572 47.5039 34.8568 49.5546 34.6834 51.6103C32.5648 49.797 30.4028 47.9433 28.2625 46.0442L28.268 46.0391ZM41.6027 41.1599C42.8489 30.8711 44.8592 20.6733 47.6334 10.637C47.6767 11.2583 47.6984 11.8543 47.7255 12.3847C48.224 22.3249 45.4552 31.9217 41.6027 41.1549V41.1599Z" fill="current"/>
</g>
<defs>
<clipPath id="clip0_15_1426">
<rect width="54" height="58" fill="white"/>
</clipPath>
</defs>
</svg>
