<svg width="200" height="100" viewBox="0 0 200 100" fill="none" xmlns="http://www.w3.org/2000/svg">
<path d="M88.7802 0.92823C73.8849 5.78722 65.7779 23.6727 68.989 39.0005C60.1739 32.0539 47.8669 28.4401 37.5013 32.7436C27.1356 37.0471 20.9577 50.9526 27.099 60.3471C19.4865 59.0591 10.9827 59.871 5.17112 64.9558C-0.640492 70.0407 -2.12392 80.2592 3.66328 85.3746C7.68623 88.9333 13.5833 89.086 18.9493 89.086C68.6959 89.0982 118.449 92.4067 167.756 98.9749C174.245 99.8417 180.936 100.751 187.248 99.0298C193.56 97.3145 199.457 92.2358 199.958 85.7103C200.458 79.1787 195.391 73.2576 189.391 70.6267C183.39 68.0018 176.626 67.9469 170.076 67.9347C179.532 63.0696 181.662 48.6697 174.77 40.5754C167.878 32.4751 154.411 31.7242 145.932 38.1398C148.557 31.7547 146.591 23.7765 141.298 19.3387C136.006 14.9009 127.807 14.3576 121.977 18.0507C120.408 19.0457 119.712 20.5412 120.268 22.0795C122.502 7.06301 101.502 -3.22267 88.7741 0.92823H88.7802Z" fill="#D2E7FF"/>
</svg>
