<svg width="122" height="122" viewBox="0 0 122 122" fill="none" xmlns="http://www.w3.org/2000/svg">
<g clip-path="url(#clip0_1181_907)">
<path d="M72.3591 87.5526C71.2425 90.3691 70.2455 92.7761 69.3184 95.2132C67.8428 99.0884 65.9087 102.684 63.187 105.85C61.4323 107.888 59.7574 110.005 58.1323 112.142C54.6927 116.667 50.2562 119.623 44.713 120.892C36.9665 122.659 29.2399 122.29 21.6928 120.073C14.3949 117.925 8.85175 110.005 8.79193 102.374C8.76202 98.0397 8.72214 93.715 10.0681 89.4802C11.6632 84.4564 14.2454 80.0718 17.8445 76.2664C19.0807 74.968 20.4067 73.7495 21.5931 72.4012C22.8991 70.913 22.7895 70.3637 20.955 69.6446C17.3161 68.2064 13.9762 66.2488 10.7659 64.0315C8.23362 62.2836 5.86082 60.336 4.12608 57.7492C-0.60956 50.6779 -1.03826 43.1172 1.70342 35.2269C2.75025 32.2106 4.39526 29.5639 6.6584 27.3066C8.87169 25.0894 10.9354 22.7023 13.4877 20.8446C16.1097 18.9269 19.0508 17.8283 22.2411 17.7883C27.4852 17.7184 32.6894 18.068 37.5547 20.4051C40.4758 21.8134 43.0879 23.7011 45.6103 25.6687C47.6042 27.2267 49.5284 28.8847 51.5223 30.4528C53.5263 32.0208 55.4205 33.6988 57.0356 35.8861C57.245 34.2281 57.4843 32.5802 57.6438 30.9222C58.4513 22.8421 61.5719 15.7209 66.8658 9.65834C70.9833 4.95412 76.4866 2.47717 82.5084 1.02895C86.4065 0.100091 90.3247 -0.119639 94.2926 0.100091C95.9476 0.189981 97.5428 0.569514 99.0482 1.26865C105.07 4.06522 109.865 8.14021 112.627 14.3426C112.806 14.7521 112.986 15.1716 113.225 15.5511C118.888 24.2704 116.655 38.363 112.448 45.1847C110.942 47.6316 108.938 49.6492 106.884 51.6068C105.02 53.3746 104.98 53.3047 106.625 55.4021C111.431 61.5246 116.206 67.647 119.646 74.6984C121.191 77.8645 121.979 81.0705 121.989 84.6162C121.989 89.1007 121.321 93.3255 119.656 97.5303C117.412 103.203 108.948 109.306 102.458 108.976C98.6494 108.786 94.8609 108.717 91.1422 107.728C88.6298 107.059 86.4364 105.87 84.5422 104.092C79.9362 99.7576 75.8186 95.0633 73.2265 89.1906C73.0471 88.791 72.8078 88.4115 72.3392 87.5725L72.3591 87.5526ZM54.6329 65.8792C54.6329 66.6283 54.6329 67.3774 54.6329 68.1165C54.6229 71.1028 56.1682 73.0005 58.8102 74.1391C60.5151 74.8682 62.3296 74.6884 64.1042 74.7084C65.3604 74.7184 66.3773 74.209 67.3444 73.41C70.3353 70.913 71.8606 67.5072 73.1667 64.0015C73.6253 62.773 73.5954 61.3648 73.7549 60.0264C73.8546 59.1775 73.5854 58.4284 73.0869 57.7192C70.6344 54.2036 69.8767 53.7341 65.5996 53.3346C64.5628 53.2348 63.516 53.2647 62.4691 53.2647C60.1262 53.2647 58.3516 54.2635 57.0555 56.251C55.1414 59.1974 54.5631 62.4434 54.6329 65.8792Z" fill="#FFCDDC"/>
</g>
<defs>
<clipPath id="clip0_1181_907">
<rect width="122" height="122" fill="white"/>
</clipPath>
</defs>
</svg>
