<svg width="41" height="38" viewBox="0 0 41 38" fill="none" xmlns="http://www.w3.org/2000/svg">
<g clip-path="url(#clip0_1181_909)">
<path d="M17.4186 28.2666C12.8844 27.0745 8.54952 25.3556 4.50728 22.9651C2.14654 21.579 -0.000144954 25.2348 2.40065 26.5685C6.86595 29.0349 11.4366 30.9869 16.374 32.3143C19.0072 33.0223 20.0519 28.9745 17.4186 28.2666Z" fill="#FF7575"/>
<path d="M26.1847 21.5981C21.5204 16.2499 16.8359 10.8949 12.1782 5.52691C10.3786 3.47138 7.27582 6.3005 9.06193 8.3295C13.6454 13.5846 18.2288 18.8397 22.8122 24.0948C24.5917 26.1436 27.9642 23.6469 26.1847 21.5981Z" fill="#FF7575"/>
<path d="M36.9997 18.1704C34.2986 15.5264 32.2729 12.2734 31.1319 8.72356C30.2898 6.15377 26.1746 7.45548 27.097 9.98628C28.6639 14.3388 31.0001 18.0699 34.3144 21.3596C36.2478 23.2841 38.9464 20.0554 37.0064 18.1507L36.9997 18.1704Z" fill="#FF7575"/>
</g>
<defs>
<clipPath id="clip0_1181_909">
<rect width="33" height="28" fill="white" transform="translate(9.40625 0.550781) rotate(18.5546)"/>
</clipPath>
</defs>
</svg>
