<svg width="185" height="60" viewBox="0 0 185 60" fill="none" xmlns="http://www.w3.org/2000/svg">
<g filter="url(#filter0_d_1302_189)">
<rect x="2" width="177" height="52" rx="26" fill="#EFF8FF"/>
<rect x="2.2" y="0.2" width="176.6" height="51.6" rx="25.8" stroke="#3C7BAC" stroke-width="0.4"/>
</g>
<circle cx="32" cy="25" r="3" fill="#F00E0E"/>
<g filter="url(#filter1_d_1302_189)">
<path d="M58.2949 17.1133H59.6328L59.8965 20.3164V21.3906C60.4954 21.3906 60.9414 21.4785 61.2344 21.6543L62.5723 21.3906C62.9173 21.5664 63.1842 21.6543 63.373 21.6543V21.918C63.373 22.4128 62.4811 22.7708 60.6973 22.9922H59.8965L60.1699 25.6582V26.1953C60.1699 26.5534 59.9909 26.7324 59.6328 26.7324H59.3691C58.9199 26.7324 58.653 26.3743 58.5684 25.6582L58.2949 17.1133ZM54.8281 17.9141L55.0918 18.4512V18.7148C55.0918 19.2487 54.112 19.5156 52.1523 19.5156H50.8242C50.4661 19.5742 50.2871 19.7533 50.2871 20.0527V23.793H50.5508C50.8242 23.793 52.25 23.7018 54.8281 23.5195V24.3203C54.8281 24.8151 53.1354 25.1732 49.75 25.3945C49.0404 25.3945 48.6855 23.793 48.6855 20.5898H48.9492L48.1484 19.252V18.4512L54.8281 17.9141ZM52.6895 27.5332C53.3991 27.6374 53.7539 28.347 53.7539 29.6621V30.1992C56.6055 30.0755 58.0312 29.8086 58.0312 29.3984C57.6732 28.819 57.4941 28.373 57.4941 28.0605L58.0312 27.7969H59.0957C59.278 29.2552 59.457 30.1471 59.6328 30.4727L58.5684 34.7402L54.291 35.0039C52.8652 35.0039 52.1523 34.3822 52.1523 33.1387V28.0605C52.2109 27.709 52.39 27.5332 52.6895 27.5332ZM53.7539 32.0742V33.4023H56.9668C57.3835 33.4023 57.6504 32.7806 57.7676 31.5371C57.5853 31.5371 57.4941 31.4492 57.4941 31.2734L56.9668 31.5371H56.4297C56.2539 31.5371 56.166 31.4492 56.166 31.2734C54.5579 31.4818 53.7539 31.7487 53.7539 32.0742ZM76.459 16.8984C77.3509 16.8984 77.7969 18.4935 77.7969 21.6836C78.4349 21.6836 79.2324 21.5957 80.1895 21.4199C80.7233 21.5957 80.9902 21.7747 80.9902 21.957C80.9902 22.8424 80.0137 23.2852 78.0605 23.2852V25.6777C78.0605 26.0358 77.7936 26.2148 77.2598 26.2148C76.5501 25.9479 76.1953 25.681 76.1953 25.4141V24.8867C76.1953 24.7044 76.2832 24.6133 76.459 24.6133C75.9316 22.0677 75.668 19.763 75.668 17.6992V17.1621C75.8503 17.1621 76.1139 17.0742 76.459 16.8984ZM70.6094 17.4258C71.5143 17.7057 72.3118 18.5944 73.002 20.0918V21.4199C72.4095 24.0827 71.2572 25.4141 69.5449 25.4141H69.2715C66.2572 24.9258 64.75 23.6823 64.75 21.6836C64.75 18.8451 66.5241 17.4258 70.0723 17.4258H70.6094ZM66.6152 20.8926V21.957C67.3965 23.194 68.373 23.8125 69.5449 23.8125C70.6061 23.3698 71.1367 22.5723 71.1367 21.4199V21.1562C71.1367 20.1927 70.7819 19.4831 70.0723 19.0273H69.8086C67.6797 19.0273 66.6152 19.6491 66.6152 20.8926ZM71.1367 27.0156C71.4948 27.25 71.8496 28.6693 72.2012 31.2734L78.3242 30.4727L78.5879 31V31.5371C78.5879 32.3314 76.3711 32.7741 71.9375 32.8652C70.5182 32.8652 69.8086 31.0033 69.8086 27.2793H70.0723C70.3848 27.1035 70.7396 27.0156 71.1367 27.0156ZM89.2422 16.6348H90.3066C90.3066 16.9212 90.4857 17.1849 90.8438 17.4258C91.0195 19.6263 91.1074 20.7819 91.1074 20.8926C91.8171 20.8926 92.1719 20.9805 92.1719 21.1562L92.6992 20.8926H94.5645L95.8926 20.6289V20.8926L96.4297 20.6289H97.2305L98.5586 20.8926V21.4199C98.3828 21.9538 97.849 22.2207 96.957 22.2207H94.5645L92.6992 22.4844V22.2207C92.5234 22.2207 92.4355 22.3086 92.4355 22.4844C90.6647 22.2695 89.7793 21.9147 89.7793 21.4199V21.1562C89.7793 20.9805 89.8672 20.8926 90.043 20.8926C89.5091 19.916 89.2422 18.4967 89.2422 16.6348ZM95.3652 22.4844C95.6582 23.1354 96.013 24.5547 96.4297 26.7422C96.6055 26.7422 96.6934 26.8333 96.6934 27.0156L98.5586 26.7422H99.0859L100.424 27.0156V28.0801H100.15C94.8835 28.4316 91.5143 28.6074 90.043 28.6074L89.5059 27.8066C89.5645 27.4551 89.7435 27.2793 90.043 27.2793H90.5703C90.974 27.2793 91.3288 27.3672 91.6348 27.543C92.5853 27.1914 93.5618 27.0156 94.5645 27.0156V25.4141L94.3008 22.7578C94.3854 22.7578 94.7402 22.6667 95.3652 22.4844ZM98.8223 29.6719C99.1803 31.4948 99.4473 33.2689 99.623 34.9941H98.2949L97.4941 31L96.957 31.2734C96.7812 31.2734 96.6934 31.1823 96.6934 31C94.623 31.5339 93.028 31.8008 91.9082 31.8008L91.3711 31C91.3711 30.4206 93.8548 29.9779 98.8223 29.6719ZM108.451 14.7793V15.043C108.796 14.8672 109.063 14.7793 109.252 14.7793C110.671 15.3132 111.381 16.3743 111.381 17.9629V19.0273C110.762 20.1406 109.61 20.9414 107.924 21.4297H107.65C105.346 21.4297 104.193 20.2741 104.193 17.9629C105.072 15.8405 106.492 14.7793 108.451 14.7793ZM105.795 18.5V19.0273C105.795 19.3073 106.15 19.6621 106.859 20.0918H107.387C108.63 20.0918 109.516 19.4733 110.043 18.2363C109.835 16.8171 109.48 16.1074 108.979 16.1074H107.387C106.326 16.7259 105.795 17.5234 105.795 18.5ZM114.301 22.7578V23.0215C114.125 23.334 114.037 23.6888 114.037 24.0859C109.923 24.6198 106.82 24.8867 104.73 24.8867H103.93C102.621 24.8867 101.911 24.6198 101.801 24.0859L102.328 23.2852L103.666 23.5488H104.73C105.883 23.5488 107.654 23.4609 110.043 23.2852C110.043 23.4609 110.134 23.5488 110.316 23.5488C110.316 23.0215 111.645 22.7578 114.301 22.7578ZM110.844 27.0156C111.378 28.0312 111.645 29.0924 111.645 30.1992C111.469 30.1992 111.381 30.2904 111.381 30.4727C111.732 30.5247 111.908 30.7005 111.908 31V33.1289C111.908 33.5781 109.958 34.112 106.059 34.7305C104.991 34.7305 104.457 32.4225 104.457 27.8066C105.01 27.2793 107.139 27.0156 110.844 27.0156ZM105.795 28.6074C106.146 30.834 106.322 32.0742 106.322 32.3281H106.059C106.234 32.6732 106.322 32.9401 106.322 33.1289C108.881 32.7773 110.212 32.6016 110.316 32.6016V29.1445C110.316 28.7409 109.695 28.3861 108.451 28.0801C108.021 28.2559 107.136 28.4316 105.795 28.6074ZM120.189 16.1074H120.453C120.811 16.1595 120.99 16.3353 120.99 16.6348V19.0273C120.99 21.1562 121.257 22.2207 121.791 22.2207C122.318 22.2207 122.582 22.3086 122.582 22.4844L123.119 22.2207H123.646C124.005 22.2793 124.184 22.4583 124.184 22.7578V23.0215C124.184 23.5553 123.119 23.8223 120.99 23.8223V23.5488C120.814 23.5488 120.727 23.64 120.727 23.8223C117.354 23.64 115.668 23.2852 115.668 22.7578V22.2207L116.996 21.957V22.2207C117.172 22.2207 117.26 22.1328 117.26 21.957L118.598 22.2207H119.926C119.926 21.8236 119.838 21.4688 119.662 21.1562C119.662 20.9805 119.75 20.8926 119.926 20.8926C119.568 18.5684 119.389 17.1491 119.389 16.6348L120.189 16.1074ZM127.641 19.3008H128.168C128.487 19.3008 129.021 21.1628 129.77 24.8867L130.297 24.6133C130.831 24.7956 131.098 24.9746 131.098 25.1504C131.273 25.1504 131.361 25.0625 131.361 24.8867L132.689 25.1504C133.035 24.9746 133.301 24.8867 133.49 24.8867V25.9512L132.162 26.2148H131.625C131.449 26.2148 131.361 26.127 131.361 25.9512L130.834 26.2148C130.652 26.2148 130.561 26.127 130.561 25.9512C130.222 26.127 129.958 26.2148 129.77 26.2148V29.9355C129.77 30.2936 129.59 30.4727 129.232 30.4727C128.926 30.4727 128.663 30.0267 128.441 29.1348C128.617 28.7962 128.705 28.5326 128.705 28.3438L127.104 19.5645L127.641 19.3008ZM120.453 25.4141C122.543 25.4141 123.786 26.3027 124.184 28.0801C123.799 29.8249 122.911 31.2409 121.518 32.3281H119.926C118.507 31.5469 117.797 30.6615 117.797 29.6719V28.0801C117.979 27.3053 118.865 26.4167 120.453 25.4141ZM119.926 26.7422L118.861 28.8711C119.395 30.4661 119.926 31.2637 120.453 31.2637C121.872 30.847 122.582 29.7858 122.582 28.0801V27.543C122.582 27.2891 122.318 27.0221 121.791 26.7422H119.926ZM147.562 16.957C148.103 17.6211 148.373 18.8809 148.373 20.7363V23.4414L148.646 24.7891H148.373L148.646 25.3262V25.873C148.646 29.6491 148.376 31.5371 147.836 31.5371C147.576 31.5306 147.126 31.1725 146.488 30.4629C146.664 28.347 146.752 26.8171 146.752 25.873V23.7051L146.488 21.8203H146.752L146.488 21.2734V17.2207C146.573 17.2207 146.931 17.1328 147.562 16.957ZM135.404 18.8418C139.187 18.8418 141.078 19.4733 141.078 20.7363V26.1367L140.814 27.7578L141.078 28.2949C140.902 28.6465 140.814 28.9167 140.814 29.1055H140.541L139.193 28.8418V26.9473C139.193 25.515 139.281 23.6237 139.457 21.2734C139.281 20.9284 139.193 20.6582 139.193 20.4629H136.762L134.867 19.9258V19.1152C135.225 19.1152 135.404 19.0241 135.404 18.8418Z" fill="#151B26"/>
</g>
<defs>
<filter id="filter0_d_1302_189" x="0" y="0" width="185" height="60" filterUnits="userSpaceOnUse" color-interpolation-filters="sRGB">
<feFlood flood-opacity="0" result="BackgroundImageFix"/>
<feColorMatrix in="SourceAlpha" type="matrix" values="0 0 0 0 0 0 0 0 0 0 0 0 0 0 0 0 0 0 127 0" result="hardAlpha"/>
<feOffset dx="2" dy="4"/>
<feGaussianBlur stdDeviation="2"/>
<feComposite in2="hardAlpha" operator="out"/>
<feColorMatrix type="matrix" values="0 0 0 0 0 0 0 0 0 0.317647 0 0 0 0 0.607843 0 0 0 0.25 0"/>
<feBlend mode="normal" in2="BackgroundImageFix" result="effect1_dropShadow_1302_189"/>
<feBlend mode="normal" in="SourceGraphic" in2="effect1_dropShadow_1302_189" result="shape"/>
</filter>
<filter id="filter1_d_1302_189" x="44.1484" y="14.7793" width="108.5" height="28.2246" filterUnits="userSpaceOnUse" color-interpolation-filters="sRGB">
<feFlood flood-opacity="0" result="BackgroundImageFix"/>
<feColorMatrix in="SourceAlpha" type="matrix" values="0 0 0 0 0 0 0 0 0 0 0 0 0 0 0 0 0 0 127 0" result="hardAlpha"/>
<feOffset dy="4"/>
<feGaussianBlur stdDeviation="2"/>
<feComposite in2="hardAlpha" operator="out"/>
<feColorMatrix type="matrix" values="0 0 0 0 0 0 0 0 0 0 0 0 0 0 0 0 0 0 0.25 0"/>
<feBlend mode="normal" in2="BackgroundImageFix" result="effect1_dropShadow_1302_189"/>
<feBlend mode="normal" in="SourceGraphic" in2="effect1_dropShadow_1302_189" result="shape"/>
</filter>
</defs>
</svg>
