<svg width="37" height="33" viewBox="0 0 37 33" fill="none" xmlns="http://www.w3.org/2000/svg">
<g clip-path="url(#clip0_1181_913)">
<path d="M19.5741 25.6863C24.2523 25.3783 28.835 24.5151 33.258 22.937C35.8393 22.0251 37.2516 26.0224 34.641 26.8752C29.7881 28.4475 24.9296 29.4947 19.83 29.8589C17.1101 30.0531 16.8543 25.8806 19.5741 25.6863Z" fill="#FF7575"/>
<path d="M12.2384 17.4727C17.8347 13.1091 23.452 8.74271 29.0455 4.35843C31.2032 2.68265 33.7114 6.0502 31.572 7.70251C26.0729 11.9901 20.5737 16.2776 15.0746 20.5652C12.9379 22.2382 10.1018 19.1457 12.2384 17.4727Z" fill="#FF7575"/>
<path d="M2.27092 12.0503C5.42556 9.96821 8.03292 7.1598 9.82823 3.89173C11.1436 1.52896 14.9362 3.58952 13.5493 5.89872C11.1833 9.87386 8.18014 13.0926 4.30076 15.6919C2.03672 17.2136 0.00137585 13.5307 2.26817 12.0296L2.27092 12.0503Z" fill="#FF7575"/>
</g>
<defs>
<clipPath id="clip0_1181_913">
<rect width="33" height="28" fill="white" transform="matrix(-0.991234 0.132116 0.132116 0.991234 32.7109 0)"/>
</clipPath>
</defs>
</svg>
