<svg width="78" height="95" viewBox="0 0 78 95" fill="none" xmlns="http://www.w3.org/2000/svg">
<g clip-path="url(#clip0_1181_902)">
<path d="M19.045 24.7678C16.1117 22.5291 13.1784 20.2871 10.2417 18.0484C9.73861 17.6623 9.21177 17.2694 8.58975 17.1407C6.83247 16.7749 5.46268 18.5835 4.59254 20.1448C7.61764 23.8737 11.003 27.3147 14.6841 30.4034C9.94935 30.8031 5.19076 30.9352 0.438977 30.8065C0.29282 32.2222 0.146664 33.6345 0.00390625 35.0502C4.33422 35.9748 8.70532 36.7029 13.1036 37.2346C10.4218 39.8899 7.86577 42.6705 5.44569 45.5628C6.46878 46.6195 7.49188 47.6762 8.51158 48.7329C10.8093 47.0157 13.107 45.2952 15.4047 43.5781C14.9799 50.9174 14.5584 58.2566 14.1335 65.5958C15.2552 65.589 16.3802 65.5856 17.5019 65.5788C18.2531 58.2227 19.0009 50.8699 19.752 43.5138C23.0321 46.2165 25.6425 49.7218 27.2876 53.6336C28.739 53.4338 30.1563 52.9799 31.4548 52.3026C29.3372 47.8591 26.7777 43.6188 23.8342 39.6698C27.2196 39.7985 30.6084 39.9272 33.9938 40.0525C34.9965 37.6546 33.144 34.8402 30.741 33.8377C28.3379 32.8352 25.6119 33.1434 23.0287 33.4685C26.9613 31.2298 30.7614 28.7642 34.4119 26.092C33.9462 24.7847 33.4805 23.4808 33.0149 22.1735C28.9429 24.3682 24.8709 26.5628 20.7989 28.7575C22.0429 23.3724 30.639 1.25996 23.1204 0.00683594C21.1286 8.03357 20.3605 16.592 19.0484 24.7746L19.045 24.7678Z" fill="#FFAEA3"/>
<path d="M62.6388 54.1819C59.7055 51.9432 56.7721 49.7011 53.8354 47.4624C53.3324 47.0763 52.8055 46.6835 52.1835 46.5548C50.4262 46.189 49.0564 47.9975 48.1863 49.5589C51.2114 53.2877 54.5968 56.7287 58.2779 59.8175C53.5431 60.2172 48.7845 60.3492 44.0327 60.2205C43.8866 61.6362 43.7404 63.0485 43.5977 64.4642C47.928 65.3888 52.2991 66.117 56.6974 66.6487C54.0156 69.304 51.4595 72.0845 49.0394 74.9769C50.0625 76.0336 51.0856 77.0902 52.1053 78.1469C54.403 76.4298 56.7008 74.7093 58.9985 72.9922C58.5736 80.3314 58.1521 87.6706 57.7273 95.0098C58.8489 95.0031 59.974 94.9997 61.0956 94.9929C61.8434 87.6368 62.5946 80.284 63.3458 72.9278C66.6258 75.6305 69.2362 79.1359 70.8813 83.0476C72.3327 82.8478 73.7501 82.394 75.0485 81.7166C72.9275 77.2731 70.3715 73.0328 67.428 69.0838C70.8134 69.2125 74.2022 69.3412 77.5875 69.4665C78.5902 67.0687 76.7378 64.2542 74.3347 63.2517C71.9316 62.2492 69.2056 62.5574 66.6224 62.8826C70.555 60.6439 74.3551 58.1783 78.0056 55.5061C77.54 54.1988 77.0743 52.8949 76.6086 51.5876C72.5366 53.7822 68.4647 55.9769 64.3927 58.1715C65.6367 52.7865 74.2327 30.674 66.7142 29.4209C64.7224 37.4476 63.9542 46.0061 62.6422 54.1886L62.6388 54.1819Z" fill="#F8A5B9"/>
</g>
<defs>
<clipPath id="clip0_1181_902">
<rect width="78" height="95" fill="white"/>
</clipPath>
</defs>
</svg>
