<svg width="66" height="60" viewBox="0 0 66 60" fill="none" xmlns="http://www.w3.org/2000/svg">
<g clip-path="url(#clip0_1181_798)">
<path fill-rule="evenodd" clip-rule="evenodd" d="M60.9551 23.9391C58.7398 22.6768 56.3709 21.9151 54.0458 20.8923C52.3788 20.1523 51.4357 19.1077 50.9751 17.9108C53.2781 12.7747 55.647 7.63873 56.1954 7.5952C57.0947 7.52991 57.9063 6.3112 57.0289 5.59302C56.3489 5.04895 55.7128 4.85309 55.0768 4.87485C55.1426 4.72251 55.2303 4.57017 55.2961 4.41783C55.318 4.35254 55.34 4.28726 55.3838 4.22197C55.3838 4.22197 55.34 4.17844 55.318 4.15668C55.318 4.17844 55.3619 4.20021 55.3838 4.22197C56.3709 1.82806 55.9322 4.4396 55.4496 4.28726C56.1077 5.09248 57.5553 4.89661 58.3888 4.83133C59.0249 4.7878 59.2443 3.78671 58.5424 3.6779C58.2572 3.26441 57.9501 2.87268 57.665 2.45918C57.8405 1.65396 57.4456 0.826974 56.6121 0.609346C55.9322 0.435243 55.2522 0.261141 54.5723 0.0652761C53.9142 -0.108826 52.993 0.0435133 52.5543 0.587583C47.5533 6.81174 42.2453 12.9924 44.9212 20.0435C40.0518 28.8139 34.4147 37.4973 27.7687 44.8749C19.0827 37.1708 3.70687 41.9369 0.175461 53.3623C-0.263223 54.7987 0.438671 56.5832 1.79859 57.3014C11.9103 62.6333 24.0399 59.5647 32.3968 52.4048C33.4496 51.5125 33.647 49.9456 33.1864 48.6616C38.2752 42.198 42.2014 35.0816 46.4127 27.9434C46.6979 27.4429 47.2682 26.2677 47.9481 24.7443C50.646 27.4864 55.1645 27.6823 58.0817 30.0762C62.0738 33.3406 52.335 45.3101 52.0718 49.9238C51.984 51.2731 53.8484 52.4918 55.011 51.5996C61.986 46.2894 72.3609 30.4244 60.999 23.9173L60.9551 23.9391Z" fill="black"/>
<path fill-rule="evenodd" clip-rule="evenodd" d="M55.34 4.22196C55.34 4.22196 55.3838 4.26548 55.4277 4.26548C55.4058 4.24372 55.3619 4.22196 55.3619 4.2002L55.34 4.22196Z" fill="black"/>
</g>
<defs>
<clipPath id="clip0_1181_798">
<rect width="66" height="60" fill="white"/>
</clipPath>
</defs>
</svg>
