<svg width="52" height="72" viewBox="0 0 52 72" fill="none" xmlns="http://www.w3.org/2000/svg">
<g clip-path="url(#clip0_1181_761)">
<path fill-rule="evenodd" clip-rule="evenodd" d="M45.9352 37.8313C44.9244 29.967 43.9617 22.4039 42.9509 14.5078C37.5921 16.5215 32.7788 19.2486 27.9333 21.9124C23.1361 24.5444 18.1944 26.9386 13.0441 29.5864C13.1083 30.2999 13.1885 31.1403 13.2848 31.9648C14.0549 39.1473 15.4989 46.1872 17.7291 53.0685C18.2906 54.8126 18.0981 56.5726 17.6168 58.285C17.0552 60.2669 16.3332 62.2171 15.8198 64.1991C15.0336 67.2433 13.0441 69.3363 10.5091 71.0011C6.51402 73.6331 0.497359 70.6681 0.0641595 65.9115C-0.336951 61.5512 0.962647 57.8093 4.1234 54.6858C7.46064 51.3878 7.42855 51.3719 12.5788 49.8498C12.4505 49.1839 12.4184 48.4704 12.1937 47.8203C9.67477 40.3841 8.98486 32.5673 7.589 24.909C7.04349 21.9124 7.31624 18.7571 7.25206 15.6653C7.25206 15.0786 7.3002 14.4761 7.46064 13.9212C7.81362 12.6527 8.85651 11.8441 10.108 12.8113C10.5572 13.1601 11.0546 13.4614 11.6803 13.8895C12.7713 13.3662 13.8624 12.9223 14.8732 12.3515C20.1518 9.3072 25.655 6.72275 31.431 4.67738C34.3672 3.63092 37.1428 2.18806 40.0148 0.983043C40.9614 0.586655 41.9562 0.237833 42.967 0.0634219C44.8281 -0.253689 45.7427 0.523232 45.871 2.44175C46.0956 5.96168 46.0956 9.51332 46.4807 13.0174C47.3471 20.7549 48.3579 28.4924 49.3526 36.214C49.5933 38.1009 50.0265 39.9084 51.0534 41.6366C52.5936 44.2687 52.1765 46.7421 50.187 49.2949C48.1493 51.9269 45.9673 54.1467 42.9188 55.6054C40.7528 56.636 38.5868 56.6201 36.4048 56.0652C35.6347 55.8749 34.8004 55.209 34.3832 54.5272C33.0034 52.2281 32.7146 49.834 34.3832 47.4715C34.8966 46.7421 35.41 46.0128 35.8111 45.2359C37.5279 41.8903 40.2073 39.734 43.8173 38.6875C44.3789 38.529 44.9083 38.2594 45.9031 37.8472L45.9352 37.8313ZM42.2931 4.47126C31.4471 8.26074 21.2749 12.6052 11.6161 18.107C11.2311 21.9441 11.3594 23.1174 12.6911 26.2726C17.0231 24.0211 21.3391 21.7855 25.655 19.5182C29.7143 17.3935 33.7093 15.1262 37.8167 13.0967C41.6674 11.194 42.8867 9.11693 42.2931 4.48712V4.47126ZM3.49767 63.5331C3.51371 63.9771 3.52976 64.4052 3.57789 64.8492C3.75438 66.6567 4.74913 67.4653 6.54611 67.1482C8.53562 66.7994 9.97962 65.6102 11.1348 64.0088C12.3702 62.2806 12.7713 60.2669 13.1885 58.285C13.6859 55.9383 11.7766 54.3369 9.45015 55.0346C6.59424 55.8749 3.57789 60.2035 3.51371 63.549L3.49767 63.5331ZM45.133 42.1916C43.9617 42.7148 42.7423 43.2063 41.5871 43.8247C39.9346 44.7126 39.2447 46.3774 38.6029 47.9789C38.4745 48.296 38.6831 48.8509 38.9077 49.1839C40.6245 51.5939 43.8013 51.8318 45.6945 49.612C46.8176 48.296 47.684 46.7897 48.6146 45.4578C47.4434 43.3015 47.4755 43.2539 45.133 42.1916Z" fill="black"/>
</g>
<defs>
<clipPath id="clip0_1181_761">
<rect width="52" height="72" fill="white"/>
</clipPath>
</defs>
</svg>
