<svg width="54" height="100" viewBox="0 0 54 100" fill="none" xmlns="http://www.w3.org/2000/svg">
<g clip-path="url(#clip0_1181_763)">
<path fill-rule="evenodd" clip-rule="evenodd" d="M28.0136 25.1292C28.0136 22.8824 28.0724 20.9164 28.0283 18.9652C27.9695 16.3931 28.4543 13.9688 29.6589 11.6924C30.4374 10.2438 31.2013 8.78038 31.8036 7.25783C32.4793 5.52834 33.6545 4.34579 35.2116 3.44409C36.4309 2.73455 37.6942 2.06936 38.8254 1.21201C40.6616 -0.162713 42.7035 -0.147931 44.7454 0.221618C47.4042 0.709423 49.6518 2.06936 51.2383 4.28666C53.0011 6.72568 53.8384 9.56382 53.9706 12.5646C54 13.3037 53.7356 14.0575 53.5446 14.7966C53.4271 15.2105 53.1921 15.5949 52.9864 15.9792C50.3863 20.8277 51.9434 19.8668 46.5522 22.3354C42.6888 24.1093 38.8107 25.7796 34.6681 26.77C33.7427 26.9918 32.8466 27.4204 31.7742 27.8195C31.9064 28.8986 32.0239 29.8299 32.1121 30.5838C32.5087 30.8646 32.6703 31.0716 32.8613 31.1011C33.7133 31.249 34.5653 31.3968 35.432 31.4855C38.3847 31.8107 41.1317 32.7419 43.8199 34.0132C48.1241 36.0531 50.7829 39.6156 52.531 43.7988C53.8678 47.0213 53.4712 50.4803 52.2225 53.7323C50.2981 58.773 47.0664 62.7937 42.6007 65.7944C40.8085 67.0065 39.0016 68.2187 36.8716 69.6525C36.7394 70.5099 36.4603 71.6628 36.3721 72.8454C36.1959 75.1514 35.7258 77.3687 34.9766 79.5564C34.0952 82.1433 33.346 84.7745 32.6262 87.4056C31.5979 91.1159 29.2329 93.6732 25.9717 95.521C23.9004 96.6887 21.6676 97.5904 19.9048 99.3051C19.185 100.015 18.1567 100.207 17.1725 99.6895C15.3509 98.7286 13.5147 97.7678 11.7372 96.7183C10.0626 95.7279 9.41621 93.9097 8.54951 92.2985C8.32916 91.8846 8.43199 91.2046 8.54951 90.702C9.10772 88.6769 10.0185 86.8144 11.414 85.2475C11.9135 84.6858 12.5598 84.2127 13.2209 83.8875C14.7633 83.1041 15.7182 83.651 16.5408 85.2327C17.6425 87.3465 16.9962 89.0317 15.5272 90.5542C14.8662 91.249 14.0582 91.7959 13.4119 92.328C13.265 93.6289 14.0582 94.028 14.8221 94.4566C15.7329 94.9592 16.7171 95.0184 17.6719 94.7079C22.0789 93.2889 25.531 90.5246 28.2486 86.8587C29.2035 85.5727 29.6882 83.9319 30.2758 82.3946C30.9369 80.6651 31.5539 78.906 32.068 77.1322C32.6115 75.2549 32.9788 73.3332 33.0082 71.2046C31.9799 70.8942 31.0397 70.9977 30.1436 71.3672C25.9129 73.1558 21.4619 72.8158 17.3341 71.6333C12.222 70.1699 7.57998 67.7456 4.12785 63.1632C0.572902 58.433 -0.42601 53.2593 0.161585 47.7161C0.602282 43.5328 2.21817 39.6747 5.97878 37.1617C6.78672 36.6148 7.5506 35.994 8.2704 35.314C12.7214 31.1159 17.9657 28.3665 23.7976 26.637C25.1491 26.2379 26.4418 25.6909 28.0283 25.1144L28.0136 25.1292ZM33.5664 66.4596C33.6692 65.9866 33.772 65.7796 33.7573 65.5727C32.9347 55.5505 32.0386 45.5283 29.8792 35.6688C29.7911 35.2844 29.512 34.9297 29.3504 34.634C26.2214 34.7523 24.1208 36.4374 22.4168 38.6399C19.4788 42.4241 17.951 46.5926 19.4788 51.4559C20.1545 53.6141 21.3444 54.3236 23.6654 53.8506C24.0326 53.7767 24.3999 53.7175 25.0609 53.5993C24.9287 54.6192 24.914 55.3731 24.7084 56.0679C24.6055 56.4226 24.1795 56.807 23.8123 56.9105C21.3003 57.6791 17.951 56.1418 17.0696 53.6436C16.482 52.0176 16.247 50.2586 15.8651 48.5586C15.5419 47.1396 15.6888 45.7501 16.0854 44.3606C16.9374 41.3598 18.4358 38.6991 20.3014 36.2748C21.9761 34.1167 23.9004 32.1654 26.809 31.6776C27.235 31.6037 27.6317 31.4116 28.0283 31.2194C28.8803 30.8203 28.9097 30.436 28.1458 29.0169C27.1469 29.3125 26.1186 29.5934 25.0903 29.9186C19.7726 31.6481 14.8221 34.0575 10.5914 37.8122C9.62187 38.6695 8.65234 39.5564 7.59467 40.3103C4.92111 42.232 3.81937 45.0258 3.37867 48.1004C3.15832 49.6082 3.20239 51.175 3.34929 52.6828C3.6284 55.4027 4.11316 58.093 6.18444 60.1773C6.71327 60.7094 7.05114 61.4337 7.44777 62.0841C8.29978 63.5328 9.47497 64.6266 10.988 65.3657C12.0604 65.8979 13.1181 66.4596 14.2051 66.9622C20.8009 70.096 27.2497 69.0908 33.5517 66.4596H33.5664ZM37.4151 65.1736C39.4129 63.7102 41.0435 62.6311 42.5566 61.4042C45.4652 59.0391 47.8596 56.2305 49.1523 52.6385C50.4157 49.1204 50.5773 45.7796 48.3738 42.3354C46.3613 39.2017 43.6877 37.2209 40.3531 36.0235C38.0615 35.1957 35.6523 34.6784 32.92 34.9297C33.6692 38.4773 34.3743 41.7737 35.0647 45.0849C35.7405 48.2926 35.2998 51.6037 36.1812 54.8114C37.0626 58.0191 36.2693 61.4929 37.4004 65.1884L37.4151 65.1736ZM31.4217 23.8728C31.8477 23.8432 32.2884 23.8728 32.6703 23.7693C37.6795 22.3207 42.3803 20.1034 47.1839 18.1374C47.3896 18.0487 47.5952 17.9748 47.7568 17.8269C48.0947 17.5609 48.4619 17.2948 48.697 16.9548C50.6801 14.0871 51.5762 11.1011 49.6371 7.81955C49.4168 7.45 49.2405 7.05089 49.0054 6.68134C46.9195 3.31105 43.0707 2.43891 39.7214 4.5823C38.5316 5.33618 37.3564 6.11962 36.2252 6.94741C35.7111 7.31696 35.1235 7.74564 34.8591 8.29257C33.111 11.8846 30.8928 15.3436 31.1719 19.6156C31.2601 21.0051 30.7165 22.4241 31.407 23.9023L31.4217 23.8728Z" fill="black"/>
</g>
<defs>
<clipPath id="clip0_1181_763">
<rect width="54" height="100" fill="white"/>
</clipPath>
</defs>
</svg>
