<svg width="29" height="40" viewBox="0 0 29 40" fill="none" xmlns="http://www.w3.org/2000/svg">
<g clip-path="url(#clip0_1181_776)">
<path fill-rule="evenodd" clip-rule="evenodd" d="M20.49 34.08C21.13 30.95 21.65 28.15 22.28 25.37C22.91 22.6 23.65 19.85 24.35 17.02C23.28 16.65 22.25 16.43 21.35 15.95C20.52 15.51 19.91 14.68 19.1 14.21C16.5 12.73 14.27 10.8 12.15 8.73004C11.97 8.55004 11.67 8.50004 11.23 8.31004C10.84 9.59004 11.05 10.8 11.05 12C11.05 13.24 11.11 14.48 11.1 15.72C11.1 16.87 11.03 18.01 11.01 19.15C11 20.39 11.06 21.63 11.02 22.87C10.98 24.09 10.86 25.32 10.78 26.5C8.95002 27.31 7.31002 28.04 5.66002 28.76C4.68002 29.19 3.65002 29.35 2.58002 29.2C0.400018 28.89 -0.649981 26.85 0.400019 24.95C0.680019 24.45 1.05002 24.01 1.37002 23.53C2.08002 22.45 3.13002 22.04 4.34002 22.19C5.55002 22.33 6.74002 22.65 7.98002 22.9C8.59002 22.6 8.44002 21.96 8.44002 21.43C8.46002 17.71 8.42002 13.98 8.46002 10.26C8.48002 8.45004 8.58002 6.63004 8.73002 4.83004C8.83002 3.68004 9.08002 2.58004 8.20002 1.57004C8.00002 1.34004 8.08002 0.570041 8.32002 0.310041C8.57002 0.0400407 9.18002 -0.0399593 9.61002 0.0200407C10.05 0.0800407 10.52 0.340041 10.86 0.630041C12.45 1.99004 14.03 3.37004 15.58 4.78004C18.12 7.10004 20.85 9.20004 23.76 11.03C24.85 11.72 26.21 11.97 27.72 12.53C28.37 13.62 28.17 15 27.72 16.38C26.06 21.47 24.6 26.59 24.5 32.01C24.47 33.71 24.09 35.41 23.87 37.11C23.74 38.07 23.17 38.74 22.28 38.93C20.02 39.42 17.71 39.42 15.47 38.93C13.86 38.57 13.01 36.58 13.6 35.02C14.38 32.97 16.2 32.18 18.22 33.03C18.91 33.32 19.58 33.67 20.49 34.09V34.08Z" fill="black"/>
</g>
<defs>
<clipPath id="clip0_1181_776">
<rect width="28.14" height="39.3" fill="white"/>
</clipPath>
</defs>
</svg>
