<svg width="309" height="266" viewBox="0 0 309 266" fill="none" xmlns="http://www.w3.org/2000/svg">
<g clip-path="url(#clip0_1181_778)">
<path fill-rule="evenodd" clip-rule="evenodd" d="M306.622 138.585C303.371 131.498 299.217 124.922 294.852 118.436C289.765 110.898 285.34 102.941 280.313 95.3731C275.556 88.2261 270.951 81.0491 267.369 73.2114C264.9 67.8062 261.95 62.5811 259.181 57.3259C254.455 48.3772 249.096 39.7588 245.243 30.3596C243.678 26.5458 241.3 23.0624 239.133 19.519C236.995 15.9455 234.888 12.342 232.39 9.00869C225.376 -0.360463 219.566 -1.86193 211.077 1.86171C210.836 1.9518 210.596 2.04188 210.355 2.13197C195.274 9.18887 179.681 15.1647 165.171 23.4528C163.847 24.2035 162.402 24.714 161.107 25.2846C160.174 24.7441 159.362 24.5038 158.85 23.9633C155.328 20.1496 151.716 16.3959 148.434 12.402C145.153 8.37808 141.12 6.78652 136.062 7.4772C133.233 7.86758 130.343 7.95767 127.574 8.58828C113.576 11.8014 100.09 16.4259 87.0859 22.5219C84.7379 23.633 82.4201 24.8642 79.9818 25.735C69.7771 29.4587 61.4388 36.1252 53.1606 42.8518C51.0836 44.5334 49.2775 47.3862 48.7657 49.9687C47.0198 59.2178 46.2973 68.5269 50.3611 77.5056C51.6254 80.3284 52.8897 83.1512 54.154 85.9439C52.077 89.6976 49.157 90.4183 46.6284 91.6194C36.484 96.3941 26.6104 101.559 17.4292 108.076C13.847 110.628 9.75314 112.43 6.17096 115.012C2.28777 117.835 -0.842869 121.409 0.210711 126.754C1.08368 131.318 1.65562 136.063 3.43166 140.297C8.36843 152.038 13.5159 163.69 19.2354 175.071C25.1956 186.873 32.36 198.104 38.2299 209.935C45.7254 225.1 54.4249 239.544 63.275 253.928C65.021 256.811 67.2485 259.393 69.3256 262.066C71.7338 265.159 74.6236 266.48 78.8379 265.79C82.4803 265.219 85.9119 264.528 89.2834 262.967C96.5983 259.574 104.064 256.481 111.409 253.147C126.068 246.451 141.12 240.475 154.635 231.496C157.014 229.905 159.452 228.403 161.83 226.842C174.202 218.674 186.544 210.506 198.886 202.338C202.137 200.176 205.237 197.773 208.579 195.821C215.111 192.068 221.944 188.794 228.386 184.861C246.447 173.87 265.773 165.492 285.129 157.143C291.089 154.561 297.049 151.918 302.98 149.306C305.388 148.255 307.645 147.024 309 143.901C308.308 142.309 307.465 140.447 306.622 138.585ZM257.947 85.1331C260.054 89.127 259.843 93.1209 258.157 97.1448C257.766 98.1058 257.405 99.0967 256.983 100.028C251.565 112.61 246.809 117.024 233.744 121.108C232.028 121.649 230.162 121.979 228.386 121.859C212.944 120.988 201.023 113.871 193.347 100.568C189.494 93.9017 189.735 86.1541 189.644 78.5567C189.584 72.1004 192.715 66.7852 195.063 61.1997C195.785 59.488 197.772 58.0166 199.518 57.1157C209.903 51.7104 220.83 50.5693 232.059 53.8425C234.738 54.6233 237.296 56.1848 239.584 57.8364C246.718 62.9714 252.197 69.4278 254.154 76.6949C255.809 80.3885 256.742 82.8208 257.947 85.1031V85.1331ZM176.851 24.2336C188.26 18.6181 199.939 13.5131 211.619 8.4982C219.988 4.9247 223.54 6.15591 228.356 14.2038C232.48 21.0805 236.303 28.1674 239.945 35.3144C243.798 42.9118 247.26 50.6894 250.872 58.3469C249.578 59.458 248.765 58.5271 247.983 58.0166C246.899 57.2959 245.876 56.4851 244.912 55.6143C233.383 45.4944 220.349 44.3232 206.381 49.3982C203.702 50.3591 201.113 51.6203 198.555 52.8816C196.237 54.0227 194.039 55.374 192.625 57.7463C191.992 58.8274 191.119 60.1487 190.036 60.5691C185.942 62.1306 185.189 65.614 184.437 69.2476C183.865 71.9802 183.293 74.7129 182.721 77.4756C181.848 77.2654 181.125 77.2954 180.975 77.0252C173.329 63.4819 166.526 49.5183 159.873 34.8339C165.051 29.759 171.071 27.1164 176.821 24.2936L176.851 24.2336ZM52.8897 68.1065C52.6188 67.3858 52.3178 66.5449 52.4382 65.8543C53.3714 60.7793 54.2744 55.7043 55.5688 50.7195C55.9903 49.1279 57.375 47.5664 58.6995 46.4253C65.4123 40.6897 72.396 35.3144 80.7945 32.0712C83.4436 31.0502 86.1227 29.9692 88.6512 28.6479C100.03 22.7021 112.342 19.4589 124.533 15.8854C128.717 14.6542 133.203 14.2038 137.567 13.8434C139.193 13.6933 141.421 14.2939 142.534 15.4049C146.207 19.0385 149.548 23.0324 152.92 26.9362C153.371 27.4467 153.401 28.3776 153.702 29.3386C151.384 32.3115 147.893 33.3925 144.491 35.0441C138.591 31.861 134.617 25.7651 127.453 23.7231C108.579 32.1313 89.4038 40.6897 69.8674 49.3982C67.3689 58.6172 66.8271 67.5359 73.6904 76.0642C69.4962 81.3294 64.4992 83.6617 58.6995 83.0611C56.8331 78.2864 54.8464 73.2415 52.8897 68.1965V68.1065ZM137.598 38.948C136.062 40.2092 134.648 41.7107 132.932 42.7016C116.135 52.5513 99.2774 62.3108 82.4502 72.0703C82.0588 72.2805 81.4869 72.1905 80.5236 72.2805C78.8981 69.0974 77.2726 65.7041 74.7741 62.7012C71.9746 59.3379 74.1419 53.5122 78.2057 51.5303C81.9384 49.6985 85.8216 48.197 89.6145 46.4853C99.7891 41.8908 109.964 37.2663 120.168 32.7019C122.516 31.6508 124.985 30.8701 127.152 30.0593C131.447 32.4216 134.939 35.3845 137.628 38.948H137.598ZM23.3293 166.092C16.4057 151.648 8.81997 137.444 7.40516 120.658C11.8001 117.745 16.4961 115.042 20.7706 111.769C30.8247 104.022 42.6248 99.9075 54.3045 95.5833C57.3449 94.4422 60.6862 94.1419 64.0577 93.4512C67.8807 100.418 71.5832 107.505 75.647 114.382C79.5905 121.018 83.9854 127.414 88.1094 133.841C86.4538 135.552 85.5206 134.171 84.4971 133.721C76.7006 130.147 68.6934 128.676 60.2648 131.138C59.753 131.288 59.2714 131.408 58.7597 131.558C53.6423 133.12 50.03 137.054 45.6652 139.787C41.2401 142.579 36.6947 144.922 34.0758 149.726C33.7146 150.417 33.263 151.078 32.6911 151.618C28.2058 156.002 26.0686 161.408 25.6772 167.474C24.1119 168.044 23.6905 166.963 23.2992 166.092H23.3293ZM34.7982 178.344C31.788 172.549 32.6309 166.182 32.9018 160.026C32.962 158.675 34.1661 157.204 35.1896 156.092C39.0728 151.918 43.0764 147.834 47.0499 143.75C47.7723 143 48.5851 142.369 49.3979 141.708C62.3719 131.168 81.0053 131.258 92.7753 148.225C93.9492 149.936 94.9727 151.738 95.936 153.6C96.8993 155.432 97.6518 157.354 98.4947 159.276C101.716 165.942 103.161 172.939 102.95 180.386C102.709 188.644 99.0064 195.311 93.6783 201.257C92.8355 202.188 91.7217 203.028 90.5477 203.509C78.9282 208.313 67.6398 208.974 56.1709 202.368C46.2672 196.632 39.8253 188.224 34.7681 178.434L34.7982 178.344ZM137.507 232.727C120.77 240.505 103.943 248.102 87.1461 255.76C83.4737 257.441 79.6808 257.712 75.5266 257.141C63.6964 240.115 52.4683 222.728 44.2805 203.509C46.0866 202.758 47.2004 204.049 48.4647 204.83C50.6923 206.151 52.8295 207.653 55.1173 208.914C66.3153 215.1 77.9649 215.34 89.7951 211.016C100.331 207.142 105.599 198.614 108.097 188.374C109.572 182.338 109.813 176.032 108.037 169.846C107.706 168.705 107.766 167.444 107.465 164.441C114.991 175.882 121.312 185.882 128.055 195.611C134.858 205.401 142.083 214.89 149.368 224.86C146.147 228.193 141.932 230.685 137.537 232.697L137.507 232.727ZM200.722 191.917C194.28 195.791 188.41 200.596 182.179 204.8C175.948 209.004 169.566 213.088 163.215 217.112C161.047 218.463 158.729 219.544 156.682 220.626C153.04 218.734 151.023 216.001 149.036 213.298C145.484 208.524 141.993 203.659 138.621 198.764C132.119 189.365 125.647 179.966 119.295 170.477C110.626 157.534 102.077 144.501 93.4074 131.558C88.6512 124.442 83.6543 117.475 78.868 110.358C74.5333 103.901 71.0113 96.9947 68.0613 90.3882C68.8439 87.4153 70.7404 86.4844 72.6368 85.6436C77.4231 83.5716 81.7277 80.8089 86.0022 77.7459C92.113 73.3916 98.7957 69.7581 105.298 65.9143C120.981 56.6653 136.664 47.4763 152.378 38.2873C153.04 37.8969 153.823 37.7768 154.936 37.3864C155.749 38.5876 156.743 39.7287 157.345 41.05C159.602 46.0349 161.83 50.9897 163.847 56.0647C167.7 65.7642 172.817 74.773 177.604 84.022C182.721 93.9317 187.236 104.172 191.872 114.322C200.331 133 208.639 151.768 217.068 170.507C217.64 171.738 218.212 172.999 218.934 174.14C219.054 176.182 219.807 178.434 221.282 179.876C214.389 183.81 207.555 187.773 200.782 191.887L200.722 191.917ZM288.771 146.903C271.854 154.921 254.244 161.438 237.838 170.537C234.196 172.549 230.553 174.621 226.911 176.693C226.58 176.152 226.189 175.702 225.857 175.251C225.767 174.681 225.647 174.08 225.496 173.509C225.496 173.419 225.526 173.329 225.526 173.239C225.526 172.008 225.045 170.687 224.503 169.546C220.891 161.798 217.158 154.05 213.546 146.303C210.686 140.177 207.856 134.051 205.087 127.925C204.274 126.123 203.401 124.261 203.01 121.499C204.635 121.919 205.629 121.979 206.381 122.43C211.438 125.282 217.007 126.724 222.606 127.805C225.857 128.435 229.5 128.886 232.63 128.105C248.464 124.021 260.475 115.523 264.479 98.5863C265.081 96.0638 265.803 93.5714 266.496 91.0789C266.556 90.8387 266.797 90.6585 267.007 90.3882C268.783 89.9979 268.994 91.6795 269.566 92.6104C273.81 99.4571 277.934 106.394 282.179 113.211C285.069 117.835 288.199 122.309 291.119 126.904C294.039 131.498 296.508 136.303 298.464 141.558C295.364 144.201 291.962 145.402 288.741 146.934L288.771 146.903Z" fill="black"/>
<path fill-rule="evenodd" clip-rule="evenodd" d="M178.175 113.241C176.971 113.511 175.376 113.661 173.991 114.262C165.201 118.075 156.291 121.649 148.284 127.174C142.294 131.288 135.942 134.832 129.861 138.826C125.737 141.528 121.824 144.501 117.85 147.414C117.248 147.835 116.857 148.525 115.864 149.606C118.964 149.967 120.65 150.147 122.577 150.387C125.948 155.732 128.988 161.468 132.902 166.543C140.397 176.212 145.725 187.203 152.649 197.173C155.478 201.287 157.766 202.128 161.499 198.975C164.961 196.032 168.904 194.23 172.938 192.428C180.764 188.915 188.591 185.431 196.417 181.918C198.073 181.167 199.789 180.506 201.354 179.606C204.364 177.954 205.388 175.882 204.605 172.519C204.094 170.266 203.13 168.104 202.227 165.972C199.819 160.267 196.387 154.771 195.063 148.826C192.715 138.555 187.838 129.427 183.744 119.937C182.631 117.325 181.306 114.772 178.175 113.211V113.241ZM188.892 143.09C190.066 150.327 192.865 156.993 195.936 163.6C197.32 166.603 199.066 169.546 199.307 173.42C198.163 174.23 197.019 175.281 195.695 175.882C186.965 179.876 178.145 183.69 169.416 187.714C165.683 189.425 162.071 191.407 157.585 193.659C150.933 183.419 144.34 173.269 137.567 162.819C139.073 160.477 141.992 159.906 144.401 158.615C151.294 154.982 158.338 151.648 165.051 147.744C171.824 143.841 179.018 141.048 186.634 137.865C187.537 139.877 188.621 141.408 188.892 143.06V143.09ZM183.925 131.859C180.252 133.721 176.911 135.703 173.329 137.144C167.278 139.606 161.83 143.03 156.351 146.513C149.518 150.837 141.992 153.69 134.045 156.963C131.035 153.6 127.573 151.618 125.587 147.474C128.236 145.732 130.764 143.961 133.383 142.339C139.554 138.525 145.876 134.922 151.956 130.958C159.632 125.973 167.971 122.43 176.46 119.217C176.881 119.066 177.453 119.277 178.597 119.397C180.463 123.18 182.661 127.204 183.925 131.859Z" fill="black"/>
<path fill-rule="evenodd" clip-rule="evenodd" d="M108.79 107.535C114.72 104.893 120.77 102.31 126.098 98.7366C130.463 95.8238 134.949 93.3914 139.675 91.2893C143.949 89.3675 148.254 87.5657 152.468 85.5838C154.033 84.833 155.448 83.752 157.014 82.761C155.99 77.8362 154.455 73.572 150.331 69.2778C139.795 73.9324 129.38 77.8662 119.867 83.752C116.345 85.9141 112.763 87.9561 109.091 89.8479C105.629 91.6197 102.017 93.0911 98.4947 94.7427C96.3875 95.7037 94.2503 96.6946 93.2569 99.2471C93.9794 100.448 94.7018 101.77 95.5447 103.001C98.8559 107.926 103.732 109.787 108.82 107.535H108.79ZM103.492 97.9559C105.298 97.1451 107.224 96.4244 109.031 95.4634C113.847 92.941 118.844 90.6287 123.419 87.6858C130.704 83.0012 138.772 80.0884 146.628 76.6651C148.796 75.7041 150.06 76.9053 150.511 80.0884C146.959 81.77 143.769 83.5117 140.427 84.833C134.106 87.3555 128.176 90.5086 122.787 94.6226C118.121 98.1661 112.583 99.6976 107.254 101.77C105.177 102.58 104.636 101.95 103.462 97.9559H103.492Z" fill="black"/>
<path fill-rule="evenodd" clip-rule="evenodd" d="M275.195 127.024C271.613 128.466 268.091 130.087 264.569 131.709C257.465 134.952 256.05 137.474 259.993 145.763C260.415 146.663 261.077 147.504 261.679 148.345C263.094 150.207 265.021 150.838 267.158 150.057C269.807 149.066 272.335 147.805 274.924 146.633C274.954 146.724 275.015 146.814 275.045 146.904C277.814 145.522 280.644 144.231 283.293 142.7C285.4 141.468 285.942 139.667 284.978 137.384C283.804 134.532 282.51 131.739 281.035 129.006C279.741 126.604 277.754 125.943 275.135 127.024H275.195ZM265.592 144.471C264.479 142.249 263.666 140.718 263.004 139.366C263.395 138.616 263.485 137.985 263.816 137.745C267.639 135.132 272.004 133.781 276.64 131.949C277.724 134.111 278.597 135.793 279.5 137.625C275.466 141.228 270.8 142.429 265.592 144.471Z" fill="black"/>
<path fill-rule="evenodd" clip-rule="evenodd" d="M240.397 142.849C236.183 145.762 232.119 148.885 227.784 152.069C227.212 155.342 228.717 158.405 230.012 161.438C231.366 164.561 233.142 165.432 236.183 164.02C240.216 162.158 244.37 161.077 248.765 160.387C250.391 160.146 251.866 158.855 253.612 157.954C253.16 154.861 252.859 152.099 252.347 149.336C252.107 148.105 251.595 146.873 251.053 145.702C248.675 140.627 245.123 139.606 240.457 142.849H240.397ZM247.712 154.261C243.226 155.612 239.795 156.663 236.333 157.654C234.617 158.134 234.527 158.014 232.209 154.861C235.821 152.129 239.434 149.366 243.106 146.663C244.431 145.702 246.508 146.333 246.869 147.894C247.32 149.846 247.411 151.858 247.712 154.231V154.261Z" fill="black"/>
<path fill-rule="evenodd" clip-rule="evenodd" d="M149.337 98.7666C148.314 100.208 147.531 101.83 146.658 103.331C146.869 104.232 146.929 105.043 147.26 105.703C150.241 111.649 153.13 112.7 159.121 110.088C160.505 109.487 161.77 108.616 163.666 107.565C162.582 103.541 161.649 100.328 159.121 97.8958C155.749 94.6226 152.047 94.9529 149.307 98.7666H149.337Z" fill="black"/>
<path fill-rule="evenodd" clip-rule="evenodd" d="M114.599 115.913C117.038 121.318 119.205 126.213 121.433 131.198C124.985 130.207 126.008 127.414 127.905 124.862C126.67 122.129 125.587 119.216 124.112 116.484C121.914 112.4 119.295 112.28 114.599 115.913Z" fill="black"/>
<path fill-rule="evenodd" clip-rule="evenodd" d="M137.387 117.054C139.494 118.766 140.999 118.286 143.588 115.373C141.661 109.407 139.183 104.963 136.153 102.04C133.775 102.61 131.306 103.211 129.47 106.694C131.878 108.646 133.865 110.538 134.527 113.511C134.798 114.832 136.213 116.094 137.387 117.024V117.054Z" fill="black"/>
<path fill-rule="evenodd" clip-rule="evenodd" d="M122.667 208.884C121.282 209.605 119.958 210.446 118.693 211.317C114.69 214.109 110.686 216.932 106.442 219.935C106.622 223.749 107.947 227.322 110.054 230.625C110.987 232.067 112.462 232.758 114.088 232.127C120.801 229.484 127.483 226.692 133.985 223.178C133.534 219.665 133.353 216.572 132.691 213.569C131.246 207.263 128.236 205.911 122.667 208.854V208.884ZM127.754 219.455C123.931 222.548 119.747 223.899 115.683 225.52C113.636 226.331 113.245 225.911 111.469 221.707C117.188 219.575 120.62 214.32 127.182 213.509C127.393 215.731 127.574 217.653 127.724 219.455H127.754Z" fill="black"/>
<path fill-rule="evenodd" clip-rule="evenodd" d="M90.939 226.481C88.1997 229.064 84.9788 230.505 81.6675 232.007C73.871 235.55 73.269 237.142 76.5501 245.07C76.9414 246.031 77.3027 246.991 77.7843 247.892C79.3797 250.895 80.9752 251.646 84.1359 250.325C89.3737 248.103 94.5212 245.7 99.6386 243.238C100.722 242.727 101.535 241.646 102.829 240.535C100.933 236.181 99.2472 231.857 97.1702 227.743C95.635 224.68 93.3472 224.199 90.939 226.481ZM96.538 238.553C91.9926 241.196 87.688 243.268 82.6308 244.529C81.4267 242.817 80.3129 241.196 79.1389 239.514C79.8614 238.673 80.1925 237.893 80.7945 237.592C84.7379 235.73 88.7415 233.989 92.8656 232.157C95.2737 233.088 95.6651 235.43 96.5079 238.523L96.538 238.553Z" fill="black"/>
<path fill-rule="evenodd" clip-rule="evenodd" d="M185.25 49.188C188.892 49.3381 192.564 49.6384 195.785 47.4763C200.511 46.0349 203.943 42.9419 206.622 39.008C207.826 37.2663 208.579 35.3144 207.977 33.1223C206.803 28.8881 200.993 25.7351 196.899 27.3266C193.046 28.8281 189.223 30.5398 185.52 32.4316C180.584 34.924 178.597 40.5095 180.584 45.6745C181.396 47.7766 182.902 49.0979 185.25 49.218V49.188ZM184.377 39.0981C189.313 36.8759 194.25 34.6838 199.307 32.7619C200.03 32.4917 201.324 33.7529 202.619 34.4436C198.976 41.1701 193.829 44.2331 186.664 43.8728C185.942 43.8428 185.189 43.5124 184.557 43.1521C183.413 42.5215 183.203 39.6386 184.377 39.0981Z" fill="black"/>
<path fill-rule="evenodd" clip-rule="evenodd" d="M37.2967 133.931C42.5345 131.679 47.7422 129.336 52.8897 126.814C54.8464 125.853 56.2311 123.781 55.7193 121.679C54.726 117.445 53.5219 113.121 49.3978 110.388C42.4141 111.709 37.3268 116.244 32.1191 120.478C29.7109 122.46 29.5303 125.553 29.5303 128.285C29.5303 131.439 33.835 135.402 37.2967 133.901V133.931ZM34.5574 124.081C38.6513 120.718 42.5044 116.754 48.8259 115.733C49.6688 117.415 50.3912 118.496 50.7826 119.697C51.2341 121.018 50.9632 122.4 49.6989 123.06C44.9728 125.523 40.4274 128.466 35.0993 129.006C33.2028 127.294 33.0824 125.252 34.5574 124.051V124.081Z" fill="black"/>
<path fill-rule="evenodd" clip-rule="evenodd" d="M66.1046 144.141C62.6127 145.883 58.9403 147.264 55.5387 149.126C50.1203 152.099 48.0131 157.414 46.4779 162.999C46.2973 163.69 46.4779 164.561 46.7488 165.282C48.856 171.107 50.9933 176.933 53.5219 183.81C54.0035 184.891 54.8765 187.083 55.93 189.155C57.5255 192.248 59.9035 194.71 63.3051 195.671C67.0378 196.752 70.8608 197.563 74.7139 198.224C75.918 198.434 77.3328 198.104 78.4766 197.653C80.8848 196.662 83.5037 195.821 85.4303 194.2C94.5212 186.632 98.5248 182.969 94.7319 172.038C94.5814 171.558 94.4911 171.017 94.4309 170.507C92.5946 158.105 84.9787 150.117 74.2623 144.591C71.7036 143.27 68.9342 142.699 66.0444 144.141H66.1046ZM87.6578 166.993C88.0492 168.495 88.5609 169.966 88.8619 171.498C90.9691 182.819 90.4273 181.047 82.9318 188.104C78.6874 192.128 68.874 192.218 63.9974 188.764C62.974 188.044 62.0709 186.993 61.499 185.882C60.2949 183.599 59.3316 181.167 57.8566 177.894C54.0336 172.669 54.5152 165.492 53.7627 158.585C53.4918 156.153 54.5754 154.471 56.5622 153.54C59.8433 151.979 63.1847 150.477 66.6163 149.366C69.175 148.525 71.7337 149.366 74.0516 150.747C80.5236 154.561 85.641 159.486 87.6578 166.993Z" fill="black"/>
<path fill-rule="evenodd" clip-rule="evenodd" d="M247.11 84.2023C246.146 82.0702 245.394 79.818 244.22 77.8361C240.006 70.7491 234.406 65.1337 226.73 61.7704C222.697 59.9986 218.663 60.0587 214.599 61.6503C212.823 62.3409 199.969 72.5209 198.916 74.0824C195.906 78.5568 196.116 83.4816 197.411 88.3163C199.638 96.7546 204.364 103.992 209.693 110.718C214.991 117.415 224.984 119.727 233.082 116.754C235.039 116.033 236.965 115.193 238.771 114.202C248.856 108.646 255.087 98.4062 248.464 86.1542C248.103 85.4635 247.772 84.7728 247.411 84.0822C247.32 84.1122 247.26 84.1723 247.17 84.2023H247.11ZM243.859 89.4875C246.628 96.1239 244.701 101.649 239.614 106.274C236.092 109.487 231.727 111.409 227.092 112.1C222.185 112.82 217.67 111.109 214.689 107.115C210.867 101.95 207.375 96.4843 204.094 90.9289C201.715 86.9049 201.475 82.5206 204.214 78.4667C206.652 74.8632 209.03 71.1395 212.101 68.1066C214.75 65.494 218.543 65.0436 222.335 65.7643C226.58 66.5751 230.072 68.7071 232.962 71.8002C236.694 75.7941 239.915 80.1183 241.962 85.2533C242.594 86.6647 243.257 88.0761 243.859 89.4875Z" fill="black"/>
<path fill-rule="evenodd" clip-rule="evenodd" d="M151.746 136.934C150.451 138.195 150.511 139.697 151.595 141.048C152.498 142.189 154.696 142.549 155.779 141.709C157.164 140.627 157.495 139.186 156.532 137.685C156.02 136.844 155.207 136.213 154.365 135.282C153.371 135.883 152.438 136.273 151.746 136.964V136.934Z" fill="black"/>
<path fill-rule="evenodd" clip-rule="evenodd" d="M166.255 132.219C167.038 133.541 168.753 133.751 170.168 132.49C170.77 131.949 170.951 130.928 171.643 129.487C169.566 129.186 168.031 128.496 166.827 128.886C165.593 129.306 165.472 130.898 166.225 132.189L166.255 132.219Z" fill="black"/>
<path fill-rule="evenodd" clip-rule="evenodd" d="M139.614 145.192C138.832 145.702 137.808 146.243 137.537 147.024C137.266 147.835 137.688 148.916 137.989 149.847C138.049 150.027 139.193 150.147 139.283 149.967C140.006 148.765 140.608 147.474 141.21 146.303C140.367 145.702 139.765 145.072 139.614 145.162V145.192Z" fill="black"/>
<path fill-rule="evenodd" clip-rule="evenodd" d="M68.6031 164.801C66.6164 164.921 65.322 166.002 64.2985 167.654C62.0709 171.288 63.4255 174.621 64.8403 177.534C65.3521 178.675 65.623 179.395 65.9842 180.086C67.9409 183.81 70.5297 184.951 74.2925 182.939C76.7307 181.648 78.7175 179.486 80.7645 177.564C82.0287 176.393 81.9384 174.771 81.4267 173.209C79.8915 168.615 73.6001 164.471 68.6031 164.801ZM75.5869 173.63C75.5869 173.36 75.5568 173.119 75.5267 172.849C75.6471 172.999 75.7976 173.149 75.918 173.3C75.7976 173.42 75.6772 173.51 75.5568 173.63H75.5869Z" fill="black"/>
<path fill-rule="evenodd" clip-rule="evenodd" d="M213.726 88.3163C212.342 90.6286 211.95 93.0609 212.432 95.7336C213.636 102.7 217.549 104.923 224.503 102.04C224.533 102.04 225.015 101.83 225.466 101.589C229.831 99.3371 231.968 95.7636 231.155 91.6496C230.222 86.965 227.302 83.8419 222.847 82.2804C220.228 81.3795 216.074 84.3224 213.726 88.2863V88.3163Z" fill="black"/>
</g>
<defs>
<clipPath id="clip0_1181_778">
<rect width="309" height="266" fill="white"/>
</clipPath>
</defs>
</svg>
