<svg width="132" height="135" viewBox="0 0 132 135" fill="none" xmlns="http://www.w3.org/2000/svg">
<g clip-path="url(#clip0_1181_765)">
<path fill-rule="evenodd" clip-rule="evenodd" d="M5.22044 91.1653C4.23942 94.1715 2.7854 96.9156 0.875912 99.4149C0.437956 99.9742 0.262774 100.726 0 101.32C0.665693 103.173 2.17226 103.942 3.52117 104.816C8.91679 108.294 14.3299 111.719 19.7431 115.18C19.9883 115.337 20.2336 115.53 20.5139 115.634C26.2248 117.837 31.3226 121.35 37.1737 123.237C41.1854 124.531 44.8818 126.453 48.438 128.656C50.9781 130.229 53.5007 131.819 56.0759 133.34C60.1577 135.734 63.5737 135.612 67.235 132.623C69.4073 130.84 71.4219 128.795 73.2613 126.663C75.311 124.304 77.1329 121.752 78.9898 119.235C86.5752 109.063 93.3022 98.3488 99.9942 87.5823C108.508 73.9145 117.074 60.2817 125.553 46.5964C127.585 43.3106 129.425 39.8849 131.334 36.5116C131.615 36.0048 131.72 35.4105 132 34.5541C129.88 32.7888 127.831 30.8662 125.571 29.2408C122.663 27.1609 119.667 25.2208 116.251 23.9624C114.447 23.2983 112.782 22.2496 111.083 21.3058C104.041 17.3907 97.0336 13.4407 89.9912 9.50813C89.2029 9.07118 88.362 8.7391 87.6263 8.23223C82.5109 4.73664 76.8175 2.6218 71.019 0.61183C66.2715 -1.0311 63.1007 0.926434 60.6482 3.60057C60.4555 3.82778 60.2803 4.07247 60.1226 4.31716C56.619 9.85769 53.1504 15.3982 49.6467 20.9213C47.2467 24.6965 44.8292 28.4543 42.4292 32.212C35.4394 43.1358 28.4496 54.0246 21.4949 64.9658C16.6248 72.6212 11.7898 80.3289 6.95474 88.0193C6.32409 89.033 5.60584 90.0292 5.23796 91.1478L5.22044 91.1653ZM63.2409 6.60678C64.6949 4.82403 66.5343 3.39083 69.0394 4.2123C74.1372 5.89018 79.2876 7.39329 83.8423 10.382C86.2073 11.9376 88.6599 13.4057 91.2175 14.5942C96.6657 17.0936 101.658 20.3445 106.774 23.4206C109.314 24.9587 111.994 26.287 114.674 27.5629C119.422 29.7826 123.959 32.2994 128.199 35.8999C126.815 38.1021 125.641 39.9897 124.45 41.8424C120.35 48.2219 116.234 54.5839 112.134 60.9459C106.809 69.1955 101.466 77.4276 96.1226 85.6772C89.2555 96.2864 82.8964 107.245 75.0131 117.173C72.5256 120.319 70.1606 123.569 67.9533 126.925C66.0613 129.827 63.4511 130.194 60.3328 130.001C58.073 129.879 56.3912 128.795 54.6219 127.694C49.9445 124.793 45.5474 121.367 40.2394 119.619C36.981 118.536 33.8628 117.19 30.7445 115.739C22.7212 112.051 15.2759 107.385 7.90073 102.596C7.18248 102.141 6.60438 101.477 5.78102 100.761C6.74453 99.0654 7.74307 97.5797 8.46131 95.9892C9.24963 94.2414 9.7927 92.3713 10.4759 90.5711C10.6336 90.1691 10.9314 89.7845 11.1591 89.4175C15.346 82.7409 19.5504 76.0468 23.7372 69.3528C35.9299 49.9172 48.1051 30.4817 60.2978 11.0462C61.2438 9.52561 62.1197 7.93511 63.2409 6.57183V6.60678Z" fill="black"/>
<path fill-rule="evenodd" clip-rule="evenodd" d="M29.1153 82.4788C24.9285 86.4637 23.5445 90.7109 26.3124 96.9331C28.1694 101.093 30.6219 104.641 33.9504 107.734C36.5606 110.164 38.8029 112.995 42.0788 114.429C44.6891 116.439 47.457 117.854 50.6803 118.134C59.0365 118.868 66.2716 116.351 72.2102 110.444C73.9796 108.678 75.5387 106.598 75.4511 103.819C77.2555 99.3101 76.1343 94.7483 75.5913 90.2215C75.1358 86.4288 73.6292 83.0031 71.0015 80.2591C68.6715 77.8296 66.8672 74.9458 64.0117 72.9358C60.4205 70.4015 56.584 70.2966 52.5723 70.8734C50.5226 71.1705 48.5606 71.8172 46.4059 71.59C45.3022 71.4676 44.0234 71.8696 42.9898 72.3765C40.3095 73.6699 37.7168 75.1205 35.1416 76.6062C34.2657 77.113 33.5124 77.8995 32.7942 78.6161C31.5504 79.8745 30.4117 81.2728 29.1329 82.4962L29.1153 82.4788ZM29.2205 87.5998C31.4453 84.2615 34.038 81.2029 37.3489 78.8783C38.8029 77.8471 40.3621 76.9732 41.9037 76.0643C43.8657 74.9108 45.8803 74.1418 48.2628 74.4913C49.2263 74.6311 50.2949 74.2641 51.2934 74.0369C55.7606 73.0057 59.8073 73.8097 63.4686 76.5887C65.6234 78.2491 67.1299 80.4164 68.7416 82.5662C70.3533 84.716 72.2978 86.5511 71.7723 89.6098C71.6672 90.2565 72.2278 90.9906 72.438 91.7071C72.911 93.42 73.5066 95.1328 73.7694 96.8806C73.9621 98.174 74.1197 99.747 73.5416 100.813C71.9825 103.645 70.8438 106.791 68.3212 109.01C63.1883 113.52 57.0394 114.778 50.4175 114.271C49.5591 114.201 48.7007 113.817 47.9124 113.432C46.581 112.768 45.3022 111.999 44.0059 111.265C39.5562 108.678 36.0876 104.973 32.9343 101.058C31.3752 99.1353 30.2365 96.7758 29.2905 94.4512C28.3796 92.2664 27.8015 89.7846 29.238 87.5998H29.2205Z" fill="black"/>
<path fill-rule="evenodd" clip-rule="evenodd" d="M100.958 54.2518C100.625 50.4066 100.082 46.544 99.1007 42.8211C98.2774 39.7625 95.8949 37.4904 93.3547 35.6202C91.9358 34.5715 90.3066 33.8025 88.7825 32.9111C83.2817 29.6952 77.5358 28.3319 71.1766 30.0273C69.0744 30.5866 67.3226 31.4954 65.7285 32.9111C62.6628 35.6202 60.473 38.9935 58.2657 42.3492C57.7927 43.1008 57.4248 43.9747 56.8117 44.6039C54.5168 46.9285 54.0263 49.7424 54.1489 52.836C54.2015 54.3217 54.0613 55.8073 53.9912 57.2929C53.781 60.9633 55.2701 63.952 57.7577 66.5213C61.5942 70.4539 66.289 73.0581 71.5095 74.5787C76.5547 76.0468 88.3971 74.0543 92.7241 71.0306C98.5051 66.9932 101.606 61.4352 100.975 54.2692L100.958 54.2518ZM85.6117 69.6673C83.5796 70.1043 81.5299 70.5762 79.4803 70.8908C78.0263 71.1005 76.5197 71.2404 75.0482 71.118C69.6 70.6461 65.3255 67.6749 61.1912 64.4589C60.6306 64.022 60.2102 63.3403 59.8073 62.7286C57.4949 59.2854 57.0219 50.9659 58.9839 47.2606C59.6146 46.0721 60.3854 44.9884 61.1036 43.8524C61.0511 43.8174 60.981 43.765 60.9285 43.73C62.3474 41.8249 63.8015 39.9548 65.1679 37.9972C67.9883 33.9598 72.0876 32.579 76.7299 32.3169C79.4452 32.1596 82.0555 32.7189 84.5781 33.7501C87.2409 34.8337 89.3956 36.6339 91.708 38.2594C94.0905 39.9548 95.2993 42.2094 95.8774 44.8661C96.7883 49.0957 96.981 53.4303 96.5606 57.7124C95.9825 63.7947 91.6555 68.374 85.6292 69.6673H85.6117Z" fill="black"/>
<path fill-rule="evenodd" clip-rule="evenodd" d="M102.324 34.9036C101.763 34.8162 101.168 34.0996 100.853 33.5228C100.59 33.0684 100.73 32.3868 100.677 31.6876C101.483 31.0934 102.254 30.3768 103.147 29.9224C103.55 29.7126 104.356 29.8874 104.742 30.1845C105.109 30.4817 105.442 31.2507 105.337 31.6876C105.109 32.5091 104.672 33.348 104.111 33.9947C103.691 34.4841 102.885 35.0085 102.342 34.9211L102.324 34.9036Z" fill="black"/>
<path fill-rule="evenodd" clip-rule="evenodd" d="M113.396 40.7413C113.869 38.7838 114.289 36.9835 114.762 35.1833C114.815 34.9736 115.218 34.7638 115.463 34.7463C115.708 34.7289 116.128 34.8687 116.234 35.061C116.934 36.3543 117.337 37.7526 117.25 39.2207C116.058 40.0072 115.48 42.2794 113.396 40.7413Z" fill="black"/>
<path fill-rule="evenodd" clip-rule="evenodd" d="M90.9372 26.0945C91.2175 25.6925 91.8657 25.2731 92.2861 25.3255C93.2321 25.4304 93.8102 27.0034 93.1621 27.7724C92.7942 28.2094 92.0234 28.3317 91.673 28.489C90.5518 27.9122 90.3241 27.0034 90.9372 26.0945Z" fill="black"/>
<path fill-rule="evenodd" clip-rule="evenodd" d="M41.8686 80.8009C39.4511 82.2515 37.7869 84.0692 36.1752 86.2365C34.1431 88.9806 33.8277 92.0042 34.2832 95.1503C34.581 97.1777 35.3694 99.1527 35.9825 101.128C36.0701 101.39 36.2803 101.652 36.508 101.844C38.9431 104.029 41.2029 106.459 43.8657 108.329C46.984 110.513 50.6277 111.37 54.4993 110.601C54.9372 110.513 55.3577 110.339 55.7956 110.269C60.2336 109.476 63.9475 107.641 66.9372 104.763C67.9358 103.802 68.584 102.718 68.7591 101.303C68.9693 99.6771 69.2847 98.0866 69.565 96.4786C70.1431 93.2801 69.2146 90.3264 68.2161 87.4774C66.1256 86.4987 64.4146 85.1004 63.0832 83.2827C62.5577 82.5661 62.0847 81.7971 61.5767 81.0805C57.9679 76.0818 55.3752 76.0643 50.365 77.0256C47.2818 77.6199 44.6015 79.1754 41.8686 80.8183V80.8009ZM39.854 86.7434C40.0642 86.4812 40.6248 85.2577 41.5708 84.681C44.7416 82.7933 47.7548 80.661 51.6088 80.0143C55.1124 79.4201 57.7927 80.1891 59.8774 82.9681C61.8219 85.5549 63.8715 88.0717 65.5883 90.7983C67.8307 94.3638 67.5329 98.8731 64.8526 101.6C62.4 104.099 60.0175 107 55.8657 106.581C55.4453 106.528 54.9898 106.773 54.5518 106.843C50.2774 107.612 46.5985 106.406 43.4453 103.522C42.4467 102.613 41.5708 101.6 40.6599 100.621C37.4715 97.1777 36.9285 91.4799 39.854 86.7084V86.7434Z" fill="black"/>
<path fill-rule="evenodd" clip-rule="evenodd" d="M91.3226 57.1182C92.2861 54.9334 91.9708 52.1719 92.2336 49.69C92.3212 48.8161 92.2336 47.8548 92.5839 47.1033C93.7226 44.7263 92.6365 42.8561 91.0073 41.5802C88.2044 39.378 85.1737 37.4554 82.0905 35.6727C81.1971 35.1483 79.708 35.1833 78.6569 35.4804C74.5051 36.6339 70.2657 37.7176 67.4978 41.4928C67.235 41.8424 66.8847 42.1745 66.5168 42.3842C62.4701 44.8137 61.1212 48.8685 61.0511 53.0458C60.981 57.1706 61.892 61.3828 66.1314 63.7423C66.7795 64.1094 67.3927 64.5288 68.0233 64.9133C68.0233 64.8959 68.0409 64.8784 68.0584 64.8434C68.9518 65.4027 69.8277 65.9445 70.7036 66.5038C72.1401 67.4127 73.6993 67.7972 75.381 67.6923C76.1168 67.6399 76.8701 67.5525 77.6058 67.5525C84.6832 67.3777 88.7299 62.9908 91.3051 57.1356L91.3226 57.1182ZM86.5401 58.4465C83.8598 62.2567 80.2861 64.2142 75.5036 63.9171C71.8248 63.6724 68.9518 61.6974 66.6219 59.2854C64.0292 56.6113 64.0117 50.0396 66.3416 47.0858C69.5299 43.0659 73.4365 39.8499 78.6219 38.6789C79.708 38.4342 81.1095 38.4517 82.073 38.9236C84.8233 40.3393 87.5912 41.79 89.8336 43.5902C89.2029 47.2431 88.4496 50.5639 88.1168 53.9197C87.9416 55.6325 87.5036 57.0832 86.5401 58.4465Z" fill="black"/>
<path fill-rule="evenodd" clip-rule="evenodd" d="M59.6847 92.0741C59.8424 92.581 59.8248 93.3151 59.5796 93.7695C58.8613 95.0454 58.0555 96.3038 57.127 97.4224C56.3212 98.4012 55.1124 98.6808 53.9037 98.2963C52.9402 97.9817 52.0117 97.4748 50.9256 96.9854C50.2774 96.3737 49.419 95.7445 48.8059 94.9405C47.1767 92.8082 47.5095 91.008 49.3489 89.0504C51.9767 86.254 58.1956 87.2152 59.6847 92.0566V92.0741Z" fill="black"/>
<path fill-rule="evenodd" clip-rule="evenodd" d="M80.0935 54.8458C79.3051 55.9819 78.184 56.4014 77.0102 55.947C74.8029 55.0905 73.2438 53.535 72.5781 51.2629C71.8949 48.9033 74.9081 44.8135 77.3431 44.6387C77.6409 44.6212 77.9562 44.6037 78.219 44.7086C82.2307 46.3341 84.5781 48.1168 81.6701 52.1542C81.4949 52.3989 81.3548 52.6611 81.1971 52.9058C81.2321 52.9058 81.2497 52.9407 81.2847 52.9582C80.8818 53.5874 80.5139 54.2341 80.0935 54.8458Z" fill="black"/>
</g>
<defs>
<clipPath id="clip0_1181_765">
<rect width="132" height="135" fill="white"/>
</clipPath>
</defs>
</svg>
