<svg width="219" height="108" viewBox="0 0 219 108" fill="none" xmlns="http://www.w3.org/2000/svg">
<g clip-path="url(#clip0_1578_149)">
<path d="M102.853 17.5107L95.043 10.5566L8.29914 92.975L16.1093 99.929L102.853 17.5107Z" fill="#FFAE24"/>
<path d="M16.105 99.9345L8.29492 92.9805L7.18823 94.032L14.9984 100.986L16.105 99.9345Z" fill="#D6D6D6"/>
<path d="M13.8961 102.032L6.08594 95.0781L4.97924 96.1296L12.7894 103.084L13.8961 102.032Z" fill="#D6D6D6"/>
<path d="M14.9976 100.986L7.1875 94.0322L6.08081 95.0837L13.8909 102.038L14.9976 100.986Z" fill="#B7B7B7"/>
<path d="M13.8356 97.9138L8.29492 92.9805L7.18823 94.032L12.7289 98.9653L13.8356 97.9138Z" fill="#C6C6C6"/>
<path d="M11.6266 100.011L6.08594 95.0781L4.97924 96.1296L10.5199 101.063L11.6266 100.011Z" fill="#C6C6C6"/>
<path d="M12.7282 98.9656L7.1875 94.0322L6.08081 95.0837L11.6215 100.017L12.7282 98.9656Z" fill="#A8A8A8"/>
<path d="M10.5644 95.0012L8.29492 92.9805L7.18823 94.032L9.45769 96.0527L10.5644 95.0012Z" fill="#BCBCBC"/>
<path d="M8.3554 97.0988L6.08594 95.0781L4.97924 96.1296L7.24871 98.1503L8.3554 97.0988Z" fill="#BCBCBC"/>
<path d="M9.46282 96.0471L7.19336 94.0264L6.08667 95.0779L8.35614 97.0986L9.46282 96.0471Z" fill="#9E9E9E"/>
<path d="M3.90504 104.338C1.75424 102.413 1.69288 99.2529 3.78025 97.2696L4.97461 96.1348L12.7847 103.089L11.5904 104.224C9.503 106.207 6.06131 106.258 3.90504 104.338Z" fill="#F76666"/>
<path d="M6.48923 103.967C4.96117 102.606 4.92156 100.363 6.4008 98.9572L7.25 98.1504L12.7907 103.084L11.9415 103.891C10.4622 105.296 8.02296 105.332 6.49489 103.972L6.48923 103.967Z" fill="#FC6E6B"/>
<path d="M10.1724 103.456C9.53853 102.891 9.52207 101.959 10.1357 101.376L10.4863 101.043L12.7841 103.089L12.4334 103.422C11.8198 104.005 10.8063 104.02 10.1724 103.456Z" fill="#FF756C"/>
<path d="M102.859 17.5158L95.0435 10.5567L97.1534 9.53122L104.643 5.89429L109.719 3.43599C109.846 3.37773 109.98 3.40647 110.059 3.47701C110.139 3.54756 110.18 3.67504 110.115 3.78873L107.603 8.54001L102.848 17.5159L102.859 17.5158Z" fill="#FFD484"/>
<path d="M107.603 8.53983C106.817 8.49521 106.253 8.10399 105.704 7.61519C105.155 7.12639 104.706 6.61561 104.643 5.89411L109.719 3.43581C109.968 3.31425 110.239 3.55613 110.115 3.78855L107.603 8.53983Z" fill="#5B5B5B"/>
<g style="mix-blend-mode:color-burn" opacity="0.2">
<path d="M110.059 3.47681L97.813 12.2162L97.8021 12.2266L97.3125 12.5772C98.1891 11.7443 98.1657 10.4228 97.2602 9.61651C97.2319 9.59132 97.198 9.56108 97.1585 9.53605L104.648 5.89913L109.718 3.43578C109.845 3.37752 109.98 3.40626 110.059 3.47681Z" fill="#5B5B5B"/>
</g>
<path d="M100.584 15.5C99.7078 16.3329 98.2653 16.3493 97.3654 15.5481C96.4599 14.7418 96.442 13.4151 97.3131 12.5874C98.1897 11.7545 99.6322 11.7381 100.532 12.5393C101.438 13.3456 101.455 14.6723 100.584 15.5Z" fill="#FFAE24"/>
<path d="M97.7966 12.2214L97.307 12.572C97.455 12.4315 97.62 12.3163 97.7966 12.2214Z" fill="#FFAE24"/>
<path d="M97.2612 9.61647C97.2272 9.58623 97.1989 9.56103 97.1595 9.53601L95.044 10.5565L8.30017 92.9748L10.564 94.9905L97.3078 12.5721C98.1844 11.7392 98.1665 10.4125 97.261 9.60622L97.2612 9.61647Z" fill="#F79F1E"/>
<path d="M102.848 17.5163L103.894 15.5434C103.866 15.508 103.837 15.4828 103.803 15.4526C102.898 14.6463 101.45 14.6679 100.573 15.5008L13.8349 97.914L16.0987 99.9296L101.38 18.9011L102.843 17.5113L102.848 17.5163Z" fill="#FFC442"/>
</g>
<path d="M88 62.4652C89.5194 62.9968 90.962 63.7294 92.4709 64.293C97.472 66.1613 102.376 66.7937 107.701 66.9272C115.821 67.1308 123.669 67.0564 131.473 64.6873C140.241 62.0255 148.665 59.097 157.953 59.0068C163.944 58.9486 170.051 59.2674 176 59.8848" stroke="#B2D3B4" stroke-width="2" stroke-linecap="round" stroke-dasharray="2 4"/>
<g clip-path="url(#clip1_1578_149)">
<path d="M187.555 75.4444L200.208 80.195C201.127 80.5398 202.175 80.1346 202.55 79.29L213.496 54.6259C213.871 53.7813 213.43 52.817 212.512 52.4723L199.859 47.7216C198.941 47.3769 197.893 47.7821 197.518 48.6267L186.571 73.2908C186.197 74.1354 186.637 75.0996 187.555 75.4444Z" fill="#0C355A"/>
<path d="M187.555 75.4444L200.208 80.195C201.127 80.5398 202.175 80.1346 202.55 79.29L213.496 54.6259C213.871 53.7813 213.43 52.817 212.512 52.4723L199.859 47.7216C198.941 47.3769 197.893 47.7821 197.518 48.6267L186.571 73.2908C186.197 74.1354 186.637 75.0996 187.555 75.4444Z" fill="#03263D"/>
<path d="M191.028 67.6173L203.681 72.3679C204.599 72.7127 205.648 72.3075 206.022 71.4628L216.969 46.7987C217.344 45.9541 216.903 44.9899 215.985 44.6451L203.332 39.8945C202.413 39.5497 201.365 39.9549 200.99 40.7995L190.044 65.4636C189.669 66.3083 190.11 67.2725 191.028 67.6173Z" fill="#0C355A"/>
<path d="M210.254 61.9307L194.276 55.9315L202.346 37.747C202.721 36.9018 203.769 36.4969 204.687 36.8419L217.34 41.5925C218.256 41.9442 218.696 42.9077 218.324 43.7462L210.254 61.9307Z" fill="#F2F2F2"/>
<path d="M194.272 55.9383L210.25 61.9375L210.768 60.7704L194.79 54.7712L194.272 55.9383Z" fill="#00C6EB"/>
</g>
<defs>
<clipPath id="clip0_1578_149">
<rect width="10.4649" height="146.43" fill="white" transform="matrix(0.746854 0.664988 -0.72495 0.688801 106.154 0)"/>
</clipPath>
<clipPath id="clip1_1578_149">
<rect width="17.0675" height="42.2189" fill="white" transform="matrix(0.936188 0.351499 -0.405654 0.914027 203.021 36.2246)"/>
</clipPath>
</defs>
</svg>
